<svg width="314" height="322" viewBox="0 0 314 322" fill="none" xmlns="http://www.w3.org/2000/svg">
<mask id="path-1-inside-1_5_104" fill="white">
<path fill-rule="evenodd" clip-rule="evenodd" d="M260.148 2.42052C260.31 3.05425 262.414 3.84642 263.708 4.63859C272.769 9.8669 279.404 17.1549 282.316 25.235C282.64 25.7103 281.345 29.8295 279.08 29.0374C276.167 28.2452 268.886 25.5518 269.533 29.0374C269.857 31.2555 271.151 30.7802 275.035 32.8398C278.918 35.0579 286.523 37.5928 289.598 42.0289C292.672 49.6338 291.863 60.8826 288.303 71.1808C284.258 81.0036 278.756 90.1928 270.99 97.3223C270.019 98.2729 266.783 100.491 265.812 100.016C265.488 99.6988 265.164 99.382 265.164 99.0651C263.708 90.1928 256.589 76.7259 246.233 69.9133C242.673 67.2199 232.155 62.6253 233.773 67.6952C234.421 69.5964 235.392 70.547 236.524 71.8145C244.453 76.8844 256.75 106.353 246.071 117.285C239.113 125.207 230.214 130.118 220.182 133.287C218.402 133.921 216.945 134.396 217.107 132.336C216.945 130.277 217.269 128.375 217.269 126.316C217.593 115.384 216.298 111.581 210.958 102.234C208.855 98.5898 202.059 92.5693 198.176 96.5302L197.852 97.0055C197.69 97.3223 200.603 100.808 200.926 101.125C202.706 103.026 205.133 109.522 205.133 112.057C205.133 126.791 200.117 148.18 183.451 152.774C181.024 153.249 180.215 153.408 177.788 153.566C176.817 154.834 177.464 157.052 177.14 158.795C175.522 171.469 174.875 177.965 169.374 187.788C168.079 190.006 165.328 194.125 165.49 195.234C165.49 195.71 167.755 200.621 168.726 205.216C169.697 210.127 170.183 215.039 172.124 213.93C173.904 212.979 174.066 205.533 177.464 201.413C180.7 197.452 182.965 194.601 185.393 189.848C189.438 182.243 192.836 174.163 193.159 170.994C202.706 164.657 220.667 155.467 232.317 148.496C254.161 135.188 281.022 112.849 295.423 91.7771C299.468 85.9151 302.704 81.1621 306.588 75.6169C308.044 73.5573 313.384 67.5368 313.545 66.2693C313.707 65.3187 313.707 64.5265 313.545 63.2591C310.795 63.1006 309.015 64.0512 307.72 65.3187C305.779 67.2199 303.19 69.438 301.41 69.2795C301.248 66.903 301.571 64.3681 302.057 62.7838C303.351 59.6151 303.999 53.5946 305.455 50.4259C307.72 45.3561 310.633 39.8109 311.28 31.4139C311.604 26.6609 310.633 24.4428 309.986 23.0169C309.5 21.9079 309.5 20.9573 306.911 20.9573C303.675 20.9573 305.455 27.1362 304.322 30.9386C303.837 32.6814 302.057 39.6524 300.115 39.494L298.983 38.385C297.526 33.9488 293.805 27.6115 290.892 23.0169C285.067 13.5109 274.226 2.42052 263.223 0.0440094C260.796 -0.114424 260.148 0.0440094 260.148 2.42052ZM53.1947 2.42052C53.0329 3.05425 50.7676 3.84642 49.6349 4.63859C40.4118 9.8669 33.9394 17.1549 31.0269 25.235C30.7033 25.7103 31.9977 29.8295 34.2631 29.0374C37.1756 28.2452 44.2952 25.5518 43.8098 29.0374C43.4862 31.2555 42.1917 30.7802 38.3083 32.8398C34.4249 35.0579 27.3053 37.5928 24.2309 42.0289C20.9947 49.6338 21.9656 60.8826 25.5254 71.1808C29.4088 81.0036 34.9103 90.1928 42.8389 97.3223C43.648 98.2729 46.8841 100.491 48.0168 100.016C48.1786 99.6988 48.5022 99.382 48.5022 99.0651C49.9585 90.1928 57.2399 76.7259 67.4339 69.9133C70.9937 67.2199 81.6731 62.6253 79.8932 67.6952C79.2459 69.5964 78.4369 70.547 77.1424 71.8145C69.2138 76.8844 56.9163 106.353 67.5957 117.285C74.5535 125.207 83.453 130.118 93.4851 133.287C95.4268 133.921 96.7213 134.396 96.5595 132.336C96.8831 130.277 96.5595 128.375 96.3977 126.316C96.2359 115.384 97.3685 111.581 102.708 102.234C104.812 98.5898 111.608 92.5693 115.491 96.5302L115.815 97.0055C115.977 97.3223 113.064 100.808 112.74 101.125C110.961 103.026 108.695 109.522 108.695 112.057C108.533 126.791 113.549 148.18 130.216 152.774C132.643 153.249 133.452 153.408 136.041 153.566C137.012 154.834 136.203 157.052 136.526 158.795C138.144 171.469 138.792 177.965 144.455 187.788C145.588 190.006 148.338 194.125 148.177 195.234C148.177 195.71 145.911 200.621 144.94 205.216C143.97 210.127 143.646 215.039 141.704 213.93C139.924 212.979 139.762 205.374 136.365 201.413C132.481 196.819 129.892 193.175 127.303 187.788C123.905 180.817 120.831 173.846 120.669 170.994C110.961 164.657 93.1615 155.467 81.5113 148.496C59.5052 135.188 32.645 112.849 18.244 91.7771C14.3605 85.9151 10.9626 81.1621 7.24095 75.6169C5.62286 73.5573 0.444975 67.5368 0.121357 66.2693C-0.0404522 65.3187 -0.0404522 64.5265 0.121357 63.2591C3.03392 63.1006 4.65201 64.0512 5.94648 65.3187C7.88819 67.2199 10.4771 69.438 12.4188 69.2795C12.5806 66.903 12.257 64.3681 11.7716 62.7838C10.3153 59.6151 9.66809 53.5946 8.21181 50.4259C5.94648 45.3561 3.03392 39.8109 2.54849 31.4139C2.22487 26.6609 3.03392 24.4428 3.68115 23.0169C4.16658 21.9079 4.16658 20.9573 6.91733 20.9573C9.9917 20.9573 8.37361 27.1362 9.50628 30.9386C9.9917 32.6814 11.6098 39.6524 13.5515 39.494L14.846 38.385C16.1404 33.9488 19.8621 27.6115 22.7746 23.0169C28.5997 13.5109 39.1173 2.42052 50.1203 0.0440094C52.3857 -0.114424 53.1947 0.0440094 53.1947 2.42052ZM192.027 193.175C198.176 190.481 218.078 180.342 219.696 178.757C219.696 183.035 214.518 195.868 203.353 201.255C198.661 203.631 194.616 206.642 187.658 207.434C186.525 207.592 185.393 208.068 187.011 209.493C191.38 211.711 195.101 211.711 200.117 211.711C212.091 211.711 225.036 199.829 228.757 189.531C229.89 186.521 231.508 178.282 231.508 172.42L231.67 162.439C231.508 160.854 228.757 158.002 226.33 159.745C217.269 166.083 214.033 167.667 203.677 173.054C195.101 177.49 194.13 182.56 190.571 191.907C189.761 194.125 190.732 193.65 192.027 193.175ZM121.802 193.175C115.491 190.481 95.5886 180.342 93.9706 178.757C93.9706 183.035 99.3103 195.868 110.313 201.255C115.006 203.631 119.051 206.642 126.009 207.434C127.141 207.592 128.274 208.068 126.656 209.493C122.287 211.711 118.566 211.711 113.549 211.711C101.737 211.711 88.6309 199.829 84.9093 189.531C83.7766 186.521 82.1585 178.282 82.1585 172.42V162.439C82.3203 160.854 85.0711 158.002 87.4982 159.745C96.3977 166.083 99.7957 167.667 109.99 173.054C118.566 177.49 119.536 182.56 123.096 191.907C123.905 194.125 122.934 193.65 121.802 193.175ZM129.083 212.345C127.95 218.049 127.627 233.575 131.996 240.546C135.555 246.092 138.306 253.063 139.439 260.034L139.924 264.47L140.086 277.937C139.924 279.68 139.277 279.996 136.526 277.461C134.746 275.719 132.157 271.599 131.187 269.54C129.73 267.005 128.112 256.865 127.303 255.122C126.656 253.38 122.934 250.686 122.287 250.052C120.669 247.676 118.889 241.972 118.566 239.596C118.242 237.536 117.756 221.376 118.727 220.108C119.536 219.316 124.391 213.771 127.141 212.028C128.112 211.236 129.245 211.711 129.083 212.345ZM184.584 212.345C185.716 218.049 186.202 233.575 181.833 240.546C178.273 246.092 175.36 253.063 174.39 260.034L173.742 264.47L173.581 277.937C173.742 279.68 174.39 279.996 177.302 277.461C178.92 275.719 181.509 271.599 182.642 269.54C183.936 267.005 185.554 256.865 186.363 255.122C187.173 253.38 190.894 250.686 191.38 250.052C192.998 247.676 194.778 241.972 195.101 239.596C195.425 237.536 195.91 221.376 194.939 220.108C194.13 219.316 189.276 213.771 186.525 212.028C185.554 211.236 184.422 211.711 184.584 212.345ZM156.914 293.146C154.487 293.146 144.293 288.393 143.322 283.957C143.16 283.165 143.322 271.916 143.322 270.966C143.322 270.015 145.102 268.114 146.235 268.272C149.633 269.381 151.898 271.124 156.914 271.916C161.769 271.124 164.034 269.381 167.432 268.272C168.564 268.114 170.344 270.015 170.344 270.966C170.506 271.916 170.506 283.165 170.344 283.957C169.374 288.393 159.18 293.146 156.914 293.146Z"/>
</mask>
<path fill-rule="evenodd" clip-rule="evenodd" d="M260.148 2.42052C260.31 3.05425 262.414 3.84642 263.708 4.63859C272.769 9.8669 279.404 17.1549 282.316 25.235C282.64 25.7103 281.345 29.8295 279.08 29.0374C276.167 28.2452 268.886 25.5518 269.533 29.0374C269.857 31.2555 271.151 30.7802 275.035 32.8398C278.918 35.0579 286.523 37.5928 289.598 42.0289C292.672 49.6338 291.863 60.8826 288.303 71.1808C284.258 81.0036 278.756 90.1928 270.99 97.3223C270.019 98.2729 266.783 100.491 265.812 100.016C265.488 99.6988 265.164 99.382 265.164 99.0651C263.708 90.1928 256.589 76.7259 246.233 69.9133C242.673 67.2199 232.155 62.6253 233.773 67.6952C234.421 69.5964 235.392 70.547 236.524 71.8145C244.453 76.8844 256.75 106.353 246.071 117.285C239.113 125.207 230.214 130.118 220.182 133.287C218.402 133.921 216.945 134.396 217.107 132.336C216.945 130.277 217.269 128.375 217.269 126.316C217.593 115.384 216.298 111.581 210.958 102.234C208.855 98.5898 202.059 92.5693 198.176 96.5302L197.852 97.0055C197.69 97.3223 200.603 100.808 200.926 101.125C202.706 103.026 205.133 109.522 205.133 112.057C205.133 126.791 200.117 148.18 183.451 152.774C181.024 153.249 180.215 153.408 177.788 153.566C176.817 154.834 177.464 157.052 177.14 158.795C175.522 171.469 174.875 177.965 169.374 187.788C168.079 190.006 165.328 194.125 165.49 195.234C165.49 195.71 167.755 200.621 168.726 205.216C169.697 210.127 170.183 215.039 172.124 213.93C173.904 212.979 174.066 205.533 177.464 201.413C180.7 197.452 182.965 194.601 185.393 189.848C189.438 182.243 192.836 174.163 193.159 170.994C202.706 164.657 220.667 155.467 232.317 148.496C254.161 135.188 281.022 112.849 295.423 91.7771C299.468 85.9151 302.704 81.1621 306.588 75.6169C308.044 73.5573 313.384 67.5368 313.545 66.2693C313.707 65.3187 313.707 64.5265 313.545 63.2591C310.795 63.1006 309.015 64.0512 307.72 65.3187C305.779 67.2199 303.19 69.438 301.41 69.2795C301.248 66.903 301.571 64.3681 302.057 62.7838C303.351 59.6151 303.999 53.5946 305.455 50.4259C307.72 45.3561 310.633 39.8109 311.28 31.4139C311.604 26.6609 310.633 24.4428 309.986 23.0169C309.5 21.9079 309.5 20.9573 306.911 20.9573C303.675 20.9573 305.455 27.1362 304.322 30.9386C303.837 32.6814 302.057 39.6524 300.115 39.494L298.983 38.385C297.526 33.9488 293.805 27.6115 290.892 23.0169C285.067 13.5109 274.226 2.42052 263.223 0.0440094C260.796 -0.114424 260.148 0.0440094 260.148 2.42052ZM53.1947 2.42052C53.0329 3.05425 50.7676 3.84642 49.6349 4.63859C40.4118 9.8669 33.9394 17.1549 31.0269 25.235C30.7033 25.7103 31.9977 29.8295 34.2631 29.0374C37.1756 28.2452 44.2952 25.5518 43.8098 29.0374C43.4862 31.2555 42.1917 30.7802 38.3083 32.8398C34.4249 35.0579 27.3053 37.5928 24.2309 42.0289C20.9947 49.6338 21.9656 60.8826 25.5254 71.1808C29.4088 81.0036 34.9103 90.1928 42.8389 97.3223C43.648 98.2729 46.8841 100.491 48.0168 100.016C48.1786 99.6988 48.5022 99.382 48.5022 99.0651C49.9585 90.1928 57.2399 76.7259 67.4339 69.9133C70.9937 67.2199 81.6731 62.6253 79.8932 67.6952C79.2459 69.5964 78.4369 70.547 77.1424 71.8145C69.2138 76.8844 56.9163 106.353 67.5957 117.285C74.5535 125.207 83.453 130.118 93.4851 133.287C95.4268 133.921 96.7213 134.396 96.5595 132.336C96.8831 130.277 96.5595 128.375 96.3977 126.316C96.2359 115.384 97.3685 111.581 102.708 102.234C104.812 98.5898 111.608 92.5693 115.491 96.5302L115.815 97.0055C115.977 97.3223 113.064 100.808 112.74 101.125C110.961 103.026 108.695 109.522 108.695 112.057C108.533 126.791 113.549 148.18 130.216 152.774C132.643 153.249 133.452 153.408 136.041 153.566C137.012 154.834 136.203 157.052 136.526 158.795C138.144 171.469 138.792 177.965 144.455 187.788C145.588 190.006 148.338 194.125 148.177 195.234C148.177 195.71 145.911 200.621 144.94 205.216C143.97 210.127 143.646 215.039 141.704 213.93C139.924 212.979 139.762 205.374 136.365 201.413C132.481 196.819 129.892 193.175 127.303 187.788C123.905 180.817 120.831 173.846 120.669 170.994C110.961 164.657 93.1615 155.467 81.5113 148.496C59.5052 135.188 32.645 112.849 18.244 91.7771C14.3605 85.9151 10.9626 81.1621 7.24095 75.6169C5.62286 73.5573 0.444975 67.5368 0.121357 66.2693C-0.0404522 65.3187 -0.0404522 64.5265 0.121357 63.2591C3.03392 63.1006 4.65201 64.0512 5.94648 65.3187C7.88819 67.2199 10.4771 69.438 12.4188 69.2795C12.5806 66.903 12.257 64.3681 11.7716 62.7838C10.3153 59.6151 9.66809 53.5946 8.21181 50.4259C5.94648 45.3561 3.03392 39.8109 2.54849 31.4139C2.22487 26.6609 3.03392 24.4428 3.68115 23.0169C4.16658 21.9079 4.16658 20.9573 6.91733 20.9573C9.9917 20.9573 8.37361 27.1362 9.50628 30.9386C9.9917 32.6814 11.6098 39.6524 13.5515 39.494L14.846 38.385C16.1404 33.9488 19.8621 27.6115 22.7746 23.0169C28.5997 13.5109 39.1173 2.42052 50.1203 0.0440094C52.3857 -0.114424 53.1947 0.0440094 53.1947 2.42052ZM192.027 193.175C198.176 190.481 218.078 180.342 219.696 178.757C219.696 183.035 214.518 195.868 203.353 201.255C198.661 203.631 194.616 206.642 187.658 207.434C186.525 207.592 185.393 208.068 187.011 209.493C191.38 211.711 195.101 211.711 200.117 211.711C212.091 211.711 225.036 199.829 228.757 189.531C229.89 186.521 231.508 178.282 231.508 172.42L231.67 162.439C231.508 160.854 228.757 158.002 226.33 159.745C217.269 166.083 214.033 167.667 203.677 173.054C195.101 177.49 194.13 182.56 190.571 191.907C189.761 194.125 190.732 193.65 192.027 193.175ZM121.802 193.175C115.491 190.481 95.5886 180.342 93.9706 178.757C93.9706 183.035 99.3103 195.868 110.313 201.255C115.006 203.631 119.051 206.642 126.009 207.434C127.141 207.592 128.274 208.068 126.656 209.493C122.287 211.711 118.566 211.711 113.549 211.711C101.737 211.711 88.6309 199.829 84.9093 189.531C83.7766 186.521 82.1585 178.282 82.1585 172.42V162.439C82.3203 160.854 85.0711 158.002 87.4982 159.745C96.3977 166.083 99.7957 167.667 109.99 173.054C118.566 177.49 119.536 182.56 123.096 191.907C123.905 194.125 122.934 193.65 121.802 193.175ZM129.083 212.345C127.95 218.049 127.627 233.575 131.996 240.546C135.555 246.092 138.306 253.063 139.439 260.034L139.924 264.47L140.086 277.937C139.924 279.68 139.277 279.996 136.526 277.461C134.746 275.719 132.157 271.599 131.187 269.54C129.73 267.005 128.112 256.865 127.303 255.122C126.656 253.38 122.934 250.686 122.287 250.052C120.669 247.676 118.889 241.972 118.566 239.596C118.242 237.536 117.756 221.376 118.727 220.108C119.536 219.316 124.391 213.771 127.141 212.028C128.112 211.236 129.245 211.711 129.083 212.345ZM184.584 212.345C185.716 218.049 186.202 233.575 181.833 240.546C178.273 246.092 175.36 253.063 174.39 260.034L173.742 264.47L173.581 277.937C173.742 279.68 174.39 279.996 177.302 277.461C178.92 275.719 181.509 271.599 182.642 269.54C183.936 267.005 185.554 256.865 186.363 255.122C187.173 253.38 190.894 250.686 191.38 250.052C192.998 247.676 194.778 241.972 195.101 239.596C195.425 237.536 195.91 221.376 194.939 220.108C194.13 219.316 189.276 213.771 186.525 212.028C185.554 211.236 184.422 211.711 184.584 212.345ZM156.914 293.146C154.487 293.146 144.293 288.393 143.322 283.957C143.16 283.165 143.322 271.916 143.322 270.966C143.322 270.015 145.102 268.114 146.235 268.272C149.633 269.381 151.898 271.124 156.914 271.916C161.769 271.124 164.034 269.381 167.432 268.272C168.564 268.114 170.344 270.015 170.344 270.966C170.506 271.916 170.506 283.165 170.344 283.957C169.374 288.393 159.18 293.146 156.914 293.146Z" stroke="#BBBBBB" stroke-width="4" mask="url(#path-1-inside-1_5_104)"/>
<path d="M76.3769 41.494H75.3769V42.494V60.9179C72.7407 62.076 70.6168 63.4356 68.5582 64.9107C67.7108 65.5179 66.8915 66.1314 66.0569 66.7562C65.1258 67.4533 64.1759 68.1646 63.147 68.8971V29.7283H63.2954H63.6782H64.0609H64.4437H64.8265H65.2093H65.5921H65.9748H66.3576H66.7404H67.1232H67.506H67.8887H68.2715H68.6543H69.0371H69.4199H69.8026H70.1854H70.5682H70.951H71.3337H71.7165H72.0993H72.4821H72.8649H73.2476H73.6304H74.0132H74.396H74.7787H75.1615H75.5443H75.9271H76.3098H76.6926H77.0754H77.4582H77.8409H78.2237H78.6065H78.9893H79.372H79.7548H80.1376H80.5204H80.9031H81.2859H81.6687H82.0514H82.4342H82.817H83.1998H83.5825H83.9653H84.3481H84.7308H85.1136H85.4964H85.8791H86.2619H86.6447H87.0274H87.4102H87.793H88.1757H88.5585H88.9412H89.324H89.7068H90.0895H90.4723H90.855H91.2378H91.6206H92.0033H92.3861H92.7688H93.1516H93.5344H93.9171H94.2999H94.6826H95.0654H95.4481H95.8309H96.2136H96.5964H96.9791H97.3619H97.7446H98.1274H98.5101H98.8929H99.2756H99.6584H100.041H100.424H100.807H101.189H101.572H101.955H102.338H102.72H103.103H103.486H103.869H104.251H104.634H105.017H105.399H105.782H106.165H106.548H106.93H107.313H107.696H108.079H108.461H108.844H109.227H109.609H109.992H110.375H110.758H111.14H111.523H111.906H112.289H112.671H113.054H113.437H113.819H114.202H114.585H114.968H115.35H115.733H116.116H116.498H116.881H117.264H117.647H118.029H118.412H118.795H119.177H119.56H119.943H120.325H120.708H121.091H121.473H121.856H122.239H122.622H123.004H123.387H123.77H124.152H124.535H124.918H125.3H125.683H126.066H126.448H126.831H127.214H127.596H127.979H128.362H128.744H129.127H129.51H129.892H130.275H130.658H131.04H131.423H131.806H132.188H132.571H132.954H133.336H133.719H134.102H134.484H134.867H135.25H135.632H136.015H136.398H136.78H137.163H137.546H137.928H138.311H138.693H139.076H139.459H139.841H140.224H140.607H140.989H141.372H141.755H142.137H142.52H142.902H143.285H143.668H144.05H144.433H144.815H145.198H145.581H145.963H146.346H146.728H147.111H147.494H147.876H148.259H148.641H149.024H149.407H149.789H150.172H150.554H150.937H151.32H151.702H152.085H152.467H152.85H153.233H153.615H153.998H154.38H154.763H155.145H155.528H155.91H156.293H156.676H157.058H157.441H157.823H158.206H158.588H158.971H159.353H159.736H160.119H160.501H160.884H161.266H161.649H162.031H162.414H162.796H163.179H163.561H163.944H164.326H164.709H165.091H165.474H165.857H166.239H166.622H167.004H167.387H167.769H168.152H168.534H168.917H169.299H169.682H170.064H170.447H170.829H171.212H171.594H171.977H172.359H172.741H173.124H173.506H173.889H174.271H174.654H175.036H175.419H175.801H176.184H176.566H176.949H177.331H177.714H178.096H178.478H178.861H179.243H179.626H180.008H180.391H180.773H181.155H181.538H181.92H182.303H182.685H183.068H183.45H183.832H184.215H184.597H184.98H185.362H185.744H186.127H186.509H186.892H187.274H187.656H188.039H188.421H188.804H189.186H189.568H189.951H190.333H190.716H191.098H191.48H191.863H192.245H192.627H193.01H193.392H193.774H194.157H194.539H194.921H195.304H195.686H196.068H196.451H196.833H197.215H197.598H197.98H198.362H198.745H199.127H199.509H199.892H200.274H200.656H201.039H201.421H201.803H202.186H202.568H202.95H203.332H203.715H204.097H204.479H204.862H205.244H205.626H206.008H206.391H206.773H207.155H207.537H207.92H208.302H208.684H209.066H209.449H209.831H210.213H210.595H210.978H211.36H211.742H212.124H212.507H212.889H213.271H213.653H214.035H214.418H214.8H215.182H215.564H215.946H216.329H216.711H217.093H217.475H217.857H218.24H218.622H219.004H219.386H219.768H220.15H220.533H220.915H221.297H221.679H222.061H222.443H222.826H223.208H223.59H223.972H224.354H224.736H225.118H225.5H225.883H226.265H226.647H227.029H227.411H227.793H228.175H228.557H228.939H229.321H229.704H230.086H230.468H230.85H231.232H231.614H231.996H232.378H232.76H233.142H233.524H233.906H234.288H234.67H235.052H235.435H235.817H236.199H236.581H236.963H237.345H237.727H238.109H238.491H238.873H239.255H239.637H240.019H240.401H240.783H241.165H241.547H241.929H242.311H242.693H243.075H243.457H243.839H244.221H244.602H244.984H245.366H245.748H246.13H246.512H246.894H247.276H247.658H248.04H248.422H248.804H249.186H249.568H249.95H250.331H250.713H251.095H251.477H251.859H252.241H252.623H253.005H253.387H253.768H254.15H254.532H254.914H255.296H255.678H256.06H256.441H256.823H256.969V68.8969C255.891 68.1289 254.897 67.3825 253.925 66.6523C253.141 66.063 252.371 65.4843 251.581 64.9133C249.547 63.4415 247.463 62.0833 244.901 60.9254V42.494V41.494H243.901H243.573H243.245H242.917H242.589H242.262H241.934H241.606H241.278H240.95H240.623H240.295H239.967H239.639H239.312H238.984H238.656H238.328H238H237.673H237.345H237.017H236.689H236.362H236.034H235.706H235.378H235.051H234.723H234.395H234.068H233.74H233.412H233.084H232.757H232.429H232.101H231.774H231.446H231.118H230.791H230.463H230.135H229.808H229.48H229.152H228.824H228.497H228.169H227.842H227.514H227.186H226.859H226.531H226.203H225.876H225.548H225.22H224.893H224.565H224.238H223.91H223.582H223.255H222.927H222.599H222.272H221.944H221.617H221.289H220.962H220.634H220.306H219.979H219.651H219.324H218.996H218.668H218.341H218.013H217.686H217.358H217.031H216.703H216.376H216.048H215.721H215.393H215.065H214.738H214.41H214.083H213.755H213.428H213.1H212.773H212.445H212.118H211.79H211.463H211.135H210.808H210.48H210.153H209.825H209.498H209.17H208.843H208.516H208.188H207.861H207.533H207.206H206.878H206.551H206.223H205.896H205.568H205.241H204.914H204.586H204.259H203.931H203.604H203.276H202.949H202.622H202.294H201.967H201.639H201.312H200.984H200.657H200.33H200.002H199.675H199.347H199.02H198.693H198.365H198.038H197.711H197.383H197.056H196.728H196.401H196.074H195.746H195.419H195.092H194.764H194.437H194.11H193.782H193.455H193.128H192.8H192.473H192.146H191.818H191.491H191.164H190.836H190.509H190.182H189.854H189.527H189.2H188.872H188.545H188.218H187.89H187.563H187.236H186.909H186.581H186.254H185.927H185.599H185.272H184.945H184.618H184.29H183.963H183.636H183.308H182.981H182.654H182.327H181.999H181.672H181.345H181.018H180.69H180.363H180.036H179.709H179.381H179.054H178.727H178.4H178.073H177.745H177.418H177.091H176.764H176.436H176.109H175.782H175.455H175.128H174.8H174.473H174.146H173.819H173.492H173.164H172.837H172.51H172.183H171.856H171.528H171.201H170.874H170.547H170.22H169.893H169.565H169.238H168.911H168.584H168.257H167.929H167.602H167.275H166.948H166.621H166.294H165.967H165.639H165.312H164.985H164.658H164.331H164.004H163.677H163.349H163.022H162.695H162.368H162.041H161.714H161.387H161.06H160.732H160.405H160.078H159.751H159.424H159.097H158.77H158.443H158.115H157.788H157.461H157.134H156.807H156.48H156.153H155.826H155.499H155.172H154.845H154.517H154.19H153.863H153.536H153.209H152.882H152.555H152.228H151.901H151.574H151.247H150.92H150.593H150.265H149.938H149.611H149.284H148.957H148.63H148.303H147.976H147.649H147.322H146.995H146.668H146.341H146.014H145.687H145.36H145.033H144.706H144.379H144.052H143.725H143.397H143.07H142.743H142.416H142.089H141.762H141.435H141.108H140.781H140.454H140.127H139.8H139.473H139.146H138.819H138.492H138.165H137.838H137.511H137.184H136.857H136.53H136.203H135.876H135.549H135.222H134.895H134.568H134.241H133.914H133.587H133.26H132.933H132.606H132.279H131.952H131.625H131.298H130.971H130.644H130.317H129.99H129.663H129.336H129.009H128.682H128.355H128.029H127.702H127.375H127.048H126.721H126.394H126.067H125.74H125.413H125.086H124.759H124.432H124.105H123.778H123.451H123.124H122.797H122.47H122.143H121.816H121.489H121.162H120.835H120.509H120.182H119.855H119.528H119.201H118.874H118.547H118.22H117.893H117.566H117.239H116.912H116.585H116.258H115.931H115.604H115.278H114.951H114.624H114.297H113.97H113.643H113.316H112.989H112.662H112.335H112.008H111.681H111.354H111.027H110.701H110.374H110.047H109.72H109.393H109.066H108.739H108.412H108.085H107.758H107.431H107.105H106.778H106.451H106.124H105.797H105.47H105.143H104.816H104.489H104.162H103.835H103.509H103.182H102.855H102.528H102.201H101.874H101.547H101.22H100.893H100.566H100.24H99.9126H99.5857H99.2588H98.9319H98.605H98.2781H97.9512H97.6243H97.2974H96.9706H96.6437H96.3168H95.9899H95.663H95.3361H95.0092H94.6823H94.3554H94.0285H93.7016H93.3747H93.0479H92.721H92.3941H92.0672H91.7403H91.4134H91.0865H90.7596H90.4328H90.1059H89.779H89.4521H89.1252H88.7983H88.4715H88.1446H87.8177H87.4908H87.1639H86.837H86.5102H86.1833H85.8564H85.5295H85.2026H84.8757H84.5489H84.222H83.8951H83.5682H83.2413H82.9145H82.5876H82.2607H81.9338H81.6069H81.2801H80.9532H80.6263H80.2994H79.9725H79.6457H79.3188H78.9919H78.665H78.3381H78.0113H77.6844H77.3575H77.0306H76.7037H76.3769ZM243.901 309.109H244.901V308.109V159.401C249.715 156.062 252.796 153.713 256.969 150.231V320.875H256.823H256.441H256.06H255.678H255.296H254.914H254.532H254.15H253.768H253.387H253.005H252.623H252.241H251.859H251.477H251.095H250.713H250.331H249.95H249.568H249.186H248.804H248.422H248.04H247.658H247.276H246.894H246.512H246.13H245.748H245.366H244.984H244.602H244.221H243.839H243.457H243.075H242.693H242.311H241.929H241.547H241.165H240.783H240.401H240.019H239.637H239.255H238.873H238.491H238.109H237.727H237.345H236.963H236.581H236.199H235.817H235.435H235.052H234.67H234.288H233.906H233.524H233.142H232.76H232.378H231.996H231.614H231.232H230.85H230.468H230.086H229.704H229.321H228.939H228.557H228.175H227.793H227.411H227.029H226.647H226.265H225.883H225.5H225.118H224.736H224.354H223.972H223.59H223.208H222.826H222.443H222.061H221.679H221.297H220.915H220.533H220.15H219.768H219.386H219.004H218.622H218.24H217.857H217.475H217.093H216.711H216.329H215.946H215.564H215.182H214.8H214.418H214.035H213.653H213.271H212.889H212.507H212.124H211.742H211.36H210.978H210.595H210.213H209.831H209.449H209.066H208.684H208.302H207.92H207.537H207.155H206.773H206.391H206.008H205.626H205.244H204.862H204.479H204.097H203.715H203.332H202.95H202.568H202.186H201.803H201.421H201.039H200.656H200.274H199.892H199.509H199.127H198.745H198.362H197.98H197.598H197.215H196.833H196.451H196.068H195.686H195.304H194.921H194.539H194.157H193.774H193.392H193.01H192.627H192.245H191.863H191.48H191.098H190.716H190.333H189.951H189.568H189.186H188.804H188.421H188.039H187.656H187.274H186.892H186.509H186.127H185.744H185.362H184.98H184.597H184.215H183.832H183.45H183.068H182.685H182.303H181.92H181.538H181.155H180.773H180.391H180.008H179.626H179.243H178.861H178.478H178.096H177.714H177.331H176.949H176.566H176.184H175.801H175.419H175.036H174.654H174.271H173.889H173.506H173.124H172.741H172.359H171.977H171.594H171.212H170.829H170.447H170.064H169.682H169.299H168.917H168.534H168.152H167.769H167.387H167.004H166.622H166.239H165.857H165.474H165.091H164.709H164.326H163.944H163.561H163.179H162.796H162.414H162.031H161.649H161.266H160.884H160.501H160.119H159.736H159.353H158.971H158.588H158.206H157.823H157.441H157.058H156.676H156.293H155.91H155.528H155.145H154.763H154.38H153.998H153.615H153.233H152.85H152.467H152.085H151.702H151.32H150.937H150.554H150.172H149.789H149.407H149.024H148.641H148.259H147.876H147.494H147.111H146.728H146.346H145.963H145.581H145.198H144.815H144.433H144.05H143.668H143.285H142.902H142.52H142.137H141.755H141.372H140.989H140.607H140.224H139.841H139.459H139.076H138.693H138.311H137.928H137.546H137.163H136.78H136.398H136.015H135.632H135.25H134.867H134.484H134.102H133.719H133.336H132.954H132.571H132.188H131.806H131.423H131.04H130.658H130.275H129.892H129.51H129.127H128.744H128.362H127.979H127.596H127.214H126.831H126.448H126.066H125.683H125.3H124.918H124.535H124.152H123.77H123.387H123.004H122.622H122.239H121.856H121.473H121.091H120.708H120.325H119.943H119.56H119.177H118.795H118.412H118.029H117.647H117.264H116.881H116.498H116.116H115.733H115.35H114.968H114.585H114.202H113.819H113.437H113.054H112.671H112.289H111.906H111.523H111.14H110.758H110.375H109.992H109.609H109.227H108.844H108.461H108.079H107.696H107.313H106.93H106.548H106.165H105.782H105.399H105.017H104.634H104.251H103.869H103.486H103.103H102.72H102.338H101.955H101.572H101.189H100.807H100.424H100.041H99.6584H99.2756H98.8929H98.5101H98.1274H97.7446H97.3619H96.9791H96.5964H96.2136H95.8309H95.4481H95.0654H94.6826H94.2999H93.9171H93.5344H93.1516H92.7688H92.3861H92.0033H91.6206H91.2378H90.855H90.4723H90.0895H89.7068H89.324H88.9412H88.5585H88.1757H87.793H87.4102H87.0274H86.6447H86.2619H85.8791H85.4964H85.1136H84.7308H84.3481H83.9653H83.5825H83.1998H82.817H82.4342H82.0514H81.6687H81.2859H80.9031H80.5204H80.1376H79.7548H79.372H78.9893H78.6065H78.2237H77.8409H77.4582H77.0754H76.6926H76.3098H75.9271H75.5443H75.1615H74.7787H74.396H74.0132H73.6304H73.2476H72.8649H72.4821H72.0993H71.7165H71.3337H70.951H70.5682H70.1854H69.8026H69.4199H69.0371H68.6543H68.2715H67.8887H67.506H67.1232H66.7404H66.3576H65.9748H65.5921H65.2093H64.8265H64.4437H64.0609H63.6782H63.2954H63.147V150.208C67.6437 153.914 70.3928 156.045 75.3769 159.409V308.109V309.109H76.3769H76.7037H77.0306H77.3575H77.6844H78.0113H78.3381H78.665H78.9919H79.3188H79.6457H79.9725H80.2994H80.6263H80.9532H81.2801H81.6069H81.9338H82.2607H82.5876H82.9145H83.2413H83.5682H83.8951H84.222H84.5489H84.8757H85.2026H85.5295H85.8564H86.1833H86.5102H86.837H87.1639H87.4908H87.8177H88.1446H88.4715H88.7983H89.1252H89.4521H89.779H90.1059H90.4328H90.7596H91.0865H91.4134H91.7403H92.0672H92.3941H92.721H93.0479H93.3747H93.7016H94.0285H94.3554H94.6823H95.0092H95.3361H95.663H95.9899H96.3168H96.6437H96.9706H97.2974H97.6243H97.9512H98.2781H98.605H98.9319H99.2588H99.5857H99.9126H100.24H100.566H100.893H101.22H101.547H101.874H102.201H102.528H102.855H103.182H103.509H103.835H104.162H104.489H104.816H105.143H105.47H105.797H106.124H106.451H106.778H107.105H107.431H107.758H108.085H108.412H108.739H109.066H109.393H109.72H110.047H110.374H110.701H111.027H111.354H111.681H112.008H112.335H112.662H112.989H113.316H113.643H113.97H114.297H114.624H114.951H115.278H115.604H115.931H116.258H116.585H116.912H117.239H117.566H117.893H118.22H118.547H118.874H119.201H119.528H119.855H120.182H120.509H120.835H121.162H121.489H121.816H122.143H122.47H122.797H123.124H123.451H123.778H124.105H124.432H124.759H125.086H125.413H125.74H126.067H126.394H126.721H127.048H127.375H127.702H128.029H128.355H128.682H129.009H129.336H129.663H129.99H130.317H130.644H130.971H131.298H131.625H131.952H132.279H132.606H132.933H133.26H133.587H133.914H134.241H134.568H134.895H135.222H135.549H135.876H136.203H136.53H136.857H137.184H137.511H137.838H138.165H138.492H138.819H139.146H139.473H139.8H140.127H140.454H140.781H141.108H141.435H141.762H142.089H142.416H142.743H143.07H143.397H143.725H144.052H144.379H144.706H145.033H145.36H145.687H146.014H146.341H146.668H146.995H147.322H147.649H147.976H148.303H148.63H148.957H149.284H149.611H149.938H150.265H150.593H150.92H151.247H151.574H151.901H152.228H152.555H152.882H153.209H153.536H153.863H154.19H154.517H154.845H155.172H155.499H155.826H156.153H156.48H156.807H157.134H157.461H157.788H158.115H158.443H158.77H159.097H159.424H159.751H160.078H160.405H160.732H161.06H161.387H161.714H162.041H162.368H162.695H163.022H163.349H163.677H164.004H164.331H164.658H164.985H165.312H165.639H165.967H166.294H166.621H166.948H167.275H167.602H167.929H168.257H168.584H168.911H169.238H169.565H169.893H170.22H170.547H170.874H171.201H171.528H171.856H172.183H172.51H172.837H173.164H173.492H173.819H174.146H174.473H174.8H175.128H175.455H175.782H176.109H176.436H176.764H177.091H177.418H177.745H178.073H178.4H178.727H179.054H179.381H179.709H180.036H180.363H180.69H181.018H181.345H181.672H181.999H182.327H182.654H182.981H183.308H183.636H183.963H184.29H184.618H184.945H185.272H185.599H185.927H186.254H186.581H186.909H187.236H187.563H187.89H188.218H188.545H188.872H189.2H189.527H189.854H190.182H190.509H190.836H191.164H191.491H191.818H192.146H192.473H192.8H193.128H193.455H193.782H194.11H194.437H194.764H195.092H195.419H195.746H196.074H196.401H196.728H197.056H197.383H197.711H198.038H198.365H198.693H199.02H199.347H199.675H200.002H200.33H200.657H200.984H201.312H201.639H201.967H202.294H202.622H202.949H203.276H203.604H203.931H204.259H204.586H204.914H205.241H205.568H205.896H206.223H206.551H206.878H207.206H207.533H207.861H208.188H208.516H208.843H209.17H209.498H209.825H210.153H210.48H210.808H211.135H211.463H211.79H212.118H212.445H212.773H213.1H213.428H213.755H214.083H214.41H214.738H215.065H215.393H215.721H216.048H216.376H216.703H217.031H217.358H217.686H218.013H218.341H218.668H218.996H219.324H219.651H219.979H220.306H220.634H220.962H221.289H221.617H221.944H222.272H222.599H222.927H223.255H223.582H223.91H224.238H224.565H224.893H225.22H225.548H225.876H226.203H226.531H226.859H227.186H227.514H227.842H228.169H228.497H228.824H229.152H229.48H229.808H230.135H230.463H230.791H231.118H231.446H231.774H232.101H232.429H232.757H233.084H233.412H233.74H234.068H234.395H234.723H235.051H235.378H235.706H236.034H236.362H236.689H237.017H237.345H237.673H238H238.328H238.656H238.984H239.312H239.639H239.967H240.295H240.623H240.95H241.278H241.606H241.934H242.262H242.589H242.917H243.245H243.573H243.901Z" stroke="#BBBBBB" stroke-width="2"/>
</svg>
