<svg width="607" height="58" viewBox="0 0 607 58" fill="none" xmlns="http://www.w3.org/2000/svg">
<path d="M14.92 54.2L14.4447 55.0798L14.4489 55.0821L14.92 54.2ZM3.96 43.88L3.09887 44.3884L3.10249 44.3945L3.1062 44.4006L3.96 43.88ZM3.96 14.2L3.10341 13.684L3.10159 13.687L3.96 14.2ZM14.92 3.8L14.4489 2.91791L14.4447 2.92018L14.92 3.8ZM57.32 14.2L56.4634 14.716L56.4662 14.7206L57.32 14.2ZM57.32 43.88L58.1738 44.4006L58.1766 44.396L57.32 43.88ZM46.36 54.2L46.8353 55.0798L46.8353 55.0798L46.36 54.2ZM39.64 44.68L40.1286 45.5525L40.1352 45.5488L40.1417 45.545L39.64 44.68ZM45.88 38.28L45.0107 37.7857L45.007 37.7922L45.0034 37.7987L45.88 38.28ZM45.88 19.72L45.0034 20.2013L45.007 20.2078L45.0107 20.2143L45.88 19.72ZM39.64 13.4L39.1383 14.265L39.1448 14.2688L39.1514 14.2725L39.64 13.4ZM21.72 13.4L22.2086 14.2725L22.2152 14.2688L22.2217 14.265L21.72 13.4ZM15.4 19.72L14.5307 19.2257L14.527 19.2322L14.5234 19.2387L15.4 19.72ZM15.4 38.28L14.5234 38.7613L14.527 38.7678L14.5307 38.7743L15.4 38.28ZM21.72 44.68L21.2183 45.545L21.2248 45.5488L21.2314 45.5525L21.72 44.68ZM30.68 56.96C25.0155 56.96 19.9264 55.7402 15.3911 53.3179L14.4489 55.0821C19.3003 57.6732 24.7179 58.96 30.68 58.96V56.96ZM15.3953 53.3202C10.9062 50.895 7.3855 47.577 4.8138 43.3594L3.1062 44.4006C5.86783 48.9297 9.65379 52.4916 14.4447 55.0798L15.3953 53.3202ZM4.82113 43.3716C2.30498 39.1096 1.04 34.3272 1.04 29H-0.96C-0.96 34.6594 0.388359 39.7971 3.09887 44.3884L4.82113 43.3716ZM1.04 29C1.04 23.6727 2.30497 18.9191 4.81842 14.713L3.10159 13.687C0.388359 18.2275 -0.96 23.3407 -0.96 29H1.04ZM4.81658 14.716C7.389 10.4458 10.9093 7.10332 15.3953 4.67982L14.4447 2.92018C9.65075 5.51001 5.86433 9.10087 3.10342 13.684L4.81658 14.716ZM15.3911 4.68207C19.9264 2.25984 25.0155 1.04 30.68 1.04V-0.960001C24.7179 -0.960001 19.3003 0.326823 14.4489 2.91792L15.3911 4.68207ZM30.68 1.04C36.3447 1.04 41.4052 2.25988 45.8847 4.67982L46.8353 2.92018C42.0348 0.326786 36.642 -0.960001 30.68 -0.960001V1.04ZM45.8847 4.67982C50.3708 7.10332 53.891 10.4458 56.4634 14.716L58.1766 13.684C55.4157 9.10087 51.6293 5.51001 46.8353 2.92018L45.8847 4.67982ZM56.4662 14.7206C59.0303 18.9257 60.32 23.6765 60.32 29H62.32C62.32 23.3368 60.943 18.2209 58.1738 13.6794L56.4662 14.7206ZM60.32 29C60.32 34.3234 59.0303 39.103 56.4634 43.364L58.1766 44.396C60.9431 39.8037 62.32 34.6633 62.32 29H60.32ZM56.4662 43.3594C53.8945 47.577 50.3738 50.895 45.8847 53.3202L46.8353 55.0798C51.6262 52.4916 55.4122 48.9297 58.1738 44.4006L56.4662 43.3594ZM45.8847 53.3202C41.4052 55.7401 36.3447 56.96 30.68 56.96V58.96C36.642 58.96 42.0348 57.6732 46.8353 55.0798L45.8847 53.3202ZM30.68 47.92C34.1433 47.92 37.3006 47.1362 40.1286 45.5525L39.1514 43.8075C36.6461 45.2105 33.83 45.92 30.68 45.92V47.92ZM40.1417 45.545C42.9671 43.9063 45.1762 41.6398 46.7566 38.7613L45.0034 37.7987C43.5971 40.3602 41.6463 42.3603 39.1383 43.815L40.1417 45.545ZM46.7493 38.7743C48.3906 35.8878 49.2 32.6208 49.2 29H47.2C47.2 32.3125 46.4627 35.2322 45.0107 37.7857L46.7493 38.7743ZM49.2 29C49.2 25.3792 48.3906 22.1122 46.7493 19.2257L45.0107 20.2143C46.4627 22.7678 47.2 25.6875 47.2 29H49.2ZM46.7566 19.2387C45.1746 16.3572 42.9613 14.1138 40.1286 12.5275L39.1514 14.2725C41.652 15.6729 43.5988 17.6428 45.0034 20.2013L46.7566 19.2387ZM40.1417 12.535C37.3116 10.8935 34.1496 10.08 30.68 10.08V12.08C33.8237 12.08 36.6351 12.8132 39.1383 14.265L40.1417 12.535ZM30.68 10.08C27.2104 10.08 24.0484 10.8935 21.2183 12.535L22.2217 14.265C24.7249 12.8132 27.5363 12.08 30.68 12.08V10.08ZM21.2314 12.5275C18.4018 14.1121 16.1652 16.3513 14.5307 19.2257L16.2693 20.2143C17.7281 17.6487 19.7048 15.6746 22.2086 14.2725L21.2314 12.5275ZM14.5234 19.2387C12.94 22.1229 12.16 25.3852 12.16 29H14.16C14.16 25.6815 14.8734 22.7571 16.2766 20.2013L14.5234 19.2387ZM12.16 29C12.16 32.6148 12.94 35.8771 14.5234 38.7613L16.2766 37.7987C14.8734 35.2429 14.16 32.3185 14.16 29H12.16ZM14.5307 38.7743C16.1635 41.6458 18.396 43.9081 21.2183 45.545L22.2217 43.815C19.7106 42.3585 17.7298 40.3542 16.2693 37.7857L14.5307 38.7743ZM21.2314 45.5525C24.0594 47.1362 27.2167 47.92 30.68 47.92V45.92C27.53 45.92 24.7139 45.2105 22.2086 43.8075L21.2314 45.5525ZM115.64 34.44L116.48 33.8977L116.185 33.44H115.64V34.44ZM106.68 34.44V33.44H105.68V34.44H106.68ZM106.68 57V58H107.68V57H106.68ZM93.8 57H92.8V58H93.8V57ZM93.8 0.999996V-3.8147e-06H92.8V0.999996H93.8ZM106.68 0.999996H107.68V-3.8147e-06H106.68V0.999996ZM106.68 23.64H105.68V24.64H106.68V23.64ZM115.96 23.64V24.64H116.503L116.798 24.1851L115.96 23.64ZM130.68 0.999996V-3.8147e-06H130.137L129.842 0.454904L130.68 0.999996ZM144.36 0.999996L145.188 1.5609L146.245 -3.8147e-06H144.36V0.999996ZM126.04 28.04L125.212 27.4791L124.839 28.0293L125.202 28.5861L126.04 28.04ZM144.92 57V58H146.766L145.758 56.4539L144.92 57ZM130.2 57L129.36 57.5423L129.655 58H130.2V57ZM115.64 33.44H106.68V35.44H115.64V33.44ZM105.68 34.44V57H107.68V34.44H105.68ZM106.68 56H93.8V58H106.68V56ZM94.8 57V0.999996H92.8V57H94.8ZM93.8 2H106.68V-3.8147e-06H93.8V2ZM105.68 0.999996V23.64H107.68V0.999996H105.68ZM106.68 24.64H115.96V22.64H106.68V24.64ZM116.798 24.1851L131.518 1.54509L129.842 0.454904L115.122 23.0949L116.798 24.1851ZM130.68 2H144.36V-3.8147e-06H130.68V2ZM143.532 0.439094L125.212 27.4791L126.868 28.6009L145.188 1.5609L143.532 0.439094ZM125.202 28.5861L144.082 57.5461L145.758 56.4539L126.878 27.4939L125.202 28.5861ZM144.92 56H130.2V58H144.92V56ZM131.04 56.4577L116.48 33.8977L114.8 34.9823L129.36 57.5423L131.04 56.4577ZM161.717 54.2L161.242 55.0798L161.246 55.0821L161.717 54.2ZM150.757 43.88L149.896 44.3884L149.899 44.3945L149.903 44.4006L150.757 43.88ZM150.757 14.2L149.9 13.684L149.898 13.687L150.757 14.2ZM161.717 3.8L161.246 2.91791L161.242 2.92018L161.717 3.8ZM204.117 14.2L203.26 14.716L203.263 14.7206L204.117 14.2ZM204.117 43.88L204.971 44.4006L204.973 44.396L204.117 43.88ZM193.157 54.2L193.632 55.0798L193.632 55.0798L193.157 54.2ZM186.437 44.68L186.925 45.5525L186.932 45.5488L186.939 45.545L186.437 44.68ZM192.677 38.28L191.808 37.7857L191.804 37.7922L191.8 37.7987L192.677 38.28ZM192.677 19.72L191.8 20.2013L191.804 20.2078L191.808 20.2143L192.677 19.72ZM186.437 13.4L185.935 14.265L185.942 14.2688L185.948 14.2725L186.437 13.4ZM168.517 13.4L169.005 14.2725L169.012 14.2688L169.019 14.265L168.517 13.4ZM162.197 19.72L161.328 19.2257L161.324 19.2322L161.32 19.2387L162.197 19.72ZM162.197 38.28L161.32 38.7613L161.324 38.7678L161.328 38.7743L162.197 38.28ZM168.517 44.68L168.015 45.545L168.022 45.5488L168.028 45.5525L168.517 44.68ZM177.477 56.96C171.812 56.96 166.723 55.7402 162.188 53.3179L161.246 55.0821C166.097 57.6732 171.515 58.96 177.477 58.96V56.96ZM162.192 53.3202C157.703 50.895 154.182 47.577 151.611 43.3594L149.903 44.4006C152.665 48.9297 156.451 52.4916 161.242 55.0798L162.192 53.3202ZM151.618 43.3716C149.102 39.1096 147.837 34.3272 147.837 29H145.837C145.837 34.6594 147.185 39.7971 149.896 44.3884L151.618 43.3716ZM147.837 29C147.837 23.6727 149.102 18.9191 151.615 14.713L149.898 13.687C147.185 18.2275 145.837 23.3407 145.837 29H147.837ZM151.613 14.716C154.186 10.4458 157.706 7.10332 162.192 4.67982L161.242 2.92018C156.448 5.51001 152.661 9.10087 149.9 13.684L151.613 14.716ZM162.188 4.68207C166.723 2.25984 171.812 1.04 177.477 1.04V-0.960001C171.515 -0.960001 166.097 0.326823 161.246 2.91792L162.188 4.68207ZM177.477 1.04C183.142 1.04 188.202 2.25988 192.682 4.67982L193.632 2.92018C188.832 0.326786 183.439 -0.960001 177.477 -0.960001V1.04ZM192.682 4.67982C197.168 7.10332 200.688 10.4458 203.26 14.716L204.973 13.684C202.213 9.10087 198.426 5.51001 193.632 2.92018L192.682 4.67982ZM203.263 14.7206C205.827 18.9257 207.117 23.6765 207.117 29H209.117C209.117 23.3368 207.74 18.2209 204.971 13.6794L203.263 14.7206ZM207.117 29C207.117 34.3234 205.827 39.103 203.26 43.364L204.973 44.396C207.74 39.8037 209.117 34.6633 209.117 29H207.117ZM203.263 43.3594C200.691 47.577 197.171 50.895 192.682 53.3202L193.632 55.0798C198.423 52.4916 202.209 48.9297 204.971 44.4006L203.263 43.3594ZM192.682 53.3202C188.202 55.7401 183.142 56.96 177.477 56.96V58.96C183.439 58.96 188.832 57.6732 193.632 55.0798L192.682 53.3202ZM177.477 47.92C180.94 47.92 184.097 47.1362 186.925 45.5525L185.948 43.8075C183.443 45.2105 180.627 45.92 177.477 45.92V47.92ZM186.939 45.545C189.764 43.9063 191.973 41.6398 193.553 38.7613L191.8 37.7987C190.394 40.3602 188.443 42.3603 185.935 43.815L186.939 45.545ZM193.546 38.7743C195.187 35.8878 195.997 32.6208 195.997 29H193.997C193.997 32.3125 193.26 35.2322 191.808 37.7857L193.546 38.7743ZM195.997 29C195.997 25.3792 195.187 22.1122 193.546 19.2257L191.808 20.2143C193.26 22.7678 193.997 25.6875 193.997 29H195.997ZM193.553 19.2387C191.971 16.3572 189.758 14.1138 186.925 12.5275L185.948 14.2725C188.449 15.6729 190.396 17.6428 191.8 20.2013L193.553 19.2387ZM186.939 12.535C184.108 10.8935 180.947 10.08 177.477 10.08V12.08C180.621 12.08 183.432 12.8132 185.935 14.265L186.939 12.535ZM177.477 10.08C174.007 10.08 170.845 10.8935 168.015 12.535L169.019 14.265C171.522 12.8132 174.333 12.08 177.477 12.08V10.08ZM168.028 12.5275C165.199 14.1121 162.962 16.3513 161.328 19.2257L163.066 20.2143C164.525 17.6487 166.502 15.6746 169.005 14.2725L168.028 12.5275ZM161.32 19.2387C159.737 22.1229 158.957 25.3852 158.957 29H160.957C160.957 25.6815 161.67 22.7571 163.073 20.2013L161.32 19.2387ZM158.957 29C158.957 32.6148 159.737 35.8771 161.32 38.7613L163.073 37.7987C161.67 35.2429 160.957 32.3185 160.957 29H158.957ZM161.328 38.7743C162.96 41.6458 165.193 43.9081 168.015 45.545L169.019 43.815C166.508 42.3585 164.527 40.3542 163.066 37.7857L161.328 38.7743ZM168.028 45.5525C170.856 47.1362 174.014 47.92 177.477 47.92V45.92C174.327 45.92 171.511 45.2105 169.005 43.8075L168.028 45.5525ZM269.061 57L268.061 57.0024L268.063 58H269.061V57ZM268.981 23.48L269.981 23.4776L269.972 19.8691L268.122 22.9673L268.981 23.48ZM252.501 51.08V52.08H253.068L253.359 51.5927L252.501 51.08ZM246.741 51.08L245.887 51.6016L246.18 52.08H246.741V51.08ZM230.261 24.12L231.114 23.5984L229.261 20.5667V24.12H230.261ZM230.261 57V58H231.261V57H230.261ZM218.101 57H217.101V58H218.101V57ZM218.101 0.999996V-3.8147e-06H217.101V0.999996H218.101ZM228.821 0.999996L229.677 0.484053L229.386 -3.8147e-06H228.821V0.999996ZM249.781 35.8L248.924 36.3159L249.787 37.7492L250.641 36.3101L249.781 35.8ZM270.421 0.999996V-3.8147e-06H269.851L269.561 0.489869L270.421 0.999996ZM281.141 0.999996L282.141 0.998568L282.139 -3.8147e-06H281.141V0.999996ZM281.221 57V58H282.222L282.221 56.9986L281.221 57ZM270.061 56.9976L269.981 23.4776L267.981 23.4824L268.061 57.0024L270.061 56.9976ZM268.122 22.9673L251.642 50.5673L253.359 51.5927L269.839 23.9927L268.122 22.9673ZM252.501 50.08H246.741V52.08H252.501V50.08ZM247.594 50.5584L231.114 23.5984L229.407 24.6416L245.887 51.6016L247.594 50.5584ZM229.261 24.12V57H231.261V24.12H229.261ZM230.261 56H218.101V58H230.261V56ZM219.101 57V0.999996H217.101V57H219.101ZM218.101 2H228.821V-3.8147e-06H218.101V2ZM227.964 1.51594L248.924 36.3159L250.637 35.2841L229.677 0.484053L227.964 1.51594ZM250.641 36.3101L271.281 1.51012L269.561 0.489869L248.921 35.2899L250.641 36.3101ZM270.421 2H281.141V-3.8147e-06H270.421V2ZM280.141 1.00142L280.221 57.0014L282.221 56.9986L282.141 0.998568L280.141 1.00142ZM281.221 56H269.061V58H281.221V56ZM346.172 0.999996H347.172V-3.8147e-06H346.172V0.999996ZM346.172 57V58H347.172V57H346.172ZM333.292 57H332.292V58H333.292V57ZM333.292 11.56H334.292V10.56H333.292V11.56ZM308.012 11.56V10.56H307.012V11.56H308.012ZM308.012 57V58H309.012V57H308.012ZM295.132 57H294.132V58H295.132V57ZM295.132 0.999996V-3.8147e-06H294.132V0.999996H295.132ZM345.172 0.999996V57H347.172V0.999996H345.172ZM346.172 56H333.292V58H346.172V56ZM334.292 57V11.56H332.292V57H334.292ZM333.292 10.56H308.012V12.56H333.292V10.56ZM307.012 11.56V57H309.012V11.56H307.012ZM308.012 56H295.132V58H308.012V56ZM296.132 57V0.999996H294.132V57H296.132ZM295.132 2H346.172V-3.8147e-06H295.132V2ZM397.974 45L398.898 44.618L398.642 44H397.974V45ZM371.974 45V44H371.305L371.05 44.618L371.974 45ZM367.014 57V58H367.682L367.938 57.382L367.014 57ZM353.734 57L352.82 56.5929L352.193 58H353.734V57ZM378.694 0.999996V-3.8147e-06H378.045L377.78 0.592889L378.694 0.999996ZM391.494 0.999996L392.407 0.591802L392.142 -3.8147e-06H391.494V0.999996ZM416.534 57V58H418.076L417.447 56.5918L416.534 57ZM402.934 57L402.01 57.382L402.265 58H402.934V57ZM393.894 35.16V36.16H395.39L394.818 34.7773L393.894 35.16ZM385.014 13.72L385.938 13.3373L385.014 11.1067L384.09 13.3373L385.014 13.72ZM376.134 35.16L375.21 34.7773L374.637 36.16H376.134V35.16ZM397.974 44H371.974V46H397.974V44ZM371.05 44.618L366.09 56.618L367.938 57.382L372.898 45.382L371.05 44.618ZM367.014 56H353.734V58H367.014V56ZM354.647 57.4071L379.607 1.4071L377.78 0.592889L352.82 56.5929L354.647 57.4071ZM378.694 2H391.494V-3.8147e-06H378.694V2ZM390.581 1.40819L415.621 57.4082L417.447 56.5918L392.407 0.591802L390.581 1.40819ZM416.534 56H402.934V58H416.534V56ZM403.858 56.618L398.898 44.618L397.05 45.382L402.01 57.382L403.858 56.618ZM394.818 34.7773L385.938 13.3373L384.09 14.1027L392.97 35.5427L394.818 34.7773ZM384.09 13.3373L375.21 34.7773L377.058 35.5427L385.938 14.1027L384.09 13.3373ZM376.134 36.16H393.894V34.16H376.134V36.16ZM475.32 0.999996H476.32V-3.8147e-06H475.32V0.999996ZM475.32 57V58H476.32V57H475.32ZM462.36 57H461.36V58H462.36V57ZM462.36 34.04H463.36V33.04H462.36V34.04ZM436.92 34.04V33.04H435.92V34.04H436.92ZM436.92 57V58H437.92V57H436.92ZM423.96 57H422.96V58H423.96V57ZM423.96 0.999996V-3.8147e-06H422.96V0.999996H423.96ZM436.92 0.999996H437.92V-3.8147e-06H436.92V0.999996ZM436.92 23.08H435.92V24.08H436.92V23.08ZM462.36 23.08V24.08H463.36V23.08H462.36ZM462.36 0.999996V-3.8147e-06H461.36V0.999996H462.36ZM474.32 0.999996V57H476.32V0.999996H474.32ZM475.32 56H462.36V58H475.32V56ZM463.36 57V34.04H461.36V57H463.36ZM462.36 33.04H436.92V35.04H462.36V33.04ZM435.92 34.04V57H437.92V34.04H435.92ZM436.92 56H423.96V58H436.92V56ZM424.96 57V0.999996H422.96V57H424.96ZM423.96 2H436.92V-3.8147e-06H423.96V2ZM435.92 0.999996V23.08H437.92V0.999996H435.92ZM436.92 24.08H462.36V22.08H436.92V24.08ZM463.36 23.08V0.999996H461.36V23.08H463.36ZM462.36 2H475.32V-3.8147e-06H462.36V2ZM489.351 0.999996V-3.8147e-06H488.351V0.999996H489.351ZM502.231 0.999996H503.231V-3.8147e-06H502.231V0.999996ZM502.231 37.48H501.231V40.5376L503.037 38.0709L502.231 37.48ZM528.951 0.999996V-3.8147e-06H528.444L528.144 0.409093L528.951 0.999996ZM541.111 0.999996H542.111V-3.8147e-06H541.111V0.999996ZM541.111 57V58H542.111V57H541.111ZM528.311 57H527.311V58H528.311V57ZM528.311 20.6H529.311V17.5478L527.505 20.0083L528.311 20.6ZM501.591 57V58H502.097L502.397 57.5917L501.591 57ZM489.351 57H488.351V58H489.351V57ZM489.351 2H502.231V-3.8147e-06H489.351V2ZM501.231 0.999996V37.48H503.231V0.999996H501.231ZM503.037 38.0709L529.757 1.5909L528.144 0.409093L501.424 36.8891L503.037 38.0709ZM528.951 2H541.111V-3.8147e-06H528.951V2ZM540.111 0.999996V57H542.111V0.999996H540.111ZM541.111 56H528.311V58H541.111V56ZM529.311 57V20.6H527.311V57H529.311ZM527.505 20.0083L500.785 56.4083L502.397 57.5917L529.117 21.1917L527.505 20.0083ZM501.591 56H489.351V58H501.591V56ZM490.351 57V0.999996H488.351V57H490.351ZM555.054 0.999996V-3.8147e-06H554.054V0.999996H555.054ZM567.934 0.999996H568.934V-3.8147e-06H567.934V0.999996ZM567.934 37.48H566.934V40.5376L568.74 38.0709L567.934 37.48ZM594.654 0.999996V-3.8147e-06H594.147L593.847 0.409093L594.654 0.999996ZM606.814 0.999996H607.814V-3.8147e-06H606.814V0.999996ZM606.814 57V58H607.814V57H606.814ZM594.014 57H593.014V58H594.014V57ZM594.014 20.6H595.014V17.5478L593.208 20.0083L594.014 20.6ZM567.294 57V58H567.8L568.1 57.5917L567.294 57ZM555.054 57H554.054V58H555.054V57ZM555.054 2H567.934V-3.8147e-06H555.054V2ZM566.934 0.999996V37.48H568.934V0.999996H566.934ZM568.74 38.0709L595.46 1.5909L593.847 0.409093L567.127 36.8891L568.74 38.0709ZM594.654 2H606.814V-3.8147e-06H594.654V2ZM605.814 0.999996V57H607.814V0.999996H605.814ZM606.814 56H594.014V58H606.814V56ZM595.014 57V20.6H593.014V57H595.014ZM593.208 20.0083L566.488 56.4083L568.1 57.5917L594.82 21.1917L593.208 20.0083ZM567.294 56H555.054V58H567.294V56ZM556.054 57V0.999996H554.054V57H556.054Z" fill="#BBBBBB"/>
</svg>
