<svg width="365" height="58" viewBox="0 0 365 58" fill="none" xmlns="http://www.w3.org/2000/svg">
<path d="M14.92 54.2L14.4447 55.0798L14.4489 55.0821L14.92 54.2ZM3.96 43.88L3.09887 44.3884L3.10249 44.3945L3.1062 44.4006L3.96 43.88ZM3.96 14.2L3.10341 13.684L3.10159 13.687L3.96 14.2ZM14.92 3.8L14.4489 2.91791L14.4447 2.92018L14.92 3.8ZM57.32 14.2L56.4634 14.716L56.4662 14.7206L57.32 14.2ZM57.32 43.88L58.1738 44.4006L58.1766 44.396L57.32 43.88ZM46.36 54.2L46.8353 55.0798L46.8353 55.0798L46.36 54.2ZM39.64 44.68L40.1286 45.5525L40.1352 45.5488L40.1417 45.545L39.64 44.68ZM45.88 38.28L45.0107 37.7857L45.007 37.7922L45.0034 37.7987L45.88 38.28ZM45.88 19.72L45.0034 20.2013L45.007 20.2078L45.0107 20.2143L45.88 19.72ZM39.64 13.4L39.1383 14.265L39.1448 14.2688L39.1514 14.2725L39.64 13.4ZM21.72 13.4L22.2086 14.2725L22.2152 14.2688L22.2217 14.265L21.72 13.4ZM15.4 19.72L14.5307 19.2257L14.527 19.2322L14.5234 19.2387L15.4 19.72ZM15.4 38.28L14.5234 38.7613L14.527 38.7678L14.5307 38.7743L15.4 38.28ZM21.72 44.68L21.2183 45.545L21.2248 45.5488L21.2314 45.5525L21.72 44.68ZM30.68 56.96C25.0155 56.96 19.9264 55.7402 15.3911 53.3179L14.4489 55.0821C19.3003 57.6732 24.7179 58.96 30.68 58.96V56.96ZM15.3953 53.3202C10.9062 50.895 7.3855 47.577 4.8138 43.3594L3.1062 44.4006C5.86783 48.9297 9.65379 52.4916 14.4447 55.0798L15.3953 53.3202ZM4.82113 43.3716C2.30498 39.1096 1.04 34.3272 1.04 29H-0.96C-0.96 34.6594 0.388359 39.7971 3.09887 44.3884L4.82113 43.3716ZM1.04 29C1.04 23.6727 2.30497 18.9191 4.81842 14.713L3.10159 13.687C0.388359 18.2275 -0.96 23.3407 -0.96 29H1.04ZM4.81658 14.716C7.389 10.4458 10.9093 7.10332 15.3953 4.67982L14.4447 2.92018C9.65075 5.51001 5.86433 9.10087 3.10342 13.684L4.81658 14.716ZM15.3911 4.68207C19.9264 2.25984 25.0155 1.04 30.68 1.04V-0.960001C24.7179 -0.960001 19.3003 0.326823 14.4489 2.91792L15.3911 4.68207ZM30.68 1.04C36.3447 1.04 41.4052 2.25988 45.8847 4.67982L46.8353 2.92018C42.0348 0.326786 36.642 -0.960001 30.68 -0.960001V1.04ZM45.8847 4.67982C50.3708 7.10332 53.891 10.4458 56.4634 14.716L58.1766 13.684C55.4157 9.10087 51.6293 5.51001 46.8353 2.92018L45.8847 4.67982ZM56.4662 14.7206C59.0303 18.9257 60.32 23.6765 60.32 29H62.32C62.32 23.3368 60.943 18.2209 58.1738 13.6794L56.4662 14.7206ZM60.32 29C60.32 34.3234 59.0303 39.103 56.4634 43.364L58.1766 44.396C60.9431 39.8037 62.32 34.6633 62.32 29H60.32ZM56.4662 43.3594C53.8945 47.577 50.3738 50.895 45.8847 53.3202L46.8353 55.0798C51.6262 52.4916 55.4122 48.9297 58.1738 44.4006L56.4662 43.3594ZM45.8847 53.3202C41.4052 55.7401 36.3447 56.96 30.68 56.96V58.96C36.642 58.96 42.0348 57.6732 46.8353 55.0798L45.8847 53.3202ZM30.68 47.92C34.1433 47.92 37.3006 47.1362 40.1286 45.5525L39.1514 43.8075C36.6461 45.2105 33.83 45.92 30.68 45.92V47.92ZM40.1417 45.545C42.9671 43.9063 45.1762 41.6398 46.7566 38.7613L45.0034 37.7987C43.5971 40.3602 41.6463 42.3603 39.1383 43.815L40.1417 45.545ZM46.7493 38.7743C48.3906 35.8878 49.2 32.6208 49.2 29H47.2C47.2 32.3125 46.4627 35.2322 45.0107 37.7857L46.7493 38.7743ZM49.2 29C49.2 25.3792 48.3906 22.1122 46.7493 19.2257L45.0107 20.2143C46.4627 22.7678 47.2 25.6875 47.2 29H49.2ZM46.7566 19.2387C45.1746 16.3572 42.9613 14.1138 40.1286 12.5275L39.1514 14.2725C41.652 15.6729 43.5988 17.6428 45.0034 20.2013L46.7566 19.2387ZM40.1417 12.535C37.3116 10.8935 34.1496 10.08 30.68 10.08V12.08C33.8237 12.08 36.6351 12.8132 39.1383 14.265L40.1417 12.535ZM30.68 10.08C27.2104 10.08 24.0484 10.8935 21.2183 12.535L22.2217 14.265C24.7249 12.8132 27.5363 12.08 30.68 12.08V10.08ZM21.2314 12.5275C18.4018 14.1121 16.1652 16.3513 14.5307 19.2257L16.2693 20.2143C17.7281 17.6487 19.7048 15.6746 22.2086 14.2725L21.2314 12.5275ZM14.5234 19.2387C12.94 22.1229 12.16 25.3852 12.16 29H14.16C14.16 25.6815 14.8734 22.7571 16.2766 20.2013L14.5234 19.2387ZM12.16 29C12.16 32.6148 12.94 35.8771 14.5234 38.7613L16.2766 37.7987C14.8734 35.2429 14.16 32.3185 14.16 29H12.16ZM14.5307 38.7743C16.1635 41.6458 18.396 43.9081 21.2183 45.545L22.2217 43.815C19.7106 42.3585 17.7298 40.3542 16.2693 37.7857L14.5307 38.7743ZM21.2314 45.5525C24.0594 47.1362 27.2167 47.92 30.68 47.92V45.92C27.53 45.92 24.7139 45.2105 22.2086 43.8075L21.2314 45.5525ZM93.64 0.999996V-3.8147e-06H92.64V0.999996H93.64ZM135.16 4.52L134.709 5.41245L134.721 5.41847L135.16 4.52ZM146.04 14.28L145.185 14.7993L145.19 14.8071L146.04 14.28ZM146.04 43.72L145.19 43.1929L145.185 43.2007L146.04 43.72ZM135.16 53.56L135.603 54.4565L135.607 54.4544L135.16 53.56ZM93.64 57H92.64V58H93.64V57ZM131.8 41.72L132.483 42.4503L132.484 42.4499L131.8 41.72ZM131.8 16.36L131.111 17.0844L131.117 17.0901L131.123 17.0957L131.8 16.36ZM106.6 11.64V10.64H105.6V11.64H106.6ZM106.6 46.36H105.6V47.36H106.6V46.36ZM93.64 2H119.08V-3.8147e-06H93.64V2ZM119.08 2C125.03 2 130.23 3.14752 134.709 5.41236L135.611 3.62763C130.81 1.19914 125.29 -3.8147e-06 119.08 -3.8147e-06V2ZM134.721 5.41847C139.253 7.63302 142.731 10.7594 145.185 14.7993L146.895 13.7607C144.229 9.37391 140.454 5.99364 135.599 3.62152L134.721 5.41847ZM145.19 14.8071C147.693 18.8424 148.96 23.5615 148.96 29H150.96C150.96 23.2385 149.614 18.1443 146.89 13.7529L145.19 14.8071ZM148.96 29C148.96 34.4385 147.693 39.1576 145.19 43.1929L146.89 44.2471C149.614 39.8557 150.96 34.7615 150.96 29H148.96ZM145.185 43.2007C142.73 47.2427 139.249 50.3975 134.713 52.6656L135.607 54.4544C140.458 52.0292 144.23 48.624 146.895 44.2393L145.185 43.2007ZM134.717 52.6635C130.237 54.8778 125.033 56 119.08 56V58C125.287 58 130.803 56.8288 135.603 54.4565L134.717 52.6635ZM119.08 56H93.64V58H119.08V56ZM94.64 57V0.999996H92.64V57H94.64ZM118.44 47.36C124.231 47.36 128.95 45.7556 132.483 42.4503L131.117 40.9897C128.037 43.871 123.849 45.36 118.44 45.36V47.36ZM132.484 42.4499C136.078 39.0837 137.84 34.562 137.84 29H135.84C135.84 34.1047 134.242 38.063 131.116 40.9901L132.484 42.4499ZM137.84 29C137.84 23.4384 136.078 18.9391 132.477 15.6243L131.123 17.0957C134.242 19.9675 135.84 23.8949 135.84 29H137.84ZM132.489 15.6356C128.957 12.2738 124.235 10.64 118.44 10.64V12.64C123.845 12.64 128.03 14.1529 131.111 17.0844L132.489 15.6356ZM118.44 10.64H106.6V12.64H118.44V10.64ZM105.6 11.64V46.36H107.6V11.64H105.6ZM106.6 47.36H118.44V45.36H106.6V47.36ZM195.414 57L194.592 57.5692L194.89 58H195.414V57ZM184.614 41.4L185.436 40.8308L185.138 40.4H184.614V41.4ZM172.694 41.4V40.4H171.694V41.4H172.694ZM172.694 57V58H173.694V57H172.694ZM159.734 57H158.734V58H159.734V57ZM159.734 0.999996V-3.8147e-06H158.734V0.999996H159.734ZM196.854 3.48L196.439 4.38992L196.444 4.39217L196.854 3.48ZM205.254 32.12L204.422 31.5653L204.419 31.5687L205.254 32.12ZM196.774 39L196.375 38.0829L195.254 38.5701L195.954 39.5722L196.774 39ZM209.334 57V58H211.251L210.154 56.4278L209.334 57ZM192.134 14.12L191.49 14.8849L191.496 14.8899L191.502 14.8949L192.134 14.12ZM172.694 11.56V10.56H171.694V11.56H172.694ZM172.694 31.08H171.694V32.08H172.694V31.08ZM192.134 28.52L192.778 29.2849L192.778 29.2849L192.134 28.52ZM196.236 56.4308L185.436 40.8308L183.792 41.9692L194.592 57.5692L196.236 56.4308ZM184.614 40.4H183.974V42.4H184.614V40.4ZM183.974 40.4H172.694V42.4H183.974V40.4ZM171.694 41.4V57H173.694V41.4H171.694ZM172.694 56H159.734V58H172.694V56ZM160.734 57V0.999996H158.734V57H160.734ZM159.734 2H183.974V-3.8147e-06H159.734V2ZM183.974 2C188.825 2 192.97 2.8086 196.439 4.38991L197.269 2.57009C193.484 0.844731 189.043 -3.8147e-06 183.974 -3.8147e-06V2ZM196.444 4.39217C199.969 5.97594 202.638 8.20361 204.495 11.0645L206.173 9.97553C204.083 6.75639 201.098 4.29073 197.264 2.56783L196.444 4.39217ZM204.495 11.0645C206.348 13.9194 207.294 17.3239 207.294 21.32H209.294C209.294 16.996 208.266 13.2006 206.173 9.97553L204.495 11.0645ZM207.294 21.32C207.294 25.3108 206.324 28.7116 204.422 31.5653L206.086 32.6747C208.237 29.4484 209.294 25.6492 209.294 21.32H207.294ZM204.419 31.5687C202.565 34.3748 199.9 36.5505 196.375 38.0829L197.172 39.9171C201.008 38.2495 203.995 35.8385 206.088 32.6713L204.419 31.5687ZM195.954 39.5722L208.514 57.5722L210.154 56.4278L197.594 38.4278L195.954 39.5722ZM209.334 56H195.414V58H209.334V56ZM196.174 21.32C196.174 17.9404 195.073 15.2273 192.766 13.3451L191.502 14.8949C193.248 16.3194 194.174 18.4063 194.174 21.32H196.174ZM192.778 13.3551C190.503 11.4393 187.275 10.56 183.254 10.56V12.56C187.019 12.56 189.711 13.3873 191.49 14.8849L192.778 13.3551ZM183.254 10.56H172.694V12.56H183.254V10.56ZM171.694 11.56V31.08H173.694V11.56H171.694ZM172.694 32.08H183.254V30.08H172.694V32.08ZM183.254 32.08C187.275 32.08 190.503 31.2007 192.778 29.2849L191.49 27.7551C189.711 29.2527 187.019 30.08 183.254 30.08V32.08ZM192.778 29.2849C195.069 27.3555 196.174 24.6534 196.174 21.32H194.174C194.174 24.1732 193.252 26.2711 191.49 27.7551L192.778 29.2849ZM224.722 51.32L224.015 52.0271L224.019 52.0313L224.722 51.32ZM218.082 0.999996V-3.8147e-06H217.082V0.999996H218.082ZM231.042 0.999996H232.042V-3.8147e-06H231.042V0.999996ZM252.802 43.32L253.549 43.9844L253.556 43.9762L252.802 43.32ZM256.002 0.999996V-3.8147e-06H255.002V0.999996H256.002ZM268.802 0.999996H269.802V-3.8147e-06H268.802V0.999996ZM262.082 51.32L261.379 50.6087L261.375 50.6129L262.082 51.32ZM243.442 56.96C235.63 56.96 229.67 54.8039 225.425 50.6087L224.019 52.0313C228.733 56.6895 235.253 58.96 243.442 58.96V56.96ZM225.429 50.6129C221.243 46.4269 219.082 40.3941 219.082 32.36H217.082C217.082 40.7526 219.347 47.3598 224.015 52.0271L225.429 50.6129ZM219.082 32.36V0.999996H217.082V32.36H219.082ZM218.082 2H231.042V-3.8147e-06H218.082V2ZM230.042 0.999996V31.88H232.042V0.999996H230.042ZM230.042 31.88C230.042 37.0068 231.102 41.0379 233.392 43.7986C235.713 46.595 239.154 47.92 243.522 47.92V45.92C239.57 45.92 236.771 44.7384 234.931 42.5214C233.062 40.2687 232.042 36.7799 232.042 31.88H230.042ZM243.522 47.92C247.78 47.92 251.179 46.6514 253.549 43.9844L252.054 42.6556C250.158 44.7886 247.37 45.92 243.522 45.92V47.92ZM253.556 43.9762C255.918 41.2599 257.002 37.1597 257.002 31.88H255.002C255.002 36.947 253.952 40.4734 252.047 42.6638L253.556 43.9762ZM257.002 31.88V0.999996H255.002V31.88H257.002ZM256.002 2H268.802V-3.8147e-06H256.002V2ZM267.802 0.999996V32.36H269.802V0.999996H267.802ZM267.802 32.36C267.802 40.3908 265.616 46.4221 261.379 50.6087L262.785 52.0313C267.508 47.3646 269.802 40.7558 269.802 32.36H267.802ZM261.375 50.6129C257.184 54.8037 251.254 56.96 243.442 56.96V58.96C251.63 58.96 258.126 56.6897 262.789 52.0271L261.375 50.6129ZM281.609 0.999996V-3.8147e-06H280.609V0.999996H281.609ZM294.569 0.999996H295.569V-3.8147e-06H294.569V0.999996ZM294.569 57V58H295.569V57H294.569ZM281.609 57H280.609V58H281.609V57ZM281.609 2H294.569V-3.8147e-06H281.609V2ZM293.569 0.999996V57H295.569V0.999996H293.569ZM294.569 56H281.609V58H294.569V56ZM282.609 57V0.999996H280.609V57H282.609ZM307.859 0.999996V-3.8147e-06H306.859V0.999996H307.859ZM349.379 4.52L348.927 5.41245L348.94 5.41847L349.379 4.52ZM360.259 14.28L359.404 14.7993L359.409 14.8071L360.259 14.28ZM360.259 43.72L359.409 43.1929L359.404 43.2007L360.259 43.72ZM349.379 53.56L349.822 54.4565L349.826 54.4544L349.379 53.56ZM307.859 57H306.859V58H307.859V57ZM346.019 41.72L346.702 42.4503L346.702 42.4499L346.019 41.72ZM346.019 16.36L345.329 17.0844L345.335 17.0901L345.341 17.0957L346.019 16.36ZM320.819 11.64V10.64H319.819V11.64H320.819ZM320.819 46.36H319.819V47.36H320.819V46.36ZM307.859 2H333.299V-3.8147e-06H307.859V2ZM333.299 2C339.248 2 344.449 3.14752 348.927 5.41236L349.83 3.62763C345.028 1.19914 339.509 -3.8147e-06 333.299 -3.8147e-06V2ZM348.94 5.41847C353.472 7.63302 356.95 10.7594 359.404 14.7993L361.113 13.7607C358.448 9.37391 354.672 5.99364 349.818 3.62152L348.94 5.41847ZM359.409 14.8071C361.912 18.8424 363.179 23.5615 363.179 29H365.179C365.179 23.2385 363.832 18.1443 361.109 13.7529L359.409 14.8071ZM363.179 29C363.179 34.4385 361.912 39.1576 359.409 43.1929L361.109 44.2471C363.832 39.8557 365.179 34.7615 365.179 29H363.179ZM359.404 43.2007C356.948 47.2427 353.468 50.3975 348.932 52.6656L349.826 54.4544C354.676 52.0292 358.449 48.624 361.113 44.2393L359.404 43.2007ZM348.936 52.6635C344.456 54.8778 339.252 56 333.299 56V58C339.506 58 345.022 56.8288 349.822 54.4565L348.936 52.6635ZM333.299 56H307.859V58H333.299V56ZM308.859 57V0.999996H306.859V57H308.859ZM332.659 47.36C338.449 47.36 343.169 45.7556 346.702 42.4503L345.336 40.9897C342.256 43.871 338.068 45.36 332.659 45.36V47.36ZM346.702 42.4499C350.297 39.0837 352.059 34.562 352.059 29H350.059C350.059 34.1047 348.461 38.063 345.335 40.9901L346.702 42.4499ZM352.059 29C352.059 23.4384 350.297 18.9391 346.696 15.6243L345.341 17.0957C348.461 19.9675 350.059 23.8949 350.059 29H352.059ZM346.708 15.6356C343.175 12.2738 338.454 10.64 332.659 10.64V12.64C338.064 12.64 342.249 14.1529 345.329 17.0844L346.708 15.6356ZM332.659 10.64H320.819V12.64H332.659V10.64ZM319.819 11.64V46.36H321.819V11.64H319.819ZM320.819 47.36H332.659V45.36H320.819V47.36Z" fill="#BBBBBB"/>
</svg>
