<svg width="811" height="59" viewBox="0 0 811 59" fill="none" xmlns="http://www.w3.org/2000/svg">
<path d="M37.8 28.8L37.3921 27.887L35.0785 28.9207L37.4745 29.7455L37.8 28.8ZM45.4 34.08L44.6021 34.6828L44.6096 34.6928L44.6174 34.7025L45.4 34.08ZM35.72 56.96L35.392 56.0153L35.3879 56.0168L35.72 56.96ZM11.72 57.52L11.4743 58.4893L11.4775 58.4901L11.72 57.52ZM0.92 53.12L0.00167596 52.7242L-0.35028 53.5407L0.419497 53.9857L0.92 53.12ZM4.92 43.84L5.43995 42.9858L4.45711 42.3876L4.00168 43.4442L4.92 43.84ZM13 47.28L12.7369 48.2448L12.7471 48.2476L12.7575 48.2501L13 47.28ZM31.24 46.32L30.7637 45.4407L30.7559 45.445L31.24 46.32ZM32.44 35.76L31.91 36.6081L31.9217 36.6152L32.44 35.76ZM11.72 34.16H10.72V35.16H11.72V34.16ZM11.72 24.4V23.4H10.72V24.4H11.72ZM30.52 22.8L29.9388 21.9863L29.9317 21.9913L29.9248 21.9964L30.52 22.8ZM29.56 13.28L29.052 14.1414L29.0615 14.1469L29.56 13.28ZM13.88 12.48L14.1179 13.4513L14.1272 13.449L14.1364 13.4466L13.88 12.48ZM6.44 15.44L5.508 15.8024L5.92755 16.8813L6.93401 16.3095L6.44 15.44ZM2.52 5.36L2.0632 4.47043L1.26125 4.88224L1.588 5.72244L2.52 5.36ZM33.8 2.72L34.1285 1.7755L33.8 2.72ZM37.4745 29.7455C40.5677 30.8104 42.9253 32.4635 44.6021 34.6828L46.1979 33.4772C44.248 30.8965 41.539 29.0296 38.1255 27.8545L37.4745 29.7455ZM44.6174 34.7025C46.336 36.863 47.2 39.3874 47.2 42.32H49.2C49.2 38.9592 48.1973 35.9903 46.1826 33.4575L44.6174 34.7025ZM47.2 42.32C47.2 45.4917 46.1678 48.2134 44.0943 50.5337L45.5857 51.8663C47.9922 49.1733 49.2 45.975 49.2 42.32H47.2ZM44.0943 50.5337C41.9891 52.8895 39.1048 54.7262 35.392 56.0153L36.048 57.9047C40.0152 56.5272 43.2109 54.5238 45.5857 51.8663L44.0943 50.5337ZM35.3879 56.0168C31.7207 57.308 27.6747 57.96 23.24 57.96V59.96C27.872 59.96 32.1459 59.2787 36.0521 57.9032L35.3879 56.0168ZM23.24 57.96C19.4842 57.96 15.7257 57.4906 11.9625 56.5499L11.4775 58.4901C15.3943 59.4694 19.3158 59.96 23.24 59.96V57.96ZM11.9657 56.5507C8.2692 55.6135 4.75484 54.1819 1.4205 52.2543L0.419497 53.9857C3.91182 56.0047 7.59747 57.5065 11.4743 58.4893L11.9657 56.5507ZM1.83832 53.5158L5.83832 44.2358L4.00168 43.4442L0.00167596 52.7242L1.83832 53.5158ZM4.40005 44.6942C6.93796 46.239 9.71848 47.4216 12.7369 48.2448L13.2631 46.3152C10.4149 45.5384 7.80871 44.4277 5.43995 42.9858L4.40005 44.6942ZM12.7575 48.2501C15.8165 49.0149 18.8047 49.4 21.72 49.4V47.4C18.982 47.4 16.1569 47.0384 13.2425 46.3099L12.7575 48.2501ZM21.72 49.4C25.6739 49.4 29.0273 48.6869 31.7241 47.195L30.7559 45.445C28.4394 46.7265 25.4461 47.4 21.72 47.4V49.4ZM31.7163 47.1993C34.5361 45.6719 36.08 43.4201 36.08 40.48H34.08C34.08 42.5533 33.0639 44.1947 30.7637 45.4407L31.7163 47.1993ZM36.08 40.48C36.08 38.0549 35.0213 36.1551 32.9583 34.9048L31.9217 36.6152C33.3787 37.4983 34.08 38.7451 34.08 40.48H36.08ZM32.97 34.912C31.0452 33.709 28.4892 33.16 25.4 33.16V35.16C28.2842 35.16 30.4215 35.6777 31.91 36.608L32.97 34.912ZM25.4 33.16H11.72V35.16H25.4V33.16ZM12.72 34.16V24.4H10.72V34.16H12.72ZM11.72 25.4H24.44V23.4H11.72V25.4ZM24.44 25.4C27.1734 25.4 29.4402 24.8443 31.1152 23.6036L29.9248 21.9964C28.7198 22.889 26.9333 23.4 24.44 23.4V25.4ZM31.1012 23.6137C32.8627 22.3556 33.76 20.583 33.76 18.4H31.76C31.76 19.9503 31.164 21.1111 29.9388 21.9863L31.1012 23.6137ZM33.76 18.4C33.76 15.8044 32.4552 13.7912 30.0585 12.4131L29.0615 14.1469C30.9315 15.2221 31.76 16.6222 31.76 18.4H33.76ZM30.068 12.4186C27.7874 11.0737 24.902 10.44 21.48 10.44V12.44C24.6713 12.44 27.1726 13.033 29.052 14.1414L30.068 12.4186ZM21.48 10.44C18.9318 10.44 16.3121 10.8001 13.6236 11.5134L14.1364 13.4466C16.6745 12.7732 19.1215 12.44 21.48 12.44V10.44ZM13.6421 11.5087C10.9388 12.1707 8.37267 13.1917 5.94599 14.5705L6.93401 16.3095C9.20066 15.0216 11.5945 14.0693 14.1179 13.4513L13.6421 11.5087ZM7.372 15.0776L3.452 4.99755L1.588 5.72244L5.508 15.8024L7.372 15.0776ZM2.9768 6.24956C8.75061 3.28464 14.9933 1.8 21.72 1.8V-0.200003C14.6867 -0.200003 8.12939 1.35535 2.0632 4.47043L2.9768 6.24956ZM21.72 1.8C25.9951 1.8 29.9092 2.42544 33.4715 3.66449L34.1285 1.7755C30.3308 0.454554 26.1916 -0.200003 21.72 -0.200003V1.8ZM33.4715 3.66449C37.0206 4.89895 39.7995 6.68085 41.8535 8.98537L43.3465 7.65462C41.0272 5.05248 37.9394 3.10104 34.1285 1.7755L33.4715 3.66449ZM41.8535 8.98537C43.8787 11.2576 44.88 13.8748 44.88 16.88H46.88C46.88 13.3785 45.6946 10.2891 43.3465 7.65462L41.8535 8.98537ZM44.88 16.88C44.88 19.3549 44.2156 21.5273 42.8978 23.4308L44.5422 24.5692C46.1044 22.3126 46.88 19.7384 46.88 16.88H44.88ZM42.8978 23.4308C41.5707 25.3477 39.7466 26.835 37.3921 27.887L38.2079 29.713C40.8668 28.525 42.9893 26.8123 44.5422 24.5692L42.8978 23.4308ZM96.38 46L97.3042 45.618L97.0487 45H96.38V46ZM70.38 46V45H69.7113L69.4558 45.618L70.38 46ZM65.42 58V59H66.0887L66.3442 58.382L65.42 58ZM52.14 58L51.2266 57.5929L50.5995 59H52.14V58ZM77.1 2V0.999996H76.4509L76.1866 1.59289L77.1 2ZM89.9 2L90.8129 1.5918L90.5483 0.999996H89.9V2ZM114.94 58V59H116.483L115.853 57.5918L114.94 58ZM101.34 58L100.416 58.382L100.671 59H101.34V58ZM92.3 36.16V37.16H93.7966L93.2239 35.7773L92.3 36.16ZM83.42 14.72L84.3439 14.3373L83.42 12.1067L82.4961 14.3373L83.42 14.72ZM74.54 36.16L73.6161 35.7773L73.0434 37.16H74.54V36.16ZM96.38 45H70.38V47H96.38V45ZM69.4558 45.618L64.4958 57.618L66.3442 58.382L71.3042 46.382L69.4558 45.618ZM65.42 57H52.14V59H65.42V57ZM53.0534 58.4071L78.0134 2.4071L76.1866 1.59289L51.2266 57.5929L53.0534 58.4071ZM77.1 3H89.9V0.999996H77.1V3ZM88.9871 2.40819L114.027 58.4082L115.853 57.5918L90.8129 1.5918L88.9871 2.40819ZM114.94 57H101.34V59H114.94V57ZM102.264 57.618L97.3042 45.618L95.4558 46.382L100.416 58.382L102.264 57.618ZM93.2239 35.7773L84.3439 14.3373L82.4961 15.1027L91.3761 36.5427L93.2239 35.7773ZM82.4961 14.3373L73.6161 35.7773L75.4639 36.5427L84.3439 15.1027L82.4961 14.3373ZM74.54 37.16H92.3V35.16H74.54V37.16ZM164.196 2H165.196V0.999996H164.196V2ZM164.196 58V59H165.196V58H164.196ZM151.396 58H150.396V59H151.396V58ZM151.396 43.12H152.396V42.12H151.396V43.12ZM139.556 43.12V42.12H139.02L138.724 42.5653L139.556 43.12ZM129.636 58V59H130.171L130.468 58.5547L129.636 58ZM115.956 58L115.133 57.431L114.048 59H115.956V58ZM127.636 41.12L128.458 41.689L129.166 40.6651L128.014 40.1942L127.636 41.12ZM118.916 34.16L118.075 34.7015L118.079 34.708L118.916 34.16ZM118.836 11.76L119.679 12.2978L119.683 12.2913L118.836 11.76ZM127.236 4.56L127.65 5.46997L127.661 5.46482L127.236 4.56ZM131.876 15.12L131.221 14.3636L131.211 14.3726L131.876 15.12ZM131.796 30.24L131.11 30.9676L131.796 30.24ZM151.396 32.88V33.88H152.396V32.88H151.396ZM151.396 12.56H152.396V11.56H151.396V12.56ZM163.196 2V58H165.196V2H163.196ZM164.196 57H151.396V59H164.196V57ZM152.396 58V43.12H150.396V58H152.396ZM151.396 42.12H139.556V44.12H151.396V42.12ZM138.724 42.5653L128.804 57.4453L130.468 58.5547L140.388 43.6747L138.724 42.5653ZM129.636 57H115.956V59H129.636V57ZM116.778 58.569L128.458 41.689L126.813 40.551L115.133 57.431L116.778 58.569ZM128.014 40.1942C124.394 38.7157 121.656 36.5181 119.752 33.612L118.079 34.708C120.229 37.9886 123.304 40.431 127.258 42.0458L128.014 40.1942ZM119.756 33.6185C117.85 30.659 116.876 27.0943 116.876 22.88H114.876C114.876 27.4124 115.928 31.3677 118.075 34.7015L119.756 33.6185ZM116.876 22.88C116.876 18.7162 117.825 15.2038 119.679 12.2978L117.993 11.2222C115.9 14.5029 114.876 18.4038 114.876 22.88H116.876ZM119.683 12.2913C121.544 9.32267 124.188 7.04827 127.65 5.4699L126.821 3.65009C123.03 5.37839 120.073 7.90399 117.988 11.2287L119.683 12.2913ZM127.661 5.46482C131.128 3.83327 135.244 3 140.036 3V0.999996C135.014 0.999996 130.596 1.87339 126.81 3.65518L127.661 5.46482ZM140.036 3H164.196V0.999996H140.036V3ZM140.356 11.56C136.533 11.56 133.439 12.4459 131.221 14.3636L132.53 15.8764C134.259 14.3808 136.818 13.56 140.356 13.56V11.56ZM131.211 14.3726C129.017 16.3232 127.996 19.1676 127.996 22.72H129.996C129.996 19.5524 130.894 17.3301 132.54 15.8674L131.211 14.3726ZM127.996 22.72C127.996 26.1704 128.992 28.9709 131.11 30.9676L132.482 29.5124C130.866 27.9891 129.996 25.7763 129.996 22.72H127.996ZM131.11 30.9676C133.227 32.9636 136.26 33.88 140.036 33.88V31.88C136.558 31.88 134.098 31.0364 132.482 29.5124L131.11 30.9676ZM140.036 33.88H151.396V31.88H140.036V33.88ZM152.396 32.88V12.56H150.396V32.88H152.396ZM151.396 11.56H140.356V13.56H151.396V11.56ZM217.026 28.8L216.586 27.9018L214.283 29.0289L216.741 29.7586L217.026 28.8ZM224.866 33.76L224.081 34.3802V34.3802L224.866 33.76ZM221.906 53.84L221.315 53.0332L221.309 53.0373L221.906 53.84ZM178.226 58H177.226V59H178.226V58ZM178.226 2V0.999996H177.226V2H178.226ZM219.506 5.75999L220.074 4.93737L219.506 5.75999ZM222.866 23.84L223.698 24.3947L223.704 24.385L222.866 23.84ZM191.106 25.2H190.106V26.2H191.106V25.2ZM209.586 23.52L210.2 24.3093L210.209 24.3024L210.217 24.2952L209.586 23.52ZM209.506 13.36L208.874 14.1352L208.881 14.1408L208.888 14.1463L209.506 13.36ZM191.106 11.6V10.6H190.106V11.6H191.106ZM191.106 34.24V33.24H190.106V34.24H191.106ZM191.106 48.4H190.106V49.4H191.106V48.4ZM216.741 29.7586C220.001 30.7263 222.421 32.2809 224.081 34.3802L225.65 33.1398C223.683 30.6524 220.877 28.9003 217.31 27.8414L216.741 29.7586ZM224.081 34.3802C225.735 36.4712 226.586 39.0699 226.586 42.24H228.586C228.586 38.6901 227.623 35.6355 225.65 33.1398L224.081 34.3802ZM226.586 42.24C226.586 46.9024 224.828 50.4604 221.315 53.0332L222.496 54.6468C226.557 51.6729 228.586 47.4976 228.586 42.24H226.586ZM221.309 53.0373C217.816 55.6326 212.7 57 205.826 57V59C212.925 59 218.529 57.5941 222.502 54.6427L221.309 53.0373ZM205.826 57H178.226V59H205.826V57ZM179.226 58V2H177.226V58H179.226ZM178.226 3H204.306V0.999996H178.226V3ZM204.306 3C210.701 3 215.54 4.23443 218.937 6.58262L220.074 4.93737C216.218 2.27223 210.924 0.999996 204.306 0.999996V3ZM218.937 6.58262C222.277 8.89123 223.946 12.148 223.946 16.48H225.946C225.946 11.532 223.987 7.6421 220.074 4.93737L218.937 6.58262ZM223.946 16.48C223.946 19.078 223.299 21.3384 222.027 23.295L223.704 24.385C225.206 22.0749 225.946 19.4287 225.946 16.48H223.946ZM222.034 23.2853C220.756 25.2015 218.953 26.7436 216.586 27.9018L217.465 29.6982C220.112 28.403 222.202 26.6385 223.698 24.3947L222.034 23.2853ZM191.106 26.2H203.186V24.2H191.106V26.2ZM203.186 26.2C206.12 26.2 208.511 25.6228 210.2 24.3093L208.972 22.7306C207.78 23.6572 205.905 24.2 203.186 24.2V26.2ZM210.217 24.2952C211.939 22.8926 212.746 20.8722 212.746 18.4H210.746C210.746 20.4078 210.113 21.8007 208.954 22.7448L210.217 24.2952ZM212.746 18.4C212.746 15.9589 211.897 13.9668 210.123 12.5737L208.888 14.1463C210.101 15.0999 210.746 16.4677 210.746 18.4H212.746ZM210.137 12.5848C208.449 11.2095 206.08 10.6 203.186 10.6V12.6C205.838 12.6 207.682 13.1638 208.874 14.1352L210.137 12.5848ZM203.186 10.6H191.106V12.6H203.186V10.6ZM190.106 11.6V25.2H192.106V11.6H190.106ZM205.346 49.4C208.49 49.4 211.033 48.7839 212.805 47.3849C214.622 45.9503 215.466 43.8253 215.466 41.2H213.466C213.466 43.3747 212.789 44.8497 211.566 45.8151C210.298 46.8161 208.281 47.4 205.346 47.4V49.4ZM215.466 41.2C215.466 38.6425 214.614 36.5751 212.792 35.185C211.022 33.834 208.485 33.24 205.346 33.24V35.24C208.287 35.24 210.309 35.806 211.579 36.7749C212.797 37.7049 213.466 39.1175 213.466 41.2H215.466ZM205.346 33.24H191.106V35.24H205.346V33.24ZM190.106 34.24V48.4H192.106V34.24H190.106ZM191.106 49.4H205.346V47.4H191.106V49.4ZM259.515 35.44L260.355 34.8977L260.06 34.44H259.515V35.44ZM250.555 35.44V34.44H249.555V35.44H250.555ZM250.555 58V59H251.555V58H250.555ZM237.675 58H236.675V59H237.675V58ZM237.675 2V0.999996H236.675V2H237.675ZM250.555 2H251.555V0.999996H250.555V2ZM250.555 24.64H249.555V25.64H250.555V24.64ZM259.835 24.64V25.64H260.378L260.673 25.1851L259.835 24.64ZM274.555 2V0.999996H274.012L273.717 1.4549L274.555 2ZM288.235 2L289.063 2.5609L290.12 0.999996H288.235V2ZM269.915 29.04L269.087 28.4791L268.714 29.0293L269.077 29.5861L269.915 29.04ZM288.795 58V59H290.641L289.633 57.4539L288.795 58ZM274.075 58L273.235 58.5423L273.53 59H274.075V58ZM259.515 34.44H250.555V36.44H259.515V34.44ZM249.555 35.44V58H251.555V35.44H249.555ZM250.555 57H237.675V59H250.555V57ZM238.675 58V2H236.675V58H238.675ZM237.675 3H250.555V0.999996H237.675V3ZM249.555 2V24.64H251.555V2H249.555ZM250.555 25.64H259.835V23.64H250.555V25.64ZM260.673 25.1851L275.393 2.54509L273.717 1.4549L258.997 24.0949L260.673 25.1851ZM274.555 3H288.235V0.999996H274.555V3ZM287.407 1.43909L269.087 28.4791L270.743 29.6009L289.063 2.5609L287.407 1.43909ZM269.077 29.5861L287.957 58.5461L289.633 57.4539L270.753 28.4939L269.077 29.5861ZM288.795 57H274.075V59H288.795V57ZM274.915 57.4577L260.355 34.8977L258.675 35.9823L273.235 58.5423L274.915 57.4577ZM331.693 46L332.617 45.618L332.361 45H331.693V46ZM305.693 46V45H305.024L304.768 45.618L305.693 46ZM300.733 58V59H301.401L301.657 58.382L300.733 58ZM287.453 58L286.539 57.5929L285.912 59H287.453V58ZM312.413 2V0.999996H311.763L311.499 1.59289L312.413 2ZM325.212 2L326.125 1.5918L325.861 0.999996H325.212V2ZM350.253 58V59H351.795L351.165 57.5918L350.253 58ZM336.652 58L335.728 58.382L335.984 59H336.652V58ZM327.613 36.16V37.16H329.109L328.536 35.7773L327.613 36.16ZM318.733 14.72L319.656 14.3373L318.733 12.1067L317.809 14.3373L318.733 14.72ZM309.853 36.16L308.929 35.7773L308.356 37.16H309.853V36.16ZM331.693 45H305.693V47H331.693V45ZM304.768 45.618L299.808 57.618L301.657 58.382L306.617 46.382L304.768 45.618ZM300.733 57H287.453V59H300.733V57ZM288.366 58.4071L313.326 2.4071L311.499 1.59289L286.539 57.5929L288.366 58.4071ZM312.413 3H325.212V0.999996H312.413V3ZM324.3 2.40819L349.34 58.4082L351.165 57.5918L326.125 1.5918L324.3 2.40819ZM350.253 57H336.652V59H350.253V57ZM337.577 57.618L332.617 45.618L330.768 46.382L335.728 58.382L337.577 57.618ZM328.536 35.7773L319.656 14.3373L317.809 15.1027L326.689 36.5427L328.536 35.7773ZM317.809 14.3373L308.929 35.7773L310.776 36.5427L319.656 15.1027L317.809 14.3373ZM309.853 37.16H327.613V35.16H309.853V37.16ZM431.695 2H432.695V0.999996H431.695V2ZM431.695 58V59H432.695V58H431.695ZM418.735 58H417.735V59H418.735V58ZM418.735 35.04H419.735V34.04H418.735V35.04ZM393.295 35.04V34.04H392.295V35.04H393.295ZM393.295 58V59H394.295V58H393.295ZM380.335 58H379.335V59H380.335V58ZM380.335 2V0.999996H379.335V2H380.335ZM393.295 2H394.295V0.999996H393.295V2ZM393.295 24.08H392.295V25.08H393.295V24.08ZM418.735 24.08V25.08H419.735V24.08H418.735ZM418.735 2V0.999996H417.735V2H418.735ZM430.695 2V58H432.695V2H430.695ZM431.695 57H418.735V59H431.695V57ZM419.735 58V35.04H417.735V58H419.735ZM418.735 34.04H393.295V36.04H418.735V34.04ZM392.295 35.04V58H394.295V35.04H392.295ZM393.295 57H380.335V59H393.295V57ZM381.335 58V2H379.335V58H381.335ZM380.335 3H393.295V0.999996H380.335V3ZM392.295 2V24.08H394.295V2H392.295ZM393.295 25.08H418.735V23.08H393.295V25.08ZM419.735 24.08V2H417.735V24.08H419.735ZM418.735 3H431.695V0.999996H418.735V3ZM483.646 46L484.57 45.618L484.314 45H483.646V46ZM457.646 46V45H456.977L456.721 45.618L457.646 46ZM452.686 58V59H453.354L453.61 58.382L452.686 58ZM439.406 58L438.492 57.5929L437.865 59H439.406V58ZM464.366 2V0.999996H463.717L463.452 1.59289L464.366 2ZM477.166 2L478.079 1.5918L477.814 0.999996H477.166V2ZM502.206 58V59H503.748L503.119 57.5918L502.206 58ZM488.606 58L487.681 58.382L487.937 59H488.606V58ZM479.566 36.16V37.16H481.062L480.49 35.7773L479.566 36.16ZM470.686 14.72L471.61 14.3373L470.686 12.1067L469.762 14.3373L470.686 14.72ZM461.806 36.16L460.882 35.7773L460.309 37.16H461.806V36.16ZM483.646 45H457.646V47H483.646V45ZM456.721 45.618L451.761 57.618L453.61 58.382L458.57 46.382L456.721 45.618ZM452.686 57H439.406V59H452.686V57ZM440.319 58.4071L465.279 2.4071L463.452 1.59289L438.492 57.5929L440.319 58.4071ZM464.366 3H477.166V0.999996H464.366V3ZM476.253 2.40819L501.293 58.4082L503.119 57.5918L478.079 1.5918L476.253 2.40819ZM502.206 57H488.606V59H502.206V57ZM489.53 57.618L484.57 45.618L482.721 46.382L487.681 58.382L489.53 57.618ZM480.49 35.7773L471.61 14.3373L469.762 15.1027L478.642 36.5427L480.49 35.7773ZM469.762 14.3373L460.882 35.7773L462.73 36.5427L471.61 15.1027L469.762 14.3373ZM461.806 37.16H479.566V35.16H461.806V37.16ZM564.128 28.8L563.72 27.887L561.407 28.9207L563.803 29.7455L564.128 28.8ZM571.728 34.08L570.93 34.6828L570.938 34.6928L570.946 34.7025L571.728 34.08ZM562.048 56.96L561.72 56.0153L561.716 56.0168L562.048 56.96ZM538.048 57.52L537.802 58.4893L537.806 58.4901L538.048 57.52ZM527.248 53.12L526.33 52.7242L525.978 53.5407L526.748 53.9857L527.248 53.12ZM531.248 43.84L531.768 42.9858L530.785 42.3876L530.33 43.4442L531.248 43.84ZM539.328 47.28L539.065 48.2448L539.075 48.2476L539.086 48.2501L539.328 47.28ZM557.568 46.32L557.092 45.4407L557.084 45.445L557.568 46.32ZM558.768 35.76L558.238 36.6081L558.25 36.6152L558.768 35.76ZM538.048 34.16H537.048V35.16H538.048V34.16ZM538.048 24.4V23.4H537.048V24.4H538.048ZM556.848 22.8L556.267 21.9863L556.26 21.9913L556.253 21.9964L556.848 22.8ZM555.888 13.28L555.38 14.1414L555.39 14.1469L555.888 13.28ZM540.208 12.48L540.446 13.4513L540.455 13.449L540.465 13.4466L540.208 12.48ZM532.768 15.44L531.836 15.8024L532.256 16.8813L533.262 16.3095L532.768 15.44ZM528.848 5.36L528.391 4.47043L527.589 4.88224L527.916 5.72244L528.848 5.36ZM560.128 2.72L560.457 1.7755L560.128 2.72ZM563.803 29.7455C566.896 30.8104 569.253 32.4635 570.93 34.6828L572.526 33.4772C570.576 30.8965 567.867 29.0296 564.454 27.8545L563.803 29.7455ZM570.946 34.7025C572.664 36.863 573.528 39.3874 573.528 42.32H575.528C575.528 38.9592 574.525 35.9903 572.511 33.4575L570.946 34.7025ZM573.528 42.32C573.528 45.4917 572.496 48.2134 570.422 50.5337L571.914 51.8663C574.32 49.1733 575.528 45.975 575.528 42.32H573.528ZM570.422 50.5337C568.317 52.8895 565.433 54.7262 561.72 56.0153L562.376 57.9047C566.343 56.5272 569.539 54.5238 571.914 51.8663L570.422 50.5337ZM561.716 56.0168C558.049 57.308 554.003 57.96 549.568 57.96V59.96C554.2 59.96 558.474 59.2787 562.38 57.9032L561.716 56.0168ZM549.568 57.96C545.812 57.96 542.054 57.4906 538.291 56.5499L537.806 58.4901C541.722 59.4694 545.644 59.96 549.568 59.96V57.96ZM538.294 56.5507C534.597 55.6135 531.083 54.1819 527.749 52.2543L526.748 53.9857C530.24 56.0047 533.926 57.5065 537.802 58.4893L538.294 56.5507ZM528.166 53.5158L532.166 44.2358L530.33 43.4442L526.33 52.7242L528.166 53.5158ZM530.728 44.6942C533.266 46.239 536.047 47.4216 539.065 48.2448L539.591 46.3152C536.743 45.5384 534.137 44.4277 531.768 42.9858L530.728 44.6942ZM539.086 48.2501C542.145 49.0149 545.133 49.4 548.048 49.4V47.4C545.31 47.4 542.485 47.0384 539.571 46.3099L539.086 48.2501ZM548.048 49.4C552.002 49.4 555.355 48.6869 558.052 47.195L557.084 45.445C554.768 46.7265 551.774 47.4 548.048 47.4V49.4ZM558.044 47.1993C560.864 45.6719 562.408 43.4201 562.408 40.48H560.408C560.408 42.5533 559.392 44.1947 557.092 45.4407L558.044 47.1993ZM562.408 40.48C562.408 38.0549 561.349 36.1551 559.286 34.9048L558.25 36.6152C559.707 37.4983 560.408 38.7451 560.408 40.48H562.408ZM559.298 34.912C557.373 33.709 554.817 33.16 551.728 33.16V35.16C554.612 35.16 556.75 35.6777 558.238 36.608L559.298 34.912ZM551.728 33.16H538.048V35.16H551.728V33.16ZM539.048 34.16V24.4H537.048V34.16H539.048ZM538.048 25.4H550.768V23.4H538.048V25.4ZM550.768 25.4C553.502 25.4 555.768 24.8443 557.443 23.6036L556.253 21.9964C555.048 22.889 553.261 23.4 550.768 23.4V25.4ZM557.429 23.6137C559.191 22.3556 560.088 20.583 560.088 18.4H558.088C558.088 19.9503 557.492 21.1111 556.267 21.9863L557.429 23.6137ZM560.088 18.4C560.088 15.8044 558.783 13.7912 556.387 12.4131L555.39 14.1469C557.26 15.2221 558.088 16.6222 558.088 18.4H560.088ZM556.396 12.4186C554.116 11.0737 551.23 10.44 547.808 10.44V12.44C550.999 12.44 553.501 13.033 555.38 14.1414L556.396 12.4186ZM547.808 10.44C545.26 10.44 542.64 10.8001 539.952 11.5134L540.465 13.4466C543.003 12.7732 545.45 12.44 547.808 12.44V10.44ZM539.97 11.5087C537.267 12.1707 534.701 13.1917 532.274 14.5705L533.262 16.3095C535.529 15.0216 537.923 14.0693 540.446 13.4513L539.97 11.5087ZM533.7 15.0776L529.78 4.99755L527.916 5.72244L531.836 15.8024L533.7 15.0776ZM529.305 6.24956C535.079 3.28464 541.321 1.8 548.048 1.8V-0.200003C541.015 -0.200003 534.458 1.35535 528.391 4.47043L529.305 6.24956ZM548.048 1.8C552.323 1.8 556.237 2.42544 559.8 3.66449L560.457 1.7755C556.659 0.454554 552.52 -0.200003 548.048 -0.200003V1.8ZM559.8 3.66449C563.349 4.89895 566.128 6.68085 568.182 8.98537L569.675 7.65462C567.355 5.05248 564.268 3.10104 560.457 1.7755L559.8 3.66449ZM568.182 8.98537C570.207 11.2576 571.208 13.8748 571.208 16.88H573.208C573.208 13.3785 572.023 10.2891 569.675 7.65462L568.182 8.98537ZM571.208 16.88C571.208 19.3549 570.544 21.5273 569.226 23.4308L570.87 24.5692C572.433 22.3126 573.208 19.7384 573.208 16.88H571.208ZM569.226 23.4308C567.899 25.3477 566.075 26.835 563.72 27.887L564.536 29.713C567.195 28.525 569.317 26.8123 570.87 24.5692L569.226 23.4308ZM622.708 46L623.632 45.618L623.377 45H622.708V46ZM596.708 46V45H596.039L595.784 45.618L596.708 46ZM591.748 58V59H592.417L592.672 58.382L591.748 58ZM578.468 58L577.555 57.5929L576.928 59H578.468V58ZM603.428 2V0.999996H602.779L602.515 1.59289L603.428 2ZM616.228 2L617.141 1.5918L616.876 0.999996H616.228V2ZM641.268 58V59H642.811L642.181 57.5918L641.268 58ZM627.668 58L626.744 58.382L626.999 59H627.668V58ZM618.628 36.16V37.16H620.125L619.552 35.7773L618.628 36.16ZM609.748 14.72L610.672 14.3373L609.748 12.1067L608.824 14.3373L609.748 14.72ZM600.868 36.16L599.944 35.7773L599.372 37.16H600.868V36.16ZM622.708 45H596.708V47H622.708V45ZM595.784 45.618L590.824 57.618L592.672 58.382L597.632 46.382L595.784 45.618ZM591.748 57H578.468V59H591.748V57ZM579.382 58.4071L604.341 2.4071L602.515 1.59289L577.555 57.5929L579.382 58.4071ZM603.428 3H616.228V0.999996H603.428V3ZM615.315 2.40819L640.355 58.4082L642.181 57.5918L617.141 1.5918L615.315 2.40819ZM641.268 57H627.668V59H641.268V57ZM628.592 57.618L623.632 45.618L621.784 46.382L626.744 58.382L628.592 57.618ZM619.552 35.7773L610.672 14.3373L608.824 15.1027L617.704 36.5427L619.552 35.7773ZM608.824 14.3373L599.944 35.7773L601.792 36.5427L610.672 15.1027L608.824 14.3373ZM600.868 37.16H618.628V35.16H600.868V37.16ZM670.374 35.44L671.215 34.8977L670.919 34.44H670.374V35.44ZM661.414 35.44V34.44H660.414V35.44H661.414ZM661.414 58V59H662.414V58H661.414ZM648.534 58H647.534V59H648.534V58ZM648.534 2V0.999996H647.534V2H648.534ZM661.414 2H662.414V0.999996H661.414V2ZM661.414 24.64H660.414V25.64H661.414V24.64ZM670.694 24.64V25.64H671.237L671.533 25.1851L670.694 24.64ZM685.414 2V0.999996H684.872L684.576 1.4549L685.414 2ZM699.094 2L699.922 2.5609L700.98 0.999996H699.094V2ZM680.774 29.04L679.946 28.4791L679.574 29.0293L679.937 29.5861L680.774 29.04ZM699.654 58V59H701.5L700.492 57.4539L699.654 58ZM684.934 58L684.094 58.5423L684.39 59H684.934V58ZM670.374 34.44H661.414V36.44H670.374V34.44ZM660.414 35.44V58H662.414V35.44H660.414ZM661.414 57H648.534V59H661.414V57ZM649.534 58V2H647.534V58H649.534ZM648.534 3H661.414V0.999996H648.534V3ZM660.414 2V24.64H662.414V2H660.414ZM661.414 25.64H670.694V23.64H661.414V25.64ZM671.533 25.1851L686.253 2.54509L684.576 1.4549L669.856 24.0949L671.533 25.1851ZM685.414 3H699.094V0.999996H685.414V3ZM698.266 1.43909L679.946 28.4791L681.602 29.6009L699.922 2.5609L698.266 1.43909ZM679.937 29.5861L698.817 58.5461L700.492 57.4539L681.612 28.4939L679.937 29.5861ZM699.654 57H684.934V59H699.654V57ZM685.775 57.4577L671.215 34.8977L669.534 35.9823L684.094 58.5423L685.775 57.4577ZM742.552 46L743.476 45.618L743.221 45H742.552V46ZM716.552 46V45H715.883L715.628 45.618L716.552 46ZM711.592 58V59H712.261L712.516 58.382L711.592 58ZM698.312 58L697.398 57.5929L696.771 59H698.312V58ZM723.272 2V0.999996H722.623L722.359 1.59289L723.272 2ZM736.072 2L736.985 1.5918L736.72 0.999996H736.072V2ZM761.112 58V59H762.654L762.025 57.5918L761.112 58ZM747.512 58L746.588 58.382L746.843 59H747.512V58ZM738.472 36.16V37.16H739.968L739.396 35.7773L738.472 36.16ZM729.592 14.72L730.516 14.3373L729.592 12.1067L728.668 14.3373L729.592 14.72ZM720.712 36.16L719.788 35.7773L719.215 37.16H720.712V36.16ZM742.552 45H716.552V47H742.552V45ZM715.628 45.618L710.668 57.618L712.516 58.382L717.476 46.382L715.628 45.618ZM711.592 57H698.312V59H711.592V57ZM699.225 58.4071L724.185 2.4071L722.359 1.59289L697.398 57.5929L699.225 58.4071ZM723.272 3H736.072V0.999996H723.272V3ZM735.159 2.40819L760.199 58.4082L762.025 57.5918L736.985 1.5918L735.159 2.40819ZM761.112 57H747.512V59H761.112V57ZM748.436 57.618L743.476 45.618L741.628 46.382L746.588 58.382L748.436 57.618ZM739.396 35.7773L730.516 14.3373L728.668 15.1027L737.548 36.5427L739.396 35.7773ZM728.668 14.3373L719.788 35.7773L721.636 36.5427L730.516 15.1027L728.668 14.3373ZM720.712 37.16H738.472V35.16H720.712V37.16ZM800.378 28.8L799.97 27.887L797.657 28.9207L800.053 29.7455L800.378 28.8ZM807.978 34.08L807.18 34.6828L807.188 34.6928L807.196 34.7025L807.978 34.08ZM798.298 56.96L797.97 56.0153L797.966 56.0168L798.298 56.96ZM774.298 57.52L774.052 58.4893L774.056 58.4901L774.298 57.52ZM763.498 53.12L762.58 52.7242L762.228 53.5407L762.998 53.9857L763.498 53.12ZM767.498 43.84L768.018 42.9858L767.035 42.3876L766.58 43.4442L767.498 43.84ZM775.578 47.28L775.315 48.2448L775.325 48.2476L775.336 48.2501L775.578 47.28ZM793.818 46.32L793.342 45.4407L793.334 45.445L793.818 46.32ZM795.018 35.76L794.488 36.6081L794.5 36.6152L795.018 35.76ZM774.298 34.16H773.298V35.16H774.298V34.16ZM774.298 24.4V23.4H773.298V24.4H774.298ZM793.098 22.8L792.517 21.9863L792.51 21.9913L792.503 21.9964L793.098 22.8ZM792.138 13.28L791.63 14.1414L791.64 14.1469L792.138 13.28ZM776.458 12.48L776.696 13.4513L776.705 13.449L776.715 13.4466L776.458 12.48ZM769.018 15.44L768.086 15.8024L768.506 16.8813L769.512 16.3095L769.018 15.44ZM765.098 5.36L764.641 4.47043L763.839 4.88224L764.166 5.72244L765.098 5.36ZM796.378 2.72L796.707 1.7755L796.378 2.72ZM800.053 29.7455C803.146 30.8104 805.503 32.4635 807.18 34.6828L808.776 33.4772C806.826 30.8965 804.117 29.0296 800.704 27.8545L800.053 29.7455ZM807.196 34.7025C808.914 36.863 809.778 39.3874 809.778 42.32H811.778C811.778 38.9592 810.775 35.9903 808.761 33.4575L807.196 34.7025ZM809.778 42.32C809.778 45.4917 808.746 48.2134 806.672 50.5337L808.164 51.8663C810.57 49.1733 811.778 45.975 811.778 42.32H809.778ZM806.672 50.5337C804.567 52.8895 801.683 54.7262 797.97 56.0153L798.626 57.9047C802.593 56.5272 805.789 54.5238 808.164 51.8663L806.672 50.5337ZM797.966 56.0168C794.299 57.308 790.253 57.96 785.818 57.96V59.96C790.45 59.96 794.724 59.2787 798.63 57.9032L797.966 56.0168ZM785.818 57.96C782.062 57.96 778.304 57.4906 774.541 56.5499L774.056 58.4901C777.972 59.4694 781.894 59.96 785.818 59.96V57.96ZM774.544 56.5507C770.847 55.6135 767.333 54.1819 763.999 52.2543L762.998 53.9857C766.49 56.0047 770.176 57.5065 774.052 58.4893L774.544 56.5507ZM764.416 53.5158L768.416 44.2358L766.58 43.4442L762.58 52.7242L764.416 53.5158ZM766.978 44.6942C769.516 46.239 772.297 47.4216 775.315 48.2448L775.841 46.3152C772.993 45.5384 770.387 44.4277 768.018 42.9858L766.978 44.6942ZM775.336 48.2501C778.395 49.0149 781.383 49.4 784.298 49.4V47.4C781.56 47.4 778.735 47.0384 775.821 46.3099L775.336 48.2501ZM784.298 49.4C788.252 49.4 791.605 48.6869 794.302 47.195L793.334 45.445C791.018 46.7265 788.024 47.4 784.298 47.4V49.4ZM794.294 47.1993C797.114 45.6719 798.658 43.4201 798.658 40.48H796.658C796.658 42.5533 795.642 44.1947 793.342 45.4407L794.294 47.1993ZM798.658 40.48C798.658 38.0549 797.599 36.1551 795.536 34.9048L794.5 36.6152C795.957 37.4983 796.658 38.7451 796.658 40.48H798.658ZM795.548 34.912C793.623 33.709 791.067 33.16 787.978 33.16V35.16C790.862 35.16 793 35.6777 794.488 36.608L795.548 34.912ZM787.978 33.16H774.298V35.16H787.978V33.16ZM775.298 34.16V24.4H773.298V34.16H775.298ZM774.298 25.4H787.018V23.4H774.298V25.4ZM787.018 25.4C789.752 25.4 792.018 24.8443 793.693 23.6036L792.503 21.9964C791.298 22.889 789.511 23.4 787.018 23.4V25.4ZM793.679 23.6137C795.441 22.3556 796.338 20.583 796.338 18.4H794.338C794.338 19.9503 793.742 21.1111 792.517 21.9863L793.679 23.6137ZM796.338 18.4C796.338 15.8044 795.033 13.7912 792.637 12.4131L791.64 14.1469C793.51 15.2221 794.338 16.6222 794.338 18.4H796.338ZM792.646 12.4186C790.366 11.0737 787.48 10.44 784.058 10.44V12.44C787.249 12.44 789.751 13.033 791.63 14.1414L792.646 12.4186ZM784.058 10.44C781.51 10.44 778.89 10.8001 776.202 11.5134L776.715 13.4466C779.253 12.7732 781.7 12.44 784.058 12.44V10.44ZM776.22 11.5087C773.517 12.1707 770.951 13.1917 768.524 14.5705L769.512 16.3095C771.779 15.0216 774.173 14.0693 776.696 13.4513L776.22 11.5087ZM769.95 15.0776L766.03 4.99755L764.166 5.72244L768.086 15.8024L769.95 15.0776ZM765.555 6.24956C771.329 3.28464 777.571 1.8 784.298 1.8V-0.200003C777.265 -0.200003 770.708 1.35535 764.641 4.47043L765.555 6.24956ZM784.298 1.8C788.573 1.8 792.487 2.42544 796.05 3.66449L796.707 1.7755C792.909 0.454554 788.77 -0.200003 784.298 -0.200003V1.8ZM796.05 3.66449C799.599 4.89895 802.378 6.68085 804.432 8.98537L805.925 7.65462C803.605 5.05248 800.518 3.10104 796.707 1.7755L796.05 3.66449ZM804.432 8.98537C806.457 11.2576 807.458 13.8748 807.458 16.88H809.458C809.458 13.3785 808.273 10.2891 805.925 7.65462L804.432 8.98537ZM807.458 16.88C807.458 19.3549 806.794 21.5273 805.476 23.4308L807.12 24.5692C808.683 22.3126 809.458 19.7384 809.458 16.88H807.458ZM805.476 23.4308C804.149 25.3477 802.325 26.835 799.97 27.887L800.786 29.713C803.445 28.525 805.567 26.8123 807.12 24.5692L805.476 23.4308Z" fill="#BBBBBB"/>
</svg>
