<svg width="230" height="58" viewBox="0 0 230 58" fill="none" xmlns="http://www.w3.org/2000/svg">
<path d="M0.960001 0.999996V-3.8147e-06H-0.0399995V0.999996H0.960001ZM46.16 0.999996H47.16V-3.8147e-06H46.16V0.999996ZM46.16 11.32V12.32H47.16V11.32H46.16ZM13.84 11.32V10.32H12.84V11.32H13.84ZM13.84 22.84H12.84V23.84H13.84V22.84ZM44.8 27.08L44.1739 27.8597L44.1796 27.8643L44.8 27.08ZM0.960001 57H-0.0399995V58H0.960001V57ZM34.4 45.48L34.9882 46.2887L34.9961 46.283L35.0039 46.2771L34.4 45.48ZM13.84 32.36V31.36H12.84V32.36H13.84ZM13.84 47.4H12.84V48.4H13.84V47.4ZM0.960001 2H46.16V-3.8147e-06H0.960001V2ZM45.16 0.999996V11.32H47.16V0.999996H45.16ZM46.16 10.32H13.84V12.32H46.16V10.32ZM12.84 11.32V22.84H14.84V11.32H12.84ZM13.84 23.84H29.36V21.84H13.84V23.84ZM29.36 23.84C36.0148 23.84 40.9011 25.2316 44.1739 27.8597L45.4261 26.3003C41.6589 23.2751 36.2519 21.84 29.36 21.84V23.84ZM44.1796 27.8643C47.4707 30.4677 49.16 34.2339 49.16 39.32H51.16C51.16 33.7395 49.2759 29.3456 45.4204 26.2957L44.1796 27.8643ZM49.16 39.32C49.16 44.6536 47.2975 48.693 43.6231 51.5729L44.8569 53.1471C49.0759 49.8403 51.16 45.1864 51.16 39.32H49.16ZM43.6231 51.5729C39.9148 54.4795 34.5911 56 27.52 56V58C34.8489 58 40.6719 56.4272 44.8569 53.1471L43.6231 51.5729ZM27.52 56H0.960001V58H27.52V56ZM1.96 57V0.999996H-0.0399995V57H1.96ZM26.8 48.4C30.2146 48.4 32.9892 47.7425 34.9882 46.2887L33.8118 44.6713C32.2908 45.7775 29.9988 46.4 26.8 46.4V48.4ZM35.0039 46.2771C37.0496 44.7273 38.04 42.4914 38.04 39.72H36.04C36.04 41.9619 35.2705 43.566 33.7961 44.6829L35.0039 46.2771ZM38.04 39.72C38.04 37.0063 37.078 34.8358 35.0636 33.388C33.1104 31.9841 30.3031 31.36 26.8 31.36V33.36C30.1236 33.36 32.4363 33.9626 33.8964 35.012C35.2954 36.0176 36.04 37.527 36.04 39.72H38.04ZM26.8 31.36H13.84V33.36H26.8V31.36ZM12.84 32.36V47.4H14.84V32.36H12.84ZM13.84 48.4H26.8V46.4H13.84V48.4ZM108.614 0.999996H109.614V-3.8147e-06H108.614V0.999996ZM108.614 57V58H109.614V57H108.614ZM95.8144 57H94.8144V58H95.8144V57ZM95.8144 11.56H96.8144V10.56H95.8144V11.56ZM76.6144 11.56V10.56H75.648L75.615 11.5258L76.6144 11.56ZM76.2144 23.24L75.215 23.2058L75.2149 23.2065L76.2144 23.24ZM74.2944 42.6L75.2737 42.8023L75.2741 42.8002L74.2944 42.6ZM69.1744 53.96L68.4311 53.291L68.4303 53.2919L69.1744 53.96ZM52.8544 57L51.857 56.9272L51.7948 57.779L52.6265 57.9737L52.8544 57ZM53.6544 46.04L53.9485 45.0842L52.7484 44.715L52.657 45.9672L53.6544 46.04ZM62.4544 40.92L63.4017 41.2404L63.4031 41.2362L62.4544 40.92ZM64.7744 23.72L65.7736 23.7611L65.7738 23.7552L64.7744 23.72ZM65.5744 0.999996V-3.8147e-06H64.609L64.575 0.964808L65.5744 0.999996ZM107.614 0.999996V57H109.614V0.999996H107.614ZM108.614 56H95.8144V58H108.614V56ZM96.8144 57V11.56H94.8144V57H96.8144ZM95.8144 10.56H76.6144V12.56H95.8144V10.56ZM75.615 11.5258L75.215 23.2058L77.2138 23.2742L77.6138 11.5942L75.615 11.5258ZM75.2149 23.2065C74.9492 31.1249 74.3123 37.5165 73.3146 42.3998L75.2741 42.8002C76.3031 37.7635 76.9462 31.2484 77.2138 23.2735L75.2149 23.2065ZM73.315 42.3977C72.324 47.1963 70.6744 50.7984 68.4311 53.291L69.9177 54.629C72.4743 51.7882 74.238 47.8171 75.2737 42.8023L73.315 42.3977ZM68.4303 53.2919C66.3134 55.6493 63.3033 56.88 59.2544 56.88V58.88C63.7388 58.88 67.342 57.4973 69.9184 54.6281L68.4303 53.2919ZM59.2544 56.88C57.5975 56.88 55.5452 56.6028 53.0823 56.0263L52.6265 57.9737C55.1768 58.5706 57.3913 58.88 59.2544 58.88V56.88ZM53.8517 57.0728L54.6517 46.1128L52.657 45.9672L51.857 56.9272L53.8517 57.0728ZM53.3603 46.9958C54.164 47.2431 55.0384 47.36 55.9744 47.36V45.36C55.2036 45.36 54.5315 45.2636 53.9485 45.0842L53.3603 46.9958ZM55.9744 47.36C57.7318 47.36 59.2794 46.8388 60.5573 45.7659C61.8193 44.7065 62.7499 43.1674 63.4017 41.2404L61.5071 40.5996C60.9322 42.2992 60.1695 43.4802 59.2714 44.2341C58.3894 44.9746 57.3103 45.36 55.9744 45.36V47.36ZM63.4031 41.2362C64.6761 37.417 65.4527 31.567 65.7735 23.7611L63.7752 23.6789C63.456 31.4463 62.686 37.063 61.5057 40.6038L63.4031 41.2362ZM65.7738 23.7552L66.5738 1.03518L64.575 0.964808L63.775 23.6848L65.7738 23.7552ZM65.5744 2H108.614V-3.8147e-06H65.5744V2ZM133.561 54.2L133.085 55.0798L133.09 55.0821L133.561 54.2ZM122.601 43.88L121.739 44.3884L121.743 44.3945L121.747 44.4006L122.601 43.88ZM122.601 14.2L121.744 13.684L121.742 13.687L122.601 14.2ZM133.561 3.8L133.09 2.91791L133.085 2.92018L133.561 3.8ZM175.961 14.2L175.104 14.716L175.107 14.7206L175.961 14.2ZM175.961 43.88L176.814 44.4006L176.817 44.396L175.961 43.88ZM165.001 54.2L165.476 55.0798L165.001 54.2ZM158.281 44.68L158.769 45.5525L158.776 45.5488L158.782 45.545L158.281 44.68ZM164.521 38.28L163.651 37.7857L163.648 37.7922L163.644 37.7987L164.521 38.28ZM164.521 19.72L163.644 20.2013L163.648 20.2078L163.651 20.2143L164.521 19.72ZM158.281 13.4L157.779 14.265L157.785 14.2688L157.792 14.2725L158.281 13.4ZM140.361 13.4L140.849 14.2725L140.856 14.2688L140.862 14.265L140.361 13.4ZM134.041 19.72L133.171 19.2257L133.168 19.2322L133.164 19.2387L134.041 19.72ZM134.041 38.28L133.164 38.7613L133.168 38.7678L133.171 38.7743L134.041 38.28ZM140.361 44.68L139.859 45.545L139.865 45.5488L139.872 45.5525L140.361 44.68ZM149.321 56.96C143.656 56.96 138.567 55.7402 134.032 53.3179L133.09 55.0821C137.941 57.6732 143.359 58.96 149.321 58.96V56.96ZM134.036 53.3202C129.547 50.895 126.026 47.577 123.454 43.3594L121.747 44.4006C124.508 48.9297 128.294 52.4916 133.085 55.0798L134.036 53.3202ZM123.462 43.3716C120.946 39.1096 119.681 34.3272 119.681 29H117.681C117.681 34.6594 119.029 39.7971 121.739 44.3884L123.462 43.3716ZM119.681 29C119.681 23.6727 120.946 18.9191 123.459 14.713L121.742 13.687C119.029 18.2275 117.681 23.3407 117.681 29H119.681ZM123.457 14.716C126.03 10.4458 129.55 7.10332 134.036 4.67982L133.085 2.92018C128.291 5.51001 124.505 9.10087 121.744 13.684L123.457 14.716ZM134.032 4.68207C138.567 2.25984 143.656 1.04 149.321 1.04V-0.960001C143.359 -0.960001 137.941 0.326824 133.09 2.91792L134.032 4.68207ZM149.321 1.04C154.985 1.04 160.046 2.25988 164.525 4.67982L165.476 2.92018C160.675 0.326786 155.283 -0.960001 149.321 -0.960001V1.04ZM164.525 4.67982C169.011 7.10332 172.532 10.4458 175.104 14.716L176.817 13.684C174.056 9.10087 170.27 5.51001 165.476 2.92018L164.525 4.67982ZM175.107 14.7206C177.671 18.9257 178.961 23.6765 178.961 29H180.961C180.961 23.3368 179.584 18.2209 176.814 13.6794L175.107 14.7206ZM178.961 29C178.961 34.3234 177.671 39.103 175.104 43.364L176.817 44.396C179.584 39.8037 180.961 34.6633 180.961 29H178.961ZM175.107 43.3594C172.535 47.577 169.014 50.895 164.525 53.3202L165.476 55.0798C170.267 52.4916 174.053 48.9297 176.814 44.4006L175.107 43.3594ZM164.525 53.3202C160.046 55.7401 154.985 56.96 149.321 56.96V58.96C155.283 58.96 160.675 57.6732 165.476 55.0798L164.525 53.3202ZM149.321 47.92C152.784 47.92 155.941 47.1362 158.769 45.5525L157.792 43.8075C155.287 45.2105 152.471 45.92 149.321 45.92V47.92ZM158.782 45.545C161.608 43.9063 163.817 41.6398 165.397 38.7613L163.644 37.7987C162.238 40.3602 160.287 42.3603 157.779 43.815L158.782 45.545ZM165.39 38.7743C167.031 35.8878 167.841 32.6208 167.841 29H165.841C165.841 32.3125 165.103 35.2322 163.651 37.7857L165.39 38.7743ZM167.841 29C167.841 25.3792 167.031 22.1122 165.39 19.2257L163.651 20.2143C165.103 22.7678 165.841 25.6875 165.841 29H167.841ZM165.397 19.2387C163.815 16.3572 161.602 14.1138 158.769 12.5275L157.792 14.2725C160.293 15.6729 162.239 17.6428 163.644 20.2013L165.397 19.2387ZM158.782 12.535C155.952 10.8935 152.79 10.08 149.321 10.08V12.08C152.464 12.08 155.276 12.8132 157.779 14.265L158.782 12.535ZM149.321 10.08C145.851 10.08 142.689 10.8935 139.859 12.535L140.862 14.265C143.366 12.8132 146.177 12.08 149.321 12.08V10.08ZM139.872 12.5275C137.042 14.1121 134.806 16.3513 133.171 19.2257L134.91 20.2143C136.369 17.6487 138.345 15.6746 140.849 14.2725L139.872 12.5275ZM133.164 19.2387C131.581 22.1229 130.801 25.3852 130.801 29H132.801C132.801 25.6815 133.514 22.7571 134.917 20.2013L133.164 19.2387ZM130.801 29C130.801 32.6148 131.581 35.8771 133.164 38.7613L134.917 37.7987C133.514 35.2429 132.801 32.3185 132.801 29H130.801ZM133.171 38.7743C134.804 41.6458 137.037 43.9081 139.859 45.545L140.862 43.815C138.351 42.3585 136.37 40.3542 134.91 37.7857L133.171 38.7743ZM139.872 45.5525C142.7 47.1362 145.857 47.92 149.321 47.92V45.92C146.171 45.92 143.355 45.2105 140.849 43.8075L139.872 45.5525ZM229.384 11.56V12.56H230.377L230.384 11.5676L229.384 11.56ZM202.744 11.56V10.56H201.743L201.744 11.5618L202.744 11.56ZM202.824 57V58H203.826L203.824 56.9982L202.824 57ZM189.944 57H188.944V58H189.944V57ZM189.944 0.999996V-3.8147e-06H188.944V0.999996H189.944ZM229.464 0.999996L230.464 1.00757L230.472 -3.8147e-06H229.464V0.999996ZM229.384 10.56H202.744V12.56H229.384V10.56ZM201.744 11.5618L201.824 57.0018L203.824 56.9982L203.744 11.5582L201.744 11.5618ZM202.824 56H189.944V58H202.824V56ZM190.944 57V0.999996H188.944V57H190.944ZM189.944 2H229.464V-3.8147e-06H189.944V2ZM228.464 0.99242L228.384 11.5524L230.384 11.5676L230.464 1.00757L228.464 0.99242Z" fill="#BBBBBB"/>
</svg>
