<svg width="402" height="58" viewBox="0 0 402 58" fill="none" xmlns="http://www.w3.org/2000/svg">
<path d="M22.64 34.44L23.4802 33.8977L23.1848 33.44H22.64V34.44ZM13.68 34.44V33.44H12.68V34.44H13.68ZM13.68 57V58H14.68V57H13.68ZM0.8 57H-0.2V58H0.8V57ZM0.8 0.999996V-3.8147e-06H-0.2V0.999996H0.8ZM13.68 0.999996H14.68V-3.8147e-06H13.68V0.999996ZM13.68 23.64H12.68V24.64H13.68V23.64ZM22.96 23.64V24.64H23.5026L23.7984 24.1851L22.96 23.64ZM37.68 0.999996V-3.8147e-06H37.1374L36.8416 0.454905L37.68 0.999996ZM51.36 0.999996L52.1879 1.5609L53.2454 -3.8147e-06H51.36V0.999996ZM33.04 28.04L32.2121 27.4791L31.8393 28.0293L32.2023 28.5861L33.04 28.04ZM51.92 57V58H53.7657L52.7577 56.4539L51.92 57ZM37.2 57L36.3598 57.5423L36.6552 58H37.2V57ZM22.64 33.44H13.68V35.44H22.64V33.44ZM12.68 34.44V57H14.68V34.44H12.68ZM13.68 56H0.8V58H13.68V56ZM1.8 57V0.999996H-0.2V57H1.8ZM0.8 2H13.68V-3.8147e-06H0.8V2ZM12.68 0.999996V23.64H14.68V0.999996H12.68ZM13.68 24.64H22.96V22.64H13.68V24.64ZM23.7984 24.1851L38.5184 1.54509L36.8416 0.454905L22.1216 23.0949L23.7984 24.1851ZM37.68 2H51.36V-3.8147e-06H37.68V2ZM50.5321 0.439095L32.2121 27.4791L33.8679 28.6009L52.1879 1.5609L50.5321 0.439095ZM32.2023 28.5861L51.0823 57.5461L52.7577 56.4539L33.8777 27.4939L32.2023 28.5861ZM51.92 56H37.2V58H51.92V56ZM38.0402 56.4577L23.4802 33.8977L21.7998 34.9823L36.3598 57.5423L38.0402 56.4577ZM94.8175 45L95.7417 44.618L95.4862 44H94.8175V45ZM68.8175 45V44H68.1488L67.8933 44.618L68.8175 45ZM63.8575 57V58H64.5262L64.7817 57.382L63.8575 57ZM50.5775 57L49.6641 56.5929L49.037 58H50.5775V57ZM75.5375 0.999996V-3.8147e-06H74.8884L74.6241 0.59289L75.5375 0.999996ZM88.3375 0.999996L89.2504 0.591803L88.9858 -3.8147e-06H88.3375V0.999996ZM113.378 57V58H114.92L114.29 56.5918L113.378 57ZM99.7775 57L98.8533 57.382L99.1088 58H99.7775V57ZM90.7375 35.16V36.16H92.2341L91.6614 34.7773L90.7375 35.16ZM81.8575 13.72L82.7814 13.3373L81.8575 11.1067L80.9336 13.3373L81.8575 13.72ZM72.9775 35.16L72.0536 34.7773L71.4809 36.16H72.9775V35.16ZM94.8175 44H68.8175V46H94.8175V44ZM67.8933 44.618L62.9333 56.618L64.7817 57.382L69.7417 45.382L67.8933 44.618ZM63.8575 56H50.5775V58H63.8575V56ZM51.4909 57.4071L76.4509 1.4071L74.6241 0.59289L49.6641 56.5929L51.4909 57.4071ZM75.5375 2H88.3375V-3.8147e-06H75.5375V2ZM87.4246 1.40819L112.465 57.4082L114.29 56.5918L89.2504 0.591803L87.4246 1.40819ZM113.378 56H99.7775V58H113.378V56ZM100.702 56.618L95.7417 44.618L93.8933 45.382L98.8533 57.382L100.702 56.618ZM91.6614 34.7773L82.7814 13.3373L80.9336 14.1027L89.8136 35.5427L91.6614 34.7773ZM80.9336 13.3373L72.0536 34.7773L73.9014 35.5427L82.7814 14.1027L80.9336 13.3373ZM72.9775 36.16H90.7375V34.16H72.9775V36.16ZM160.791 11.56V12.56H161.791V11.56H160.791ZM142.871 11.56V10.56H141.871V11.56H142.871ZM142.871 57V58H143.871V57H142.871ZM130.071 57H129.071V58H130.071V57ZM130.071 11.56H131.071V10.56H130.071V11.56ZM112.231 11.56H111.231V12.56H112.231V11.56ZM112.231 0.999996V-3.8147e-06H111.231V0.999996H112.231ZM160.791 0.999996H161.791V-3.8147e-06H160.791V0.999996ZM160.791 10.56H142.871V12.56H160.791V10.56ZM141.871 11.56V57H143.871V11.56H141.871ZM142.871 56H130.071V58H142.871V56ZM131.071 57V11.56H129.071V57H131.071ZM130.071 10.56H112.231V12.56H130.071V10.56ZM113.231 11.56V0.999996H111.231V11.56H113.231ZM112.231 2H160.791V-3.8147e-06H112.231V2ZM159.791 0.999996V11.56H161.791V0.999996H159.791ZM204.036 45L204.96 44.618L204.705 44H204.036V45ZM178.036 45V44H177.368L177.112 44.618L178.036 45ZM173.076 57V58H173.745L174 57.382L173.076 57ZM159.796 57L158.883 56.5929L158.256 58H159.796V57ZM184.756 0.999996V-3.8147e-06H184.107L183.843 0.59289L184.756 0.999996ZM197.556 0.999996L198.469 0.591803L198.205 -3.8147e-06H197.556V0.999996ZM222.596 57V58H224.139L223.509 56.5918L222.596 57ZM208.996 57L208.072 57.382L208.328 58H208.996V57ZM199.956 35.16V36.16H201.453L200.88 34.7773L199.956 35.16ZM191.076 13.72L192 13.3373L191.076 11.1067L190.152 13.3373L191.076 13.72ZM182.196 35.16L181.272 34.7773L180.7 36.16H182.196V35.16ZM204.036 44H178.036V46H204.036V44ZM177.112 44.618L172.152 56.618L174 57.382L178.96 45.382L177.112 44.618ZM173.076 56H159.796V58H173.076V56ZM160.71 57.4071L185.67 1.4071L183.843 0.59289L158.883 56.5929L160.71 57.4071ZM184.756 2H197.556V-3.8147e-06H184.756V2ZM196.643 1.40819L221.683 57.4082L223.509 56.5918L198.469 0.591803L196.643 1.40819ZM222.596 56H208.996V58H222.596V56ZM209.92 56.618L204.96 44.618L203.112 45.382L208.072 57.382L209.92 56.618ZM200.88 34.7773L192 13.3373L190.152 14.1027L199.032 35.5427L200.88 34.7773ZM190.152 13.3373L181.272 34.7773L183.12 35.5427L192 14.1027L190.152 13.3373ZM182.196 36.16H199.956V34.16H182.196V36.16ZM280.411 0.999996H281.411V-3.8147e-06H280.411V0.999996ZM280.411 57V58H281.411V57H280.411ZM267.611 57H266.611V58H267.611V57ZM267.611 11.56H268.611V10.56H267.611V11.56ZM248.411 11.56V10.56H247.445L247.412 11.5258L248.411 11.56ZM248.011 23.24L247.012 23.2058L247.012 23.2065L248.011 23.24ZM246.091 42.6L247.071 42.8023L247.071 42.8002L246.091 42.6ZM240.971 53.96L240.228 53.291L240.227 53.2919L240.971 53.96ZM224.651 57L223.654 56.9272L223.592 57.779L224.423 57.9737L224.651 57ZM225.451 46.04L225.745 45.0842L224.545 44.715L224.454 45.9672L225.451 46.04ZM234.251 40.92L235.199 41.2404L235.2 41.2362L234.251 40.92ZM236.571 23.72L237.57 23.7611L237.571 23.7552L236.571 23.72ZM237.371 0.999996V-3.8147e-06H236.406L236.372 0.964808L237.371 0.999996ZM279.411 0.999996V57H281.411V0.999996H279.411ZM280.411 56H267.611V58H280.411V56ZM268.611 57V11.56H266.611V57H268.611ZM267.611 10.56H248.411V12.56H267.611V10.56ZM247.412 11.5258L247.012 23.2058L249.011 23.2742L249.411 11.5942L247.412 11.5258ZM247.012 23.2065C246.746 31.1249 246.109 37.5165 245.111 42.3998L247.071 42.8002C248.1 37.7635 248.743 31.2484 249.011 23.2735L247.012 23.2065ZM245.112 42.3977C244.121 47.1963 242.471 50.7984 240.228 53.291L241.715 54.629C244.271 51.7882 246.035 47.8171 247.071 42.8023L245.112 42.3977ZM240.227 53.2919C238.11 55.6493 235.1 56.88 231.051 56.88V58.88C235.536 58.88 239.139 57.4973 241.715 54.6281L240.227 53.2919ZM231.051 56.88C229.394 56.88 227.342 56.6028 224.879 56.0263L224.423 57.9737C226.974 58.5706 229.188 58.88 231.051 58.88V56.88ZM225.649 57.0728L226.449 46.1128L224.454 45.9672L223.654 56.9272L225.649 57.0728ZM225.157 46.9958C225.961 47.2431 226.835 47.36 227.771 47.36V45.36C227.001 45.36 226.328 45.2636 225.745 45.0842L225.157 46.9958ZM227.771 47.36C229.529 47.36 231.076 46.8388 232.354 45.7659C233.616 44.7065 234.547 43.1674 235.199 41.2404L233.304 40.5996C232.729 42.2992 231.966 43.4802 231.068 44.2341C230.186 44.9746 229.107 45.36 227.771 45.36V47.36ZM235.2 41.2362C236.473 37.417 237.25 31.567 237.57 23.7611L235.572 23.6789C235.253 31.4463 234.483 37.063 233.303 40.6038L235.2 41.2362ZM237.571 23.7552L238.371 1.03518L236.372 0.964808L235.572 23.6848L237.571 23.7552ZM237.371 2H280.411V-3.8147e-06H237.371V2ZM305.358 54.2L304.882 55.0798L304.886 55.0821L305.358 54.2ZM294.397 43.88L293.536 44.3884L293.54 44.3945L293.544 44.4006L294.397 43.88ZM294.397 14.2L293.541 13.684L293.539 13.687L294.397 14.2ZM305.358 3.8L304.886 2.91791L304.882 2.92018L305.358 3.8ZM347.758 14.2L346.901 14.716L346.904 14.7206L347.758 14.2ZM347.758 43.88L348.611 44.4006L348.614 44.396L347.758 43.88ZM336.798 54.2L337.273 55.0798L336.798 54.2ZM330.078 44.68L330.566 45.5525L330.573 45.5488L330.579 45.545L330.078 44.68ZM336.318 38.28L335.448 37.7857L335.445 37.7922L335.441 37.7987L336.318 38.28ZM336.318 19.72L335.441 20.2013L335.445 20.2078L335.448 20.2143L336.318 19.72ZM330.078 13.4L329.576 14.265L329.582 14.2688L329.589 14.2725L330.078 13.4ZM312.158 13.4L312.646 14.2725L312.653 14.2688L312.659 14.265L312.158 13.4ZM305.837 19.72L304.968 19.2257L304.965 19.2322L304.961 19.2387L305.837 19.72ZM305.837 38.28L304.961 38.7613L304.965 38.7678L304.968 38.7743L305.837 38.28ZM312.158 44.68L311.656 45.545L311.662 45.5488L311.669 45.5525L312.158 44.68ZM321.117 56.96C315.453 56.96 310.364 55.7402 305.829 53.3179L304.886 55.0821C309.738 57.6732 315.155 58.96 321.117 58.96V56.96ZM305.833 53.3202C301.344 50.895 297.823 47.577 295.251 43.3594L293.544 44.4006C296.305 48.9297 300.091 52.4916 304.882 55.0798L305.833 53.3202ZM295.259 43.3716C292.742 39.1096 291.478 34.3272 291.478 29H289.478C289.478 34.6594 290.826 39.7971 293.536 44.3884L295.259 43.3716ZM291.478 29C291.478 23.6727 292.742 18.9191 295.256 14.713L293.539 13.687C290.826 18.2275 289.478 23.3407 289.478 29H291.478ZM295.254 14.716C297.827 10.4458 301.347 7.10332 305.833 4.67982L304.882 2.92018C300.088 5.51001 296.302 9.10087 293.541 13.684L295.254 14.716ZM305.829 4.68207C310.364 2.25984 315.453 1.04 321.117 1.04V-0.960001C315.155 -0.960001 309.738 0.326824 304.886 2.91792L305.829 4.68207ZM321.117 1.04C326.782 1.04 331.843 2.25988 336.322 4.67982L337.273 2.92018C332.472 0.326786 327.079 -0.960001 321.117 -0.960001V1.04ZM336.322 4.67982C340.808 7.10332 344.328 10.4458 346.901 14.716L348.614 13.684C345.853 9.10087 342.067 5.51001 337.273 2.92018L336.322 4.67982ZM346.904 14.7206C349.468 18.9257 350.758 23.6765 350.758 29H352.758C352.758 23.3368 351.381 18.2209 348.611 13.6794L346.904 14.7206ZM350.758 29C350.758 34.3234 349.468 39.103 346.901 43.364L348.614 44.396C351.381 39.8037 352.758 34.6633 352.758 29H350.758ZM346.904 43.3594C344.332 47.577 340.811 50.895 336.322 53.3202L337.273 55.0798C342.064 52.4916 345.85 48.9297 348.611 44.4006L346.904 43.3594ZM336.322 53.3202C331.843 55.7401 326.782 56.96 321.117 56.96V58.96C327.079 58.96 332.472 57.6732 337.273 55.0798L336.322 53.3202ZM321.117 47.92C324.581 47.92 327.738 47.1362 330.566 45.5525L329.589 43.8075C327.084 45.2105 324.267 45.92 321.117 45.92V47.92ZM330.579 45.545C333.405 43.9063 335.614 41.6398 337.194 38.7613L335.441 37.7987C334.035 40.3602 332.084 42.3603 329.576 43.815L330.579 45.545ZM337.187 38.7743C338.828 35.8878 339.638 32.6208 339.638 29H337.638C337.638 32.3125 336.9 35.2322 335.448 37.7857L337.187 38.7743ZM339.638 29C339.638 25.3792 338.828 22.1122 337.187 19.2257L335.448 20.2143C336.9 22.7678 337.638 25.6875 337.638 29H339.638ZM337.194 19.2387C335.612 16.3572 333.399 14.1138 330.566 12.5275L329.589 14.2725C332.09 15.6729 334.036 17.6428 335.441 20.2013L337.194 19.2387ZM330.579 12.535C327.749 10.8935 324.587 10.08 321.117 10.08V12.08C324.261 12.08 327.073 12.8132 329.576 14.265L330.579 12.535ZM321.117 10.08C317.648 10.08 314.486 10.8935 311.656 12.535L312.659 14.265C315.162 12.8132 317.974 12.08 321.117 12.08V10.08ZM311.669 12.5275C308.839 14.1121 306.603 16.3513 304.968 19.2257L306.707 20.2143C308.166 17.6487 310.142 15.6746 312.646 14.2725L311.669 12.5275ZM304.961 19.2387C303.377 22.1229 302.598 25.3852 302.598 29H304.598C304.598 25.6815 305.311 22.7571 306.714 20.2013L304.961 19.2387ZM302.598 29C302.598 32.6148 303.377 35.8771 304.961 38.7613L306.714 37.7987C305.311 35.2429 304.598 32.3185 304.598 29H302.598ZM304.968 38.7743C306.601 41.6458 308.834 43.9081 311.656 45.545L312.659 43.815C310.148 42.3585 308.167 40.3542 306.707 37.7857L304.968 38.7743ZM311.669 45.5525C314.497 47.1362 317.654 47.92 321.117 47.92V45.92C317.967 45.92 315.151 45.2105 312.646 43.8075L311.669 45.5525ZM401.181 11.56V12.56H402.174L402.181 11.5676L401.181 11.56ZM374.541 11.56V10.56H373.539L373.541 11.5618L374.541 11.56ZM374.621 57V58H375.623L375.621 56.9982L374.621 57ZM361.741 57H360.741V58H361.741V57ZM361.741 0.999996V-3.8147e-06H360.741V0.999996H361.741ZM401.261 0.999996L402.261 1.00757L402.269 -3.8147e-06H401.261V0.999996ZM401.181 10.56H374.541V12.56H401.181V10.56ZM373.541 11.5618L373.621 57.0018L375.621 56.9982L375.541 11.5582L373.541 11.5618ZM374.621 56H361.741V58H374.621V56ZM362.741 57V0.999996H360.741V57H362.741ZM361.741 2H401.261V-3.8147e-06H361.741V2ZM400.261 0.99242L400.181 11.5524L402.181 11.5676L402.261 1.00757L400.261 0.99242Z" fill="#BBBBBB"/>
</svg>
