<svg width="479" height="58" viewBox="0 0 479 58" fill="none" xmlns="http://www.w3.org/2000/svg">
<path d="M22.64 34.44L23.4802 33.8977L23.1848 33.44H22.64V34.44ZM13.68 34.44V33.44H12.68V34.44H13.68ZM13.68 57V58H14.68V57H13.68ZM0.8 57H-0.2V58H0.8V57ZM0.8 0.999996V-3.8147e-06H-0.2V0.999996H0.8ZM13.68 0.999996H14.68V-3.8147e-06H13.68V0.999996ZM13.68 23.64H12.68V24.64H13.68V23.64ZM22.96 23.64V24.64H23.5026L23.7984 24.1851L22.96 23.64ZM37.68 0.999996V-3.8147e-06H37.1374L36.8416 0.454905L37.68 0.999996ZM51.36 0.999996L52.1879 1.5609L53.2454 -3.8147e-06H51.36V0.999996ZM33.04 28.04L32.2121 27.4791L31.8393 28.0293L32.2023 28.5861L33.04 28.04ZM51.92 57V58H53.7657L52.7577 56.4539L51.92 57ZM37.2 57L36.3598 57.5423L36.6552 58H37.2V57ZM22.64 33.44H13.68V35.44H22.64V33.44ZM12.68 34.44V57H14.68V34.44H12.68ZM13.68 56H0.8V58H13.68V56ZM1.8 57V0.999996H-0.2V57H1.8ZM0.8 2H13.68V-3.8147e-06H0.8V2ZM12.68 0.999996V23.64H14.68V0.999996H12.68ZM13.68 24.64H22.96V22.64H13.68V24.64ZM23.7984 24.1851L38.5184 1.54509L36.8416 0.454905L22.1216 23.0949L23.7984 24.1851ZM37.68 2H51.36V-3.8147e-06H37.68V2ZM50.5321 0.439095L32.2121 27.4791L33.8679 28.6009L52.1879 1.5609L50.5321 0.439095ZM32.2023 28.5861L51.0823 57.5461L52.7577 56.4539L33.8777 27.4939L32.2023 28.5861ZM51.92 56H37.2V58H51.92V56ZM38.0402 56.4577L23.4802 33.8977L21.7998 34.9823L36.3598 57.5423L38.0402 56.4577ZM68.7169 54.2L68.2416 55.0798L68.2458 55.0821L68.7169 54.2ZM57.7569 43.88L56.8957 44.3884L56.8994 44.3945L56.9031 44.4006L57.7569 43.88ZM57.7569 14.2L56.9003 13.684L56.8985 13.687L57.7569 14.2ZM68.7169 3.8L68.2458 2.91791L68.2416 2.92018L68.7169 3.8ZM111.117 14.2L110.26 14.716L110.263 14.7206L111.117 14.2ZM111.117 43.88L111.971 44.4006L111.973 44.396L111.117 43.88ZM100.157 54.2L100.632 55.0798L100.157 54.2ZM93.4369 44.68L93.9255 45.5525L93.9321 45.5488L93.9386 45.545L93.4369 44.68ZM99.6769 38.28L98.8076 37.7857L98.8039 37.7922L98.8003 37.7987L99.6769 38.28ZM99.6769 19.72L98.8003 20.2013L98.8039 20.2078L98.8076 20.2143L99.6769 19.72ZM93.4369 13.4L92.9352 14.265L92.9417 14.2688L92.9483 14.2725L93.4369 13.4ZM75.5169 13.4L76.0055 14.2725L76.0121 14.2688L76.0186 14.265L75.5169 13.4ZM69.1969 19.72L68.3276 19.2257L68.3239 19.2322L68.3203 19.2387L69.1969 19.72ZM69.1969 38.28L68.3203 38.7613L68.3239 38.7678L68.3276 38.7743L69.1969 38.28ZM75.5169 44.68L75.0152 45.545L75.0217 45.5488L75.0283 45.5525L75.5169 44.68ZM84.4769 56.96C78.8123 56.96 73.7232 55.7402 69.188 53.3179L68.2458 55.0821C73.0972 57.6732 78.5148 58.96 84.4769 58.96V56.96ZM69.1922 53.3202C64.7031 50.895 61.1824 47.577 58.6107 43.3594L56.9031 44.4006C59.6647 48.9297 63.4507 52.4916 68.2416 55.0798L69.1922 53.3202ZM58.618 43.3716C56.1018 39.1096 54.8369 34.3272 54.8369 29H52.8369C52.8369 34.6594 54.1852 39.7971 56.8957 44.3884L58.618 43.3716ZM54.8369 29C54.8369 23.6727 56.1018 18.9191 58.6153 14.713L56.8985 13.687C54.1852 18.2275 52.8369 23.3407 52.8369 29H54.8369ZM58.6135 14.716C61.1859 10.4458 64.7061 7.10332 69.1922 4.67982L68.2416 2.92018C63.4476 5.51001 59.6612 9.10087 56.9003 13.684L58.6135 14.716ZM69.188 4.68207C73.7232 2.25984 78.8123 1.04 84.4769 1.04V-0.960001C78.5148 -0.960001 73.0972 0.326824 68.2458 2.91792L69.188 4.68207ZM84.4769 1.04C90.1416 1.04 95.2021 2.25988 99.6816 4.67982L100.632 2.92018C95.8316 0.326786 90.4388 -0.960001 84.4769 -0.960001V1.04ZM99.6816 4.67982C104.168 7.10332 107.688 10.4458 110.26 14.716L111.973 13.684C109.213 9.10087 105.426 5.51001 100.632 2.92018L99.6816 4.67982ZM110.263 14.7206C112.827 18.9257 114.117 23.6765 114.117 29H116.117C116.117 23.3368 114.74 18.2209 111.971 13.6794L110.263 14.7206ZM114.117 29C114.117 34.3234 112.827 39.103 110.26 43.364L111.973 44.396C114.74 39.8037 116.117 34.6633 116.117 29H114.117ZM110.263 43.3594C107.691 47.577 104.171 50.895 99.6816 53.3202L100.632 55.0798C105.423 52.4916 109.209 48.9297 111.971 44.4006L110.263 43.3594ZM99.6816 53.3202C95.2021 55.7401 90.1416 56.96 84.4769 56.96V58.96C90.4388 58.96 95.8316 57.6732 100.632 55.0798L99.6816 53.3202ZM84.4769 47.92C87.9402 47.92 91.0974 47.1362 93.9255 45.5525L92.9483 43.8075C90.443 45.2105 87.6269 45.92 84.4769 45.92V47.92ZM93.9386 45.545C96.7639 43.9063 98.9731 41.6398 100.553 38.7613L98.8003 37.7987C97.394 40.3602 95.4432 42.3603 92.9352 43.815L93.9386 45.545ZM100.546 38.7743C102.187 35.8878 102.997 32.6208 102.997 29H100.997C100.997 32.3125 100.26 35.2322 98.8076 37.7857L100.546 38.7743ZM102.997 29C102.997 25.3792 102.187 22.1122 100.546 19.2257L98.8076 20.2143C100.26 22.7678 100.997 25.6875 100.997 29H102.997ZM100.553 19.2387C98.9714 16.3572 96.7582 14.1138 93.9255 12.5275L92.9483 14.2725C95.4489 15.6729 97.3956 17.6428 98.8003 20.2013L100.553 19.2387ZM93.9386 12.535C91.1084 10.8935 87.9465 10.08 84.4769 10.08V12.08C87.6206 12.08 90.432 12.8132 92.9352 14.265L93.9386 12.535ZM84.4769 10.08C81.0072 10.08 77.8453 10.8935 75.0152 12.535L76.0186 14.265C78.5218 12.8132 81.3332 12.08 84.4769 12.08V10.08ZM75.0283 12.5275C72.1987 14.1121 69.9621 16.3513 68.3276 19.2257L70.0662 20.2143C71.525 17.6487 73.5017 15.6746 76.0055 14.2725L75.0283 12.5275ZM68.3203 19.2387C66.7368 22.1229 65.9569 25.3852 65.9569 29H67.9569C67.9569 25.6815 68.6702 22.7571 70.0735 20.2013L68.3203 19.2387ZM65.9569 29C65.9569 32.6148 66.7368 35.8771 68.3203 38.7613L70.0735 37.7987C68.6702 35.2429 67.9569 32.3185 67.9569 29H65.9569ZM68.3276 38.7743C69.9604 41.6458 72.1929 43.9081 75.0152 45.545L76.0186 43.815C73.5075 42.3585 71.5267 40.3542 70.0662 37.7857L68.3276 38.7743ZM75.0283 45.5525C77.8563 47.1362 81.0135 47.92 84.4769 47.92V45.92C81.3269 45.92 78.5108 45.2105 76.0055 43.8075L75.0283 45.5525ZM176.461 0.999996H177.461V-3.8147e-06H176.461V0.999996ZM176.461 57V58H177.461V57H176.461ZM163.501 57H162.501V58H163.501V57ZM163.501 34.04H164.501V33.04H163.501V34.04ZM138.061 34.04V33.04H137.061V34.04H138.061ZM138.061 57V58H139.061V57H138.061ZM125.101 57H124.101V58H125.101V57ZM125.101 0.999996V-3.8147e-06H124.101V0.999996H125.101ZM138.061 0.999996H139.061V-3.8147e-06H138.061V0.999996ZM138.061 23.08H137.061V24.08H138.061V23.08ZM163.501 23.08V24.08H164.501V23.08H163.501ZM163.501 0.999996V-3.8147e-06H162.501V0.999996H163.501ZM175.461 0.999996V57H177.461V0.999996H175.461ZM176.461 56H163.501V58H176.461V56ZM164.501 57V34.04H162.501V57H164.501ZM163.501 33.04H138.061V35.04H163.501V33.04ZM137.061 34.04V57H139.061V34.04H137.061ZM138.061 56H125.101V58H138.061V56ZM126.101 57V0.999996H124.101V57H126.101ZM125.101 2H138.061V-3.8147e-06H125.101V2ZM137.061 0.999996V23.08H139.061V0.999996H137.061ZM138.061 24.08H163.501V22.08H138.061V24.08ZM164.501 23.08V0.999996H162.501V23.08H164.501ZM163.501 2H176.461V-3.8147e-06H163.501V2ZM233.291 11.56V12.56H234.291V11.56H233.291ZM215.371 11.56V10.56H214.371V11.56H215.371ZM215.371 57V58H216.371V57H215.371ZM202.571 57H201.571V58H202.571V57ZM202.571 11.56H203.571V10.56H202.571V11.56ZM184.731 11.56H183.731V12.56H184.731V11.56ZM184.731 0.999996V-3.8147e-06H183.731V0.999996H184.731ZM233.291 0.999996H234.291V-3.8147e-06H233.291V0.999996ZM233.291 10.56H215.371V12.56H233.291V10.56ZM214.371 11.56V57H216.371V11.56H214.371ZM215.371 56H202.571V58H215.371V56ZM203.571 57V11.56H201.571V57H203.571ZM202.571 10.56H184.731V12.56H202.571V10.56ZM185.731 11.56V0.999996H183.731V11.56H185.731ZM184.731 2H233.291V-3.8147e-06H184.731V2ZM232.291 0.999996V11.56H234.291V0.999996H232.291ZM276.536 45L277.46 44.618L277.205 44H276.536V45ZM250.536 45V44H249.868L249.612 44.618L250.536 45ZM245.576 57V58H246.245L246.5 57.382L245.576 57ZM232.296 57L231.383 56.5929L230.756 58H232.296V57ZM257.256 0.999996V-3.8147e-06H256.607L256.343 0.59289L257.256 0.999996ZM270.056 0.999996L270.969 0.591803L270.705 -3.8147e-06H270.056V0.999996ZM295.096 57V58H296.639L296.009 56.5918L295.096 57ZM281.496 57L280.572 57.382L280.828 58H281.496V57ZM272.456 35.16V36.16H273.953L273.38 34.7773L272.456 35.16ZM263.576 13.72L264.5 13.3373L263.576 11.1067L262.652 13.3373L263.576 13.72ZM254.696 35.16L253.772 34.7773L253.2 36.16H254.696V35.16ZM276.536 44H250.536V46H276.536V44ZM249.612 44.618L244.652 56.618L246.5 57.382L251.46 45.382L249.612 44.618ZM245.576 56H232.296V58H245.576V56ZM233.21 57.4071L258.17 1.4071L256.343 0.59289L231.383 56.5929L233.21 57.4071ZM257.256 2H270.056V-3.8147e-06H257.256V2ZM269.143 1.40819L294.183 57.4082L296.009 56.5918L270.969 0.591803L269.143 1.40819ZM295.096 56H281.496V58H295.096V56ZM282.42 56.618L277.46 44.618L275.612 45.382L280.572 57.382L282.42 56.618ZM273.38 34.7773L264.5 13.3373L262.652 14.1027L271.532 35.5427L273.38 34.7773ZM262.652 13.3373L253.772 34.7773L255.62 35.5427L264.5 14.1027L262.652 13.3373ZM254.696 36.16H272.456V34.16H254.696V36.16ZM324.203 34.44L325.043 33.8977L324.747 33.44H324.203V34.44ZM315.242 34.44V33.44H314.242V34.44H315.242ZM315.242 57V58H316.242V57H315.242ZM302.362 57H301.362V58H302.362V57ZM302.362 0.999996V-3.8147e-06H301.362V0.999996H302.362ZM315.242 0.999996H316.242V-3.8147e-06H315.242V0.999996ZM315.242 23.64H314.242V24.64H315.242V23.64ZM324.522 23.64V24.64H325.065L325.361 24.1851L324.522 23.64ZM339.242 0.999996V-3.8147e-06H338.7L338.404 0.454905L339.242 0.999996ZM352.922 0.999996L353.75 1.5609L354.808 -3.8147e-06H352.922V0.999996ZM334.603 28.04L333.775 27.4791L333.402 28.0293L333.765 28.5861L334.603 28.04ZM353.483 57V58H355.328L354.32 56.4539L353.483 57ZM338.763 57L337.922 57.5423L338.218 58H338.763V57ZM324.203 33.44H315.242V35.44H324.203V33.44ZM314.242 34.44V57H316.242V34.44H314.242ZM315.242 56H302.362V58H315.242V56ZM303.362 57V0.999996H301.362V57H303.362ZM302.362 2H315.242V-3.8147e-06H302.362V2ZM314.242 0.999996V23.64H316.242V0.999996H314.242ZM315.242 24.64H324.522V22.64H315.242V24.64ZM325.361 24.1851L340.081 1.54509L338.404 0.454905L323.684 23.0949L325.361 24.1851ZM339.242 2H352.922V-3.8147e-06H339.242V2ZM352.095 0.439095L333.775 27.4791L335.43 28.6009L353.75 1.5609L352.095 0.439095ZM333.765 28.5861L352.645 57.5461L354.32 56.4539L335.44 27.4939L333.765 28.5861ZM353.483 56H338.763V58H353.483V56ZM339.603 56.4577L325.043 33.8977L323.362 34.9823L337.922 57.5423L339.603 56.4577ZM401.729 11.56V12.56H402.729V11.56H401.729ZM383.809 11.56V10.56H382.809V11.56H383.809ZM383.809 57V58H384.809V57H383.809ZM371.009 57H370.009V58H371.009V57ZM371.009 11.56H372.009V10.56H371.009V11.56ZM353.169 11.56H352.169V12.56H353.169V11.56ZM353.169 0.999996V-3.8147e-06H352.169V0.999996H353.169ZM401.729 0.999996H402.729V-3.8147e-06H401.729V0.999996ZM401.729 10.56H383.809V12.56H401.729V10.56ZM382.809 11.56V57H384.809V11.56H382.809ZM383.809 56H371.009V58H383.809V56ZM372.009 57V11.56H370.009V57H372.009ZM371.009 10.56H353.169V12.56H371.009V10.56ZM354.169 11.56V0.999996H352.169V11.56H354.169ZM353.169 2H401.729V-3.8147e-06H353.169V2ZM400.729 0.999996V11.56H402.729V0.999996H400.729ZM452.666 23.96L452.024 24.7264L452.029 24.731L452.666 23.96ZM452.106 52.04L452.743 52.8107L452.744 52.8099L452.106 52.04ZM409.866 57H408.866V58H409.866V57ZM409.866 0.999996V-3.8147e-06H408.866V0.999996H409.866ZM422.746 0.999996H423.746V-3.8147e-06H422.746V0.999996ZM422.746 19.4H421.746V20.4H422.746V19.4ZM442.266 44.92L441.614 44.1622L441.603 44.1714L442.266 44.92ZM422.746 29V28H421.746V29H422.746ZM422.746 47.4H421.746V48.4H422.746V47.4ZM465.306 0.999996V-3.8147e-06H464.306V0.999996H465.306ZM478.186 0.999996H479.186V-3.8147e-06H478.186V0.999996ZM478.186 57V58H479.186V57H478.186ZM465.306 57H464.306V58H465.306V57ZM436.986 20.4C443.68 20.4 448.642 21.8918 452.024 24.7264L453.309 23.1936C449.437 19.9482 443.946 18.4 436.986 18.4V20.4ZM452.029 24.731C455.423 27.5344 457.186 31.7232 457.186 37.48H459.186C459.186 31.2901 457.269 26.4656 453.303 23.189L452.029 24.731ZM457.186 37.48C457.186 43.5964 455.245 48.1393 451.468 51.2701L452.744 52.8099C457.074 49.2207 459.186 44.0569 459.186 37.48H457.186ZM451.469 51.2693C447.709 54.3775 442.314 56 435.146 56V58C442.592 58 448.503 56.3159 452.743 52.8107L451.469 51.2693ZM435.146 56H409.866V58H435.146V56ZM410.866 57V0.999996H408.866V57H410.866ZM409.866 2H422.746V-3.8147e-06H409.866V2ZM421.746 0.999996V19.4H423.746V0.999996H421.746ZM422.746 20.4H436.986V18.4H422.746V20.4ZM434.426 48.4C437.945 48.4 440.824 47.533 442.929 45.6686L441.603 44.1714C439.975 45.6137 437.628 46.4 434.426 46.4V48.4ZM442.919 45.6778C445.111 43.7897 446.146 41.0814 446.146 37.72H444.146C444.146 40.6519 443.261 42.7436 441.614 44.1622L442.919 45.6778ZM446.146 37.72C446.146 34.5983 445.177 32.0958 443.097 30.4042C441.057 28.7449 438.109 28 434.426 28V30C437.89 30 440.302 30.7085 441.835 31.9558C443.329 33.1709 444.146 35.0283 444.146 37.72H446.146ZM434.426 28H422.746V30H434.426V28ZM421.746 29V47.4H423.746V29H421.746ZM422.746 48.4H434.426V46.4H422.746V48.4ZM465.306 2H478.186V-3.8147e-06H465.306V2ZM477.186 0.999996V57H479.186V0.999996H477.186ZM478.186 56H465.306V58H478.186V56ZM466.306 57V0.999996H464.306V57H466.306Z" fill="#BBBBBB"/>
</svg>
