<svg width="538" height="59" viewBox="0 0 538 59" fill="none" xmlns="http://www.w3.org/2000/svg">
<path d="M0.960001 58H-0.0399995V59H0.960001V58ZM13.2 58V59H13.7064L14.0061 58.5918L13.2 58ZM39.92 21.6H40.92V18.5478L39.1139 21.0083L39.92 21.6ZM39.92 58H38.92V59H39.92V58ZM52.72 58V59H53.72V58H52.72ZM52.72 2H53.72V0.999996H52.72V2ZM40.56 2V0.999996H40.0529L39.7533 1.40909L40.56 2ZM13.84 38.48H12.84V41.5376L14.6467 39.0709L13.84 38.48ZM13.84 2H14.84V0.999996H13.84V2ZM0.960001 2V0.999996H-0.0399995V2H0.960001ZM0.960001 59H13.2V57H0.960001V59ZM14.0061 58.5918L40.7261 22.1917L39.1139 21.0083L12.3939 57.4082L14.0061 58.5918ZM38.92 21.6V58H40.92V21.6H38.92ZM39.92 59H52.72V57H39.92V59ZM53.72 58V2H51.72V58H53.72ZM52.72 0.999996H40.56V3H52.72V0.999996ZM39.7533 1.40909L13.0333 37.8891L14.6467 39.0709L41.3667 2.5909L39.7533 1.40909ZM14.84 38.48V2H12.84V38.48H14.84ZM13.84 0.999996H0.960001V3H13.84V0.999996ZM-0.0399995 2V58H1.96V2H-0.0399995ZM98.5031 28.8L98.1039 27.8832L95.7524 28.9072L98.1764 29.7451L98.5031 28.8ZM63.2231 5.36L62.7666 4.4703L61.9643 4.882L62.2911 5.72244L63.2231 5.36ZM67.1431 15.44L66.2111 15.8024L66.6302 16.8801L67.6361 16.31L67.1431 15.44ZM72.4231 24.4V23.4H71.4231V24.4H72.4231ZM72.4231 34.16H71.4231V35.16H72.4231V34.16ZM65.6231 43.84L66.1435 42.9861L65.1605 42.387L64.7048 43.4442L65.6231 43.84ZM61.6231 53.12L60.7048 52.7242L60.3519 53.5428L61.1248 53.987L61.6231 53.12ZM98.9024 29.7168C104.192 27.4133 107.583 22.755 107.583 16.88H105.583C105.583 21.885 102.734 25.8667 98.1039 27.8832L98.9024 29.7168ZM107.583 16.88C107.583 11.3733 104.529 7.06602 99.8914 4.18092C95.2744 1.30838 89.0388 -0.200003 82.4231 -0.200003V1.8C88.7675 1.8 94.6118 3.25161 98.8349 5.87907C103.038 8.49397 105.583 12.2267 105.583 16.88H107.583ZM82.4231 -0.200003C75.8777 -0.200003 68.9993 1.27192 62.7666 4.4703L63.6797 6.24969C69.6069 3.20807 76.1685 1.8 82.4231 1.8V-0.200003ZM62.2911 5.72244L66.2111 15.8024L68.0751 15.0776L64.1551 4.99755L62.2911 5.72244ZM67.6361 16.31C72.2782 13.6795 77.627 12.44 82.1831 12.44V10.44C77.2992 10.44 71.608 11.7605 66.6501 14.57L67.6361 16.31ZM82.1831 12.44C85.2367 12.44 87.8659 13.0229 89.6938 14.0764C91.4879 15.1104 92.4631 16.5553 92.4631 18.4H94.4631C94.4631 15.6847 92.9584 13.6496 90.6925 12.3436C88.4604 11.0571 85.4495 10.44 82.1831 10.44V12.44ZM92.4631 18.4C92.4631 19.9298 91.8483 21.1266 90.6923 21.9732C89.5002 22.8463 87.6535 23.4 85.1431 23.4V25.4C87.9127 25.4 90.226 24.7937 91.874 23.5868C93.558 22.3534 94.4631 20.5502 94.4631 18.4H92.4631ZM85.1431 23.4H72.4231V25.4H85.1431V23.4ZM71.4231 24.4V34.16H73.4231V24.4H71.4231ZM72.4231 35.16H86.1031V33.16H72.4231V35.16ZM86.1031 35.16C88.929 35.16 91.1373 35.6673 92.6054 36.5794C94.0159 37.4558 94.7831 38.7221 94.7831 40.48H96.7831C96.7831 37.9978 95.6303 36.1042 93.6609 34.8806C91.749 33.6927 89.1172 33.16 86.1031 33.16V35.16ZM94.7831 40.48C94.7831 42.6163 93.579 44.3059 91.3815 45.5136C89.1574 46.736 86.0002 47.4 82.4231 47.4V49.4C86.2061 49.4 89.7289 48.704 92.3448 47.2664C94.9873 45.8141 96.7831 43.5437 96.7831 40.48H94.7831ZM82.4231 47.4C77.1397 47.4 71.0852 45.9974 66.1435 42.9861L65.1028 44.6939C70.4011 47.9226 76.8266 49.4 82.4231 49.4V47.4ZM64.7048 43.4442L60.7048 52.7242L62.5415 53.5158L66.5415 44.2358L64.7048 43.4442ZM61.1248 53.987C68.2506 58.0823 76.3453 59.96 83.9431 59.96V57.96C76.6609 57.96 68.9156 56.1577 62.1214 52.253L61.1248 53.987ZM83.9431 59.96C90.7971 59.96 97.2335 58.4123 101.992 55.4488C106.772 52.4716 109.903 48.0232 109.903 42.32H107.903C107.903 47.1768 105.274 51.0484 100.934 53.7512C96.5727 56.4677 90.5292 57.96 83.9431 57.96V59.96ZM109.903 42.32C109.903 35.5096 105.649 30.212 98.8298 27.8549L98.1764 29.7451C104.317 31.868 107.903 36.4904 107.903 42.32H109.903ZM119.163 58H118.163V59H119.163V58ZM132.043 23.84H131.043V24.84H132.043V23.84ZM132.043 12.32V11.32H131.043V12.32H132.043ZM164.363 12.32V13.32H165.363V12.32H164.363ZM164.363 2H165.363V0.999996H164.363V2ZM119.163 2V0.999996H118.163V2H119.163ZM132.043 48.4H131.043V49.4H132.043V48.4ZM132.043 33.36V32.36H131.043V33.36H132.043ZM119.163 59H145.723V57H119.163V59ZM145.723 59C153.056 59 158.963 57.3522 163.059 54.1476C167.19 50.916 169.363 46.1899 169.363 40.32H167.363C167.363 45.65 165.417 49.764 161.827 52.5724C158.203 55.4078 152.79 57 145.723 57V59ZM169.363 40.32C169.363 34.7144 167.447 30.2801 163.654 27.2761C159.9 24.3027 154.444 22.84 147.563 22.84V24.84C154.202 24.84 159.146 26.2573 162.412 28.8439C165.639 31.3999 167.363 35.2056 167.363 40.32H169.363ZM147.563 22.84H132.043V24.84H147.563V22.84ZM133.043 23.84V12.32H131.043V23.84H133.043ZM132.043 13.32H164.363V11.32H132.043V13.32ZM165.363 12.32V2H163.363V12.32H165.363ZM164.363 0.999996H119.163V3H164.363V0.999996ZM118.163 2V58H120.163V2H118.163ZM133.043 48.4V33.36H131.043V48.4H133.043ZM132.043 34.36H145.003V32.36H132.043V34.36ZM145.003 34.36C148.317 34.36 150.629 34.9504 152.092 35.9941C153.492 36.9925 154.243 38.5001 154.243 40.72H156.243C156.243 37.9799 155.274 35.8075 153.254 34.3659C151.297 32.9696 148.49 32.36 145.003 32.36V34.36ZM154.243 40.72C154.243 42.9746 153.454 44.5753 152.015 45.6483C150.528 46.7576 148.215 47.4 145.003 47.4V49.4C148.431 49.4 151.239 48.7224 153.211 47.2517C155.232 45.7447 156.243 43.5054 156.243 40.72H154.243ZM145.003 47.4H132.043V49.4H145.003V47.4ZM178.226 2V0.999996H177.226V2H178.226ZM178.226 58H177.226V59H178.226V58ZM191.186 58V59H192.186V58H191.186ZM191.186 42.56V41.56H190.186V42.56H191.186ZM191.186 32H190.186V33H191.186V32ZM191.186 12.56V11.56H190.186V12.56H191.186ZM202.466 0.999996H178.226V3H202.466V0.999996ZM177.226 2V58H179.226V2H177.226ZM178.226 59H191.186V57H178.226V59ZM192.186 58V42.56H190.186V58H192.186ZM191.186 43.56H202.466V41.56H191.186V43.56ZM202.466 43.56C210.109 43.56 216.438 41.5778 220.875 37.889C225.333 34.1826 227.786 28.8306 227.786 22.32H225.786C225.786 28.2894 223.558 33.0574 219.596 36.351C215.614 39.6622 209.783 41.56 202.466 41.56V43.56ZM227.786 22.32C227.786 15.7714 225.335 10.3992 220.876 6.68192C216.438 2.98216 210.109 0.999996 202.466 0.999996V3C209.783 3 215.613 4.89783 219.595 8.21807C223.557 11.5208 225.786 16.3086 225.786 22.32H227.786ZM201.746 31H191.186V33H201.746V31ZM192.186 32V12.56H190.186V32H192.186ZM191.186 13.56H201.746V11.56H191.186V13.56ZM201.746 13.56C205.572 13.56 208.288 14.4315 210.033 15.896C211.75 17.3368 212.666 19.4686 212.666 22.32H214.666C214.666 19.0114 213.582 16.2632 211.318 14.364C209.084 12.4885 205.839 11.56 201.746 11.56V13.56ZM212.666 22.32C212.666 25.1274 211.752 27.2396 210.035 28.6721C208.289 30.1285 205.572 31 201.746 31V33C205.84 33 209.082 32.0715 211.316 30.2079C213.579 28.3204 214.666 25.5926 214.666 22.32H212.666ZM275.402 58L274.478 58.382L274.734 59H275.402V58ZM289.003 58V59H290.545L289.915 57.5918L289.003 58ZM263.962 2L264.875 1.5918L264.611 0.999996H263.962V2ZM251.163 2V0.999996H250.513L250.249 1.59289L251.163 2ZM226.202 58L225.289 57.5929L224.662 59H226.202V58ZM239.482 58V59H240.151L240.407 58.382L239.482 58ZM244.443 46V45H243.774L243.518 45.618L244.443 46ZM270.443 46L271.367 45.618L271.111 45H270.443V46ZM248.603 36.16L247.679 35.7773L247.106 37.16H248.603V36.16ZM257.483 14.72L258.406 14.3373L257.483 12.1067L256.559 14.3373L257.483 14.72ZM266.363 36.16V37.16H267.859L267.286 35.7773L266.363 36.16ZM275.402 59H289.003V57H275.402V59ZM289.915 57.5918L264.875 1.5918L263.05 2.40819L288.09 58.4082L289.915 57.5918ZM263.962 0.999996H251.163V3H263.962V0.999996ZM250.249 1.59289L225.289 57.5929L227.116 58.4071L252.076 2.4071L250.249 1.59289ZM226.202 59H239.482V57H226.202V59ZM240.407 58.382L245.367 46.382L243.518 45.618L238.558 57.618L240.407 58.382ZM244.443 47H270.443V45H244.443V47ZM269.518 46.382L274.478 58.382L276.327 57.618L271.367 45.618L269.518 46.382ZM249.526 36.5427L258.406 15.1027L256.559 14.3373L247.679 35.7773L249.526 36.5427ZM256.559 15.1027L265.439 36.5427L267.286 35.7773L258.406 14.3373L256.559 15.1027ZM266.363 35.16H248.603V37.16H266.363V35.16ZM334.829 2V0.999996H333.829V2H334.829ZM334.829 24.08V25.08H335.829V24.08H334.829ZM309.389 24.08H308.389V25.08H309.389V24.08ZM309.389 2H310.389V0.999996H309.389V2ZM296.429 2V0.999996H295.429V2H296.429ZM296.429 58H295.429V59H296.429V58ZM309.389 58V59H310.389V58H309.389ZM309.389 35.04V34.04H308.389V35.04H309.389ZM334.829 35.04H335.829V34.04H334.829V35.04ZM334.829 58H333.829V59H334.829V58ZM347.789 58V59H348.789V58H347.789ZM347.789 2H348.789V0.999996H347.789V2ZM333.829 2V24.08H335.829V2H333.829ZM334.829 23.08H309.389V25.08H334.829V23.08ZM310.389 24.08V2H308.389V24.08H310.389ZM309.389 0.999996H296.429V3H309.389V0.999996ZM295.429 2V58H297.429V2H295.429ZM296.429 59H309.389V57H296.429V59ZM310.389 58V35.04H308.389V58H310.389ZM309.389 36.04H334.829V34.04H309.389V36.04ZM333.829 35.04V58H335.829V35.04H333.829ZM334.829 59H347.789V57H334.829V59ZM348.789 58V2H346.789V58H348.789ZM347.789 0.999996H334.829V3H347.789V0.999996ZM400.219 2V0.999996H399.219V2H400.219ZM400.219 24.08V25.08H401.219V24.08H400.219ZM374.779 24.08H373.779V25.08H374.779V24.08ZM374.779 2H375.779V0.999996H374.779V2ZM361.819 2V0.999996H360.819V2H361.819ZM361.819 58H360.819V59H361.819V58ZM374.779 58V59H375.779V58H374.779ZM374.779 35.04V34.04H373.779V35.04H374.779ZM400.219 35.04H401.219V34.04H400.219V35.04ZM400.219 58H399.219V59H400.219V58ZM413.179 58V59H414.179V58H413.179ZM413.179 2H414.179V0.999996H413.179V2ZM399.219 2V24.08H401.219V2H399.219ZM400.219 23.08H374.779V25.08H400.219V23.08ZM375.779 24.08V2H373.779V24.08H375.779ZM374.779 0.999996H361.819V3H374.779V0.999996ZM360.819 2V58H362.819V2H360.819ZM361.819 59H374.779V57H361.819V59ZM375.779 58V35.04H373.779V58H375.779ZM374.779 36.04H400.219V34.04H374.779V36.04ZM399.219 35.04V58H401.219V35.04H399.219ZM400.219 59H413.179V57H400.219V59ZM414.179 58V2H412.179V58H414.179ZM413.179 0.999996H400.219V3H413.179V0.999996ZM453.93 59.96C472.026 59.96 485.57 47.3266 485.57 30H483.57C483.57 46.1134 471.034 57.96 453.93 57.96V59.96ZM485.57 30C485.57 12.6734 472.026 0.039999 453.93 0.039999V2.04C471.034 2.04 483.57 13.8866 483.57 30H485.57ZM453.93 0.039999C435.75 0.039999 422.29 12.7569 422.29 30H424.29C424.29 13.9631 436.75 2.04 453.93 2.04V0.039999ZM422.29 30C422.29 47.2431 435.75 59.96 453.93 59.96V57.96C436.75 57.96 424.29 46.0369 424.29 30H422.29ZM453.93 46.92C444.488 46.92 437.41 40.0937 437.41 30H435.41C435.41 41.1863 443.372 48.92 453.93 48.92V46.92ZM437.41 30C437.41 19.9063 444.488 13.08 453.93 13.08V11.08C443.372 11.08 435.41 18.8137 435.41 30H437.41ZM453.93 13.08C463.372 13.08 470.45 19.9063 470.45 30H472.45C472.45 18.8137 464.488 11.08 453.93 11.08V13.08ZM470.45 30C470.45 40.0937 463.372 46.92 453.93 46.92V48.92C464.488 48.92 472.45 41.1863 472.45 30H470.45ZM507.434 47.6H506.434V48.6H507.434V47.6ZM507.434 34.64V33.64H506.434V34.64H507.434ZM533.434 34.64V35.64H534.434V34.64H533.434ZM533.434 24.56H534.434V23.56H533.434V24.56ZM507.434 24.56H506.434V25.56H507.434V24.56ZM507.434 12.4V11.4H506.434V12.4H507.434ZM536.874 12.4V13.4H537.874V12.4H536.874ZM536.874 2H537.874V0.999996H536.874V2ZM494.554 2V0.999996H493.554V2H494.554ZM494.554 58H493.554V59H494.554V58ZM537.914 58V59H538.914V58H537.914ZM537.914 47.6H538.914V46.6H537.914V47.6ZM508.434 47.6V34.64H506.434V47.6H508.434ZM507.434 35.64H533.434V33.64H507.434V35.64ZM534.434 34.64V24.56H532.434V34.64H534.434ZM533.434 23.56H507.434V25.56H533.434V23.56ZM508.434 24.56V12.4H506.434V24.56H508.434ZM507.434 13.4H536.874V11.4H507.434V13.4ZM537.874 12.4V2H535.874V12.4H537.874ZM536.874 0.999996H494.554V3H536.874V0.999996ZM493.554 2V58H495.554V2H493.554ZM494.554 59H537.914V57H494.554V59ZM538.914 58V47.6H536.914V58H538.914ZM537.914 46.6H507.434V48.6H537.914V46.6Z" fill="#BBBBBB"/>
</svg>
