<svg width="584" height="58" viewBox="0 0 584 58" fill="none" xmlns="http://www.w3.org/2000/svg">
<path d="M14.92 54.2L14.4447 55.0798L14.4489 55.0821L14.92 54.2ZM3.96 43.88L3.09887 44.3884L3.10249 44.3945L3.1062 44.4006L3.96 43.88ZM3.96 14.2L3.10341 13.684L3.10158 13.687L3.96 14.2ZM14.92 3.8L14.4489 2.91791L14.4447 2.92018L14.92 3.8ZM57.32 14.2L56.4634 14.716L56.4662 14.7206L57.32 14.2ZM57.32 43.88L58.1738 44.4006L58.1766 44.396L57.32 43.88ZM46.36 54.2L46.8353 55.0798L46.36 54.2ZM39.64 44.68L40.1286 45.5525L40.1352 45.5488L40.1417 45.545L39.64 44.68ZM45.88 38.28L45.0107 37.7857L45.007 37.7922L45.0034 37.7987L45.88 38.28ZM45.88 19.72L45.0034 20.2013L45.007 20.2078L45.0107 20.2143L45.88 19.72ZM39.64 13.4L39.1383 14.265L39.1448 14.2688L39.1514 14.2725L39.64 13.4ZM21.72 13.4L22.2086 14.2725L22.2152 14.2688L22.2217 14.265L21.72 13.4ZM15.4 19.72L14.5307 19.2257L14.527 19.2322L14.5234 19.2387L15.4 19.72ZM15.4 38.28L14.5234 38.7613L14.527 38.7678L14.5307 38.7743L15.4 38.28ZM21.72 44.68L21.2183 45.545L21.2248 45.5488L21.2314 45.5525L21.72 44.68ZM30.68 56.96C25.0155 56.96 19.9264 55.7402 15.3911 53.3179L14.4489 55.0821C19.3003 57.6732 24.7179 58.96 30.68 58.96V56.96ZM15.3953 53.3202C10.9062 50.895 7.3855 47.577 4.8138 43.3594L3.1062 44.4006C5.86783 48.9297 9.65379 52.4916 14.4447 55.0798L15.3953 53.3202ZM4.82113 43.3716C2.30498 39.1096 1.04 34.3272 1.04 29H-0.96C-0.96 34.6594 0.388359 39.7971 3.09887 44.3884L4.82113 43.3716ZM1.04 29C1.04 23.6727 2.30497 18.9191 4.81842 14.713L3.10158 13.687C0.38836 18.2275 -0.96 23.3407 -0.96 29H1.04ZM4.81658 14.716C7.389 10.4458 10.9093 7.10332 15.3953 4.67982L14.4447 2.92018C9.65075 5.51001 5.86433 9.10087 3.10342 13.684L4.81658 14.716ZM15.3911 4.68207C19.9264 2.25984 25.0155 1.04 30.68 1.04V-0.960001C24.7179 -0.960001 19.3003 0.326824 14.4489 2.91792L15.3911 4.68207ZM30.68 1.04C36.3447 1.04 41.4052 2.25988 45.8847 4.67982L46.8353 2.92018C42.0348 0.326786 36.642 -0.960001 30.68 -0.960001V1.04ZM45.8847 4.67982C50.3708 7.10332 53.891 10.4458 56.4634 14.716L58.1766 13.684C55.4157 9.10087 51.6293 5.51001 46.8353 2.92018L45.8847 4.67982ZM56.4662 14.7206C59.0303 18.9257 60.32 23.6765 60.32 29H62.32C62.32 23.3368 60.943 18.2209 58.1738 13.6794L56.4662 14.7206ZM60.32 29C60.32 34.3234 59.0303 39.103 56.4634 43.364L58.1766 44.396C60.9431 39.8037 62.32 34.6633 62.32 29H60.32ZM56.4662 43.3594C53.8945 47.577 50.3738 50.895 45.8847 53.3202L46.8353 55.0798C51.6262 52.4916 55.4122 48.9297 58.1738 44.4006L56.4662 43.3594ZM45.8847 53.3202C41.4052 55.7401 36.3447 56.96 30.68 56.96V58.96C36.642 58.96 42.0348 57.6732 46.8353 55.0798L45.8847 53.3202ZM30.68 47.92C34.1433 47.92 37.3006 47.1362 40.1286 45.5525L39.1514 43.8075C36.6461 45.2105 33.83 45.92 30.68 45.92V47.92ZM40.1417 45.545C42.9671 43.9063 45.1762 41.6398 46.7566 38.7613L45.0034 37.7987C43.5971 40.3602 41.6463 42.3603 39.1383 43.815L40.1417 45.545ZM46.7493 38.7743C48.3906 35.8878 49.2 32.6208 49.2 29H47.2C47.2 32.3125 46.4627 35.2322 45.0107 37.7857L46.7493 38.7743ZM49.2 29C49.2 25.3792 48.3906 22.1122 46.7493 19.2257L45.0107 20.2143C46.4627 22.7678 47.2 25.6875 47.2 29H49.2ZM46.7566 19.2387C45.1746 16.3572 42.9613 14.1138 40.1286 12.5275L39.1514 14.2725C41.652 15.6729 43.5988 17.6428 45.0034 20.2013L46.7566 19.2387ZM40.1417 12.535C37.3116 10.8935 34.1496 10.08 30.68 10.08V12.08C33.8237 12.08 36.6351 12.8132 39.1383 14.265L40.1417 12.535ZM30.68 10.08C27.2104 10.08 24.0484 10.8935 21.2183 12.535L22.2217 14.265C24.7249 12.8132 27.5363 12.08 30.68 12.08V10.08ZM21.2314 12.5275C18.4018 14.1121 16.1652 16.3513 14.5307 19.2257L16.2693 20.2143C17.7281 17.6487 19.7048 15.6746 22.2086 14.2725L21.2314 12.5275ZM14.5234 19.2387C12.94 22.1229 12.16 25.3852 12.16 29H14.16C14.16 25.6815 14.8734 22.7571 16.2766 20.2013L14.5234 19.2387ZM12.16 29C12.16 32.6148 12.94 35.8771 14.5234 38.7613L16.2766 37.7987C14.8734 35.2429 14.16 32.3185 14.16 29H12.16ZM14.5307 38.7743C16.1635 41.6458 18.396 43.9081 21.2183 45.545L22.2217 43.815C19.7106 42.3585 17.7298 40.3542 16.2693 37.7857L14.5307 38.7743ZM21.2314 45.5525C24.0594 47.1362 27.2167 47.92 30.68 47.92V45.92C27.53 45.92 24.7139 45.2105 22.2086 43.8075L21.2314 45.5525ZM145.224 0.999996H146.224V-3.8147e-06H145.224V0.999996ZM145.224 57V58H146.224V57H145.224ZM71.3037 57H70.3037V58H71.3037V57ZM71.3037 0.999996V-3.8147e-06H70.3037V0.999996H71.3037ZM84.1838 0.999996H85.1838V-3.8147e-06H84.1838V0.999996ZM84.1838 46.44H83.1838V47.44H84.1838V46.44ZM101.864 46.44V47.44H102.864V46.44H101.864ZM101.864 0.999996V-3.8147e-06H100.864V0.999996H101.864ZM114.744 0.999996H115.744V-3.8147e-06H114.744V0.999996ZM114.744 46.44H113.744V47.44H114.744V46.44ZM132.344 46.44V47.44H133.344V46.44H132.344ZM132.344 0.999996V-3.8147e-06H131.344V0.999996H132.344ZM144.224 0.999996V57H146.224V0.999996H144.224ZM145.224 56H71.3037V58H145.224V56ZM72.3037 57V0.999996H70.3037V57H72.3037ZM71.3037 2H84.1838V-3.8147e-06H71.3037V2ZM83.1838 0.999996V46.44H85.1838V0.999996H83.1838ZM84.1838 47.44H101.864V45.44H84.1838V47.44ZM102.864 46.44V0.999996H100.864V46.44H102.864ZM101.864 2H114.744V-3.8147e-06H101.864V2ZM113.744 0.999996V46.44H115.744V0.999996H113.744ZM114.744 47.44H132.344V45.44H114.744V47.44ZM133.344 46.44V0.999996H131.344V46.44H133.344ZM132.344 2H145.224V-3.8147e-06H132.344V2ZM159.116 0.999996V-3.8147e-06H158.116V0.999996H159.116ZM171.996 0.999996H172.996V-3.8147e-06H171.996V0.999996ZM171.996 37.48H170.996V40.5376L172.803 38.0709L171.996 37.48ZM198.716 0.999996V-3.8147e-06H198.209L197.91 0.409092L198.716 0.999996ZM210.876 0.999996H211.876V-3.8147e-06H210.876V0.999996ZM210.876 57V58H211.876V57H210.876ZM198.076 57H197.076V58H198.076V57ZM198.076 20.6H199.076V17.5478L197.27 20.0083L198.076 20.6ZM171.356 57V58H171.863L172.162 57.5918L171.356 57ZM159.116 57H158.116V58H159.116V57ZM159.116 2H171.996V-3.8147e-06H159.116V2ZM170.996 0.999996V37.48H172.996V0.999996H170.996ZM172.803 38.0709L199.523 1.5909L197.91 0.409092L171.19 36.8891L172.803 38.0709ZM198.716 2H210.876V-3.8147e-06H198.716V2ZM209.876 0.999996V57H211.876V0.999996H209.876ZM210.876 56H198.076V58H210.876V56ZM199.076 57V20.6H197.076V57H199.076ZM197.27 20.0083L170.55 56.4082L172.162 57.5918L198.882 21.1917L197.27 20.0083ZM171.356 56H159.116V58H171.356V56ZM160.116 57V0.999996H158.116V57H160.116ZM224.819 0.999996V-3.8147e-06H223.819V0.999996H224.819ZM270.019 0.999996H271.019V-3.8147e-06H270.019V0.999996ZM270.019 11.32V12.32H271.019V11.32H270.019ZM237.699 11.32V10.32H236.699V11.32H237.699ZM237.699 22.84H236.699V23.84H237.699V22.84ZM268.659 27.08L268.033 27.8597L268.039 27.8643L268.659 27.08ZM224.819 57H223.819V58H224.819V57ZM258.259 45.48L258.848 46.2887L258.855 46.283L258.863 46.2771L258.259 45.48ZM237.699 32.36V31.36H236.699V32.36H237.699ZM237.699 47.4H236.699V48.4H237.699V47.4ZM224.819 2H270.019V-3.8147e-06H224.819V2ZM269.019 0.999996V11.32H271.019V0.999996H269.019ZM270.019 10.32H237.699V12.32H270.019V10.32ZM236.699 11.32V22.84H238.699V11.32H236.699ZM237.699 23.84H253.219V21.84H237.699V23.84ZM253.219 23.84C259.874 23.84 264.76 25.2316 268.033 27.8597L269.286 26.3003C265.518 23.2751 260.111 21.84 253.219 21.84V23.84ZM268.039 27.8643C271.33 30.4677 273.019 34.2339 273.019 39.32H275.019C275.019 33.7395 273.135 29.3456 269.28 26.2957L268.039 27.8643ZM273.019 39.32C273.019 44.6536 271.157 48.693 267.482 51.5729L268.716 53.1471C272.935 49.8403 275.019 45.1864 275.019 39.32H273.019ZM267.482 51.5729C263.774 54.4795 258.45 56 251.379 56V58C258.708 58 264.531 56.4272 268.716 53.1471L267.482 51.5729ZM251.379 56H224.819V58H251.379V56ZM225.819 57V0.999996H223.819V57H225.819ZM250.659 48.4C254.074 48.4 256.849 47.7425 258.848 46.2887L257.671 44.6713C256.15 45.7775 253.858 46.4 250.659 46.4V48.4ZM258.863 46.2771C260.909 44.7273 261.899 42.4914 261.899 39.72H259.899C259.899 41.9619 259.13 43.566 257.656 44.6829L258.863 46.2771ZM261.899 39.72C261.899 37.0063 260.937 34.8358 258.923 33.388C256.97 31.9841 254.162 31.36 250.659 31.36V33.36C253.983 33.36 256.296 33.9626 257.756 35.012C259.155 36.0176 259.899 37.527 259.899 39.72H261.899ZM250.659 31.36H237.699V33.36H250.659V31.36ZM236.699 32.36V47.4H238.699V32.36H236.699ZM237.699 48.4H250.659V46.4H237.699V48.4ZM305.562 34.44L306.402 33.8977L306.107 33.44H305.562V34.44ZM296.602 34.44V33.44H295.602V34.44H296.602ZM296.602 57V58H297.602V57H296.602ZM283.722 57H282.722V58H283.722V57ZM283.722 0.999996V-3.8147e-06H282.722V0.999996H283.722ZM296.602 0.999996H297.602V-3.8147e-06H296.602V0.999996ZM296.602 23.64H295.602V24.64H296.602V23.64ZM305.882 23.64V24.64H306.424L306.72 24.1851L305.882 23.64ZM320.602 0.999996V-3.8147e-06H320.059L319.763 0.454905L320.602 0.999996ZM334.282 0.999996L335.11 1.5609L336.167 -3.8147e-06H334.282V0.999996ZM315.962 28.04L315.134 27.4791L314.761 28.0293L315.124 28.5861L315.962 28.04ZM334.842 57V58H336.688L335.68 56.4539L334.842 57ZM320.122 57L319.282 57.5423L319.577 58H320.122V57ZM305.562 33.44H296.602V35.44H305.562V33.44ZM295.602 34.44V57H297.602V34.44H295.602ZM296.602 56H283.722V58H296.602V56ZM284.722 57V0.999996H282.722V57H284.722ZM283.722 2H296.602V-3.8147e-06H283.722V2ZM295.602 0.999996V23.64H297.602V0.999996H295.602ZM296.602 24.64H305.882V22.64H296.602V24.64ZM306.72 24.1851L321.44 1.54509L319.763 0.454905L305.043 23.0949L306.72 24.1851ZM320.602 2H334.282V-3.8147e-06H320.602V2ZM333.454 0.439095L315.134 27.4791L316.79 28.6009L335.11 1.5609L333.454 0.439095ZM315.124 28.5861L334.004 57.5461L335.68 56.4539L316.8 27.4939L315.124 28.5861ZM334.842 56H320.122V58H334.842V56ZM320.962 56.4577L306.402 33.8977L304.722 34.9823L319.282 57.5423L320.962 56.4577ZM377.739 45L378.664 44.618L378.408 44H377.739V45ZM351.739 45V44H351.071L350.815 44.618L351.739 45ZM346.779 57V58H347.448L347.704 57.382L346.779 57ZM333.499 57L332.586 56.5929L331.959 58H333.499V57ZM358.459 0.999996V-3.8147e-06H357.81L357.546 0.59289L358.459 0.999996ZM371.259 0.999996L372.172 0.591803L371.908 -3.8147e-06H371.259V0.999996ZM396.299 57V58H397.842L397.212 56.5918L396.299 57ZM382.699 57L381.775 57.382L382.031 58H382.699V57ZM373.659 35.16V36.16H375.156L374.583 34.7773L373.659 35.16ZM364.779 13.72L365.703 13.3373L364.779 11.1067L363.855 13.3373L364.779 13.72ZM355.899 35.16L354.975 34.7773L354.403 36.16H355.899V35.16ZM377.739 44H351.739V46H377.739V44ZM350.815 44.618L345.855 56.618L347.704 57.382L352.664 45.382L350.815 44.618ZM346.779 56H333.499V58H346.779V56ZM334.413 57.4071L359.373 1.4071L357.546 0.59289L332.586 56.5929L334.413 57.4071ZM358.459 2H371.259V-3.8147e-06H358.459V2ZM370.346 1.40819L395.386 57.4082L397.212 56.5918L372.172 0.591803L370.346 1.40819ZM396.299 56H382.699V58H396.299V56ZM383.624 56.618L378.664 44.618L376.815 45.382L381.775 57.382L383.624 56.618ZM374.583 34.7773L365.703 13.3373L363.855 14.1027L372.735 35.5427L374.583 34.7773ZM363.855 13.3373L354.975 34.7773L356.823 35.5427L365.703 14.1027L363.855 13.3373ZM355.899 36.16H373.659V34.16H355.899V36.16ZM473.822 45.24V46.24H474.822V45.24H473.822ZM464.702 45.24V44.24H463.702V45.24H464.702ZM464.702 57V58H465.702V57H464.702ZM452.062 57H451.062V58H452.062V57ZM452.062 45.24H453.062V44.24H452.062V45.24ZM421.902 45.24H420.902V46.24H421.902V45.24ZM421.902 36.52L421.099 35.9235L420.902 36.1891V36.52H421.902ZM448.302 0.999996V-3.8147e-06H447.799L447.499 0.403473L448.302 0.999996ZM461.902 0.999996L462.711 1.58794L463.865 -3.8147e-06H461.902V0.999996ZM437.422 34.68L436.613 34.0921L435.459 35.68H437.422V34.68ZM452.462 34.68V35.68H453.462V34.68H452.462ZM452.462 24.2V23.2H451.462V24.2H452.462ZM464.702 24.2H465.702V23.2H464.702V24.2ZM464.702 34.68H463.702V35.68H464.702V34.68ZM473.822 34.68H474.822V33.68H473.822V34.68ZM473.822 44.24H464.702V46.24H473.822V44.24ZM463.702 45.24V57H465.702V45.24H463.702ZM464.702 56H452.062V58H464.702V56ZM453.062 57V45.24H451.062V57H453.062ZM452.062 44.24H421.902V46.24H452.062V44.24ZM422.902 45.24V36.52H420.902V45.24H422.902ZM422.704 37.1165L449.104 1.59652L447.499 0.403473L421.099 35.9235L422.704 37.1165ZM448.302 2H461.902V-3.8147e-06H448.302V2ZM461.093 0.412052L436.613 34.0921L438.231 35.2679L462.711 1.58794L461.093 0.412052ZM437.422 35.68H452.462V33.68H437.422V35.68ZM453.462 34.68V24.2H451.462V34.68H453.462ZM452.462 25.2H464.702V23.2H452.462V25.2ZM463.702 24.2V34.68H465.702V24.2H463.702ZM464.702 35.68H473.822V33.68H464.702V35.68ZM472.822 34.68V45.24H474.822V34.68H472.822ZM489.298 54.52L489.833 53.6748L489.298 54.52ZM480.738 44.6L479.831 45.0205L479.834 45.0272L479.837 45.0338L480.738 44.6ZM480.738 13.48L479.835 13.0505L479.833 13.0553L480.738 13.48ZM489.298 3.48L489.833 4.32519L489.298 3.48ZM514.098 3.48L513.564 4.32519L514.098 3.48ZM522.578 13.48L521.671 13.9005L521.674 13.9072L521.677 13.9138L522.578 13.48ZM522.578 44.6L521.675 44.1705L521.673 44.1753L522.578 44.6ZM514.098 54.52L513.564 53.6748L514.098 54.52ZM509.698 42.6L508.868 42.0418L508.861 42.0523L509.698 42.6ZM509.698 15.4L508.861 15.9477L508.868 15.9582L509.698 15.4ZM493.698 15.4L492.868 14.8418L492.861 14.8523L493.698 15.4ZM493.698 42.6L492.861 43.1477L492.868 43.1582L493.698 42.6ZM501.698 56.96C497.231 56.96 493.286 55.8588 489.833 53.6748L488.764 55.3652C492.563 57.7679 496.885 58.96 501.698 58.96V56.96ZM489.833 53.6748C486.382 51.493 483.648 48.3378 481.639 44.1662L479.837 45.0338C481.989 49.5022 484.961 52.9603 488.764 55.3652L489.833 53.6748ZM481.645 44.1795C479.693 39.9666 478.698 34.9168 478.698 29H476.698C476.698 35.1366 477.73 40.4867 479.831 45.0205L481.645 44.1795ZM478.698 29C478.698 23.0827 479.693 18.0616 481.643 13.9047L479.833 13.0553C477.73 17.5383 476.698 22.864 476.698 29H478.698ZM481.641 13.9095C483.651 9.68421 486.385 6.50499 489.833 4.32519L488.764 2.6348C484.957 5.04167 481.985 8.52912 479.835 13.0505L481.641 13.9095ZM489.833 4.32519C493.286 2.14122 497.231 1.04 501.698 1.04V-0.960001C496.885 -0.960001 492.563 0.232111 488.764 2.6348L489.833 4.32519ZM501.698 1.04C506.165 1.04 510.11 2.14122 513.564 4.32519L514.633 2.6348C510.833 0.232111 506.511 -0.960001 501.698 -0.960001V1.04ZM513.564 4.32519C517.008 6.5034 519.715 9.67941 521.671 13.9005L523.485 13.0595C521.388 8.53392 518.441 5.04326 514.633 2.6348L513.564 4.32519ZM521.677 13.9138C523.677 18.0683 524.698 23.086 524.698 29H526.698C526.698 22.8607 525.639 17.5317 523.479 13.0462L521.677 13.9138ZM524.698 29C524.698 34.9135 523.678 39.96 521.675 44.1705L523.481 45.0295C525.639 40.4933 526.698 35.1398 526.698 29H524.698ZM521.673 44.1753C519.718 48.3426 517.011 51.4946 513.564 53.6748L514.633 55.3652C518.438 52.9587 521.385 49.4974 523.483 45.0247L521.673 44.1753ZM513.564 53.6748C510.11 55.8588 506.165 56.96 501.698 56.96V58.96C506.511 58.96 510.833 57.7679 514.633 55.3652L513.564 53.6748ZM501.698 48C505.46 48 508.436 46.354 510.535 43.1477L508.861 42.0523C507.12 44.7126 504.763 46 501.698 46V48ZM510.528 43.1582C512.667 39.978 513.658 35.203 513.658 29H511.658C511.658 35.0636 510.676 39.3553 508.868 42.0418L510.528 43.1582ZM513.658 29C513.658 22.797 512.667 18.022 510.528 14.8418L508.868 15.9582C510.676 18.6447 511.658 22.9364 511.658 29H513.658ZM510.535 14.8523C508.436 11.646 505.46 10 501.698 10V12C504.763 12 507.12 13.2874 508.861 15.9477L510.535 14.8523ZM501.698 10C497.985 10 495.016 11.6495 492.868 14.8418L494.528 15.9582C496.327 13.2838 498.691 12 501.698 12V10ZM492.861 14.8523C490.782 18.0299 489.818 22.8002 489.818 29H491.818C491.818 22.9332 492.775 18.6367 494.535 15.9477L492.861 14.8523ZM489.818 29C489.818 35.1998 490.782 39.9701 492.861 43.1477L494.535 42.0523C492.775 39.3633 491.818 35.0668 491.818 29H489.818ZM492.868 43.1582C495.016 46.3505 497.985 48 501.698 48V46C498.691 46 496.327 44.7161 494.528 42.0418L492.868 43.1582ZM583.275 45.24V46.24H584.275V45.24H583.275ZM574.155 45.24V44.24H573.155V45.24H574.155ZM574.155 57V58H575.155V57H574.155ZM561.515 57H560.515V58H561.515V57ZM561.515 45.24H562.515V44.24H561.515V45.24ZM531.355 45.24H530.355V46.24H531.355V45.24ZM531.355 36.52L530.552 35.9235L530.355 36.1891V36.52H531.355ZM557.755 0.999996V-3.8147e-06H557.252L556.952 0.403473L557.755 0.999996ZM571.355 0.999996L572.164 1.58794L573.318 -3.8147e-06H571.355V0.999996ZM546.875 34.68L546.066 34.0921L544.912 35.68H546.875V34.68ZM561.915 34.68V35.68H562.915V34.68H561.915ZM561.915 24.2V23.2H560.915V24.2H561.915ZM574.155 24.2H575.155V23.2H574.155V24.2ZM574.155 34.68H573.155V35.68H574.155V34.68ZM583.275 34.68H584.275V33.68H583.275V34.68ZM583.275 44.24H574.155V46.24H583.275V44.24ZM573.155 45.24V57H575.155V45.24H573.155ZM574.155 56H561.515V58H574.155V56ZM562.515 57V45.24H560.515V57H562.515ZM561.515 44.24H531.355V46.24H561.515V44.24ZM532.355 45.24V36.52H530.355V45.24H532.355ZM532.158 37.1165L558.558 1.59652L556.952 0.403473L530.552 35.9235L532.158 37.1165ZM557.755 2H571.355V-3.8147e-06H557.755V2ZM570.546 0.412052L546.066 34.0921L547.684 35.2679L572.164 1.58794L570.546 0.412052ZM546.875 35.68H561.915V33.68H546.875V35.68ZM562.915 34.68V24.2H560.915V34.68H562.915ZM561.915 25.2H574.155V23.2H561.915V25.2ZM573.155 24.2V34.68H575.155V24.2H573.155ZM574.155 35.68H583.275V33.68H574.155V35.68ZM582.275 34.68V45.24H584.275V34.68H582.275Z" fill="#BBBBBB"/>
</svg>
