<svg width="727" height="58" viewBox="0 0 727 58" fill="none" xmlns="http://www.w3.org/2000/svg">
<path d="M52.32 0.999996H53.32V-3.8147e-06H52.32V0.999996ZM52.32 57V58H53.32V57H52.32ZM39.36 57H38.36V58H39.36V57ZM39.36 34.04H40.36V33.04H39.36V34.04ZM13.92 34.04V33.04H12.92V34.04H13.92ZM13.92 57V58H14.92V57H13.92ZM0.960001 57H-0.0399995V58H0.960001V57ZM0.960001 0.999996V-3.8147e-06H-0.0399995V0.999996H0.960001ZM13.92 0.999996H14.92V-3.8147e-06H13.92V0.999996ZM13.92 23.08H12.92V24.08H13.92V23.08ZM39.36 23.08V24.08H40.36V23.08H39.36ZM39.36 0.999996V-3.8147e-06H38.36V0.999996H39.36ZM51.32 0.999996V57H53.32V0.999996H51.32ZM52.32 56H39.36V58H52.32V56ZM40.36 57V34.04H38.36V57H40.36ZM39.36 33.04H13.92V35.04H39.36V33.04ZM12.92 34.04V57H14.92V34.04H12.92ZM13.92 56H0.960001V58H13.92V56ZM1.96 57V0.999996H-0.0399995V57H1.96ZM0.960001 2H13.92V-3.8147e-06H0.960001V2ZM12.92 0.999996V23.08H14.92V0.999996H12.92ZM13.92 24.08H39.36V22.08H13.92V24.08ZM40.36 23.08V0.999996H38.36V23.08H40.36ZM39.36 2H52.32V-3.8147e-06H39.36V2ZM104.271 45L105.195 44.618L104.939 44H104.271V45ZM78.2706 45V44H77.6019L77.3465 44.618L78.2706 45ZM73.3106 57V58H73.9793L74.2348 57.382L73.3106 57ZM60.0306 57L59.1172 56.5929L58.4901 58H60.0306V57ZM84.9906 0.999996V-3.8147e-06H84.3415L84.0772 0.59289L84.9906 0.999996ZM97.7906 0.999996L98.7035 0.591803L98.4389 -3.8147e-06H97.7906V0.999996ZM122.831 57V58H124.373L123.744 56.5918L122.831 57ZM109.231 57L108.306 57.382L108.562 58H109.231V57ZM100.191 35.16V36.16H101.687L101.115 34.7773L100.191 35.16ZM91.3106 13.72L92.2345 13.3373L91.3106 11.1067L90.3867 13.3373L91.3106 13.72ZM82.4306 35.16L81.5067 34.7773L80.9341 36.16H82.4306V35.16ZM104.271 44H78.2706V46H104.271V44ZM77.3465 44.618L72.3865 56.618L74.2348 57.382L79.1948 45.382L77.3465 44.618ZM73.3106 56H60.0306V58H73.3106V56ZM60.944 57.4071L85.904 1.4071L84.0772 0.59289L59.1172 56.5929L60.944 57.4071ZM84.9906 2H97.7906V-3.8147e-06H84.9906V2ZM96.8777 1.40819L121.918 57.4082L123.744 56.5918L98.7035 0.591803L96.8777 1.40819ZM122.831 56H109.231V58H122.831V56ZM110.155 56.618L105.195 44.618L103.346 45.382L108.306 57.382L110.155 56.618ZM101.115 34.7773L92.2345 13.3373L90.3867 14.1027L99.2667 35.5427L101.115 34.7773ZM90.3867 13.3373L81.5067 34.7773L83.3545 35.5427L92.2345 14.1027L90.3867 13.3373ZM82.4306 36.16H100.191V34.16H82.4306V36.16ZM204.177 0.999996H205.177V-3.8147e-06H204.177V0.999996ZM204.177 57V58H205.177V57H204.177ZM130.257 57H129.257V58H130.257V57ZM130.257 0.999996V-3.8147e-06H129.257V0.999996H130.257ZM143.137 0.999996H144.137V-3.8147e-06H143.137V0.999996ZM143.137 46.44H142.137V47.44H143.137V46.44ZM160.817 46.44V47.44H161.817V46.44H160.817ZM160.817 0.999996V-3.8147e-06H159.817V0.999996H160.817ZM173.697 0.999996H174.697V-3.8147e-06H173.697V0.999996ZM173.697 46.44H172.697V47.44H173.697V46.44ZM191.297 46.44V47.44H192.297V46.44H191.297ZM191.297 0.999996V-3.8147e-06H190.297V0.999996H191.297ZM203.177 0.999996V57H205.177V0.999996H203.177ZM204.177 56H130.257V58H204.177V56ZM131.257 57V0.999996H129.257V57H131.257ZM130.257 2H143.137V-3.8147e-06H130.257V2ZM142.137 0.999996V46.44H144.137V0.999996H142.137ZM143.137 47.44H160.817V45.44H143.137V47.44ZM161.817 46.44V0.999996H159.817V46.44H161.817ZM160.817 2H173.697V-3.8147e-06H160.817V2ZM172.697 0.999996V46.44H174.697V0.999996H172.697ZM173.697 47.44H191.297V45.44H173.697V47.44ZM192.297 46.44V0.999996H190.297V46.44H192.297ZM191.297 2H204.177V-3.8147e-06H191.297V2ZM218.069 0.999996V-3.8147e-06H217.069V0.999996H218.069ZM230.949 0.999996H231.949V-3.8147e-06H230.949V0.999996ZM230.949 37.48H229.949V40.5376L231.756 38.0709L230.949 37.48ZM257.669 0.999996V-3.8147e-06H257.162L256.863 0.409092L257.669 0.999996ZM269.829 0.999996H270.829V-3.8147e-06H269.829V0.999996ZM269.829 57V58H270.829V57H269.829ZM257.029 57H256.029V58H257.029V57ZM257.029 20.6H258.029V17.5478L256.223 20.0083L257.029 20.6ZM230.309 57V58H230.816L231.115 57.5918L230.309 57ZM218.069 57H217.069V58H218.069V57ZM218.069 2H230.949V-3.8147e-06H218.069V2ZM229.949 0.999996V37.48H231.949V0.999996H229.949ZM231.756 38.0709L258.476 1.5909L256.863 0.409092L230.143 36.8891L231.756 38.0709ZM257.669 2H269.829V-3.8147e-06H257.669V2ZM268.829 0.999996V57H270.829V0.999996H268.829ZM269.829 56H257.029V58H269.829V56ZM258.029 57V20.6H256.029V57H258.029ZM256.223 20.0083L229.503 56.4082L231.115 57.5918L257.836 21.1917L256.223 20.0083ZM230.309 56H218.069V58H230.309V56ZM219.069 57V0.999996H217.069V57H219.069ZM357.469 0.999996H358.469V-3.8147e-06H357.469V0.999996ZM357.469 57V58H358.469V57H357.469ZM344.589 57H343.589V58H344.589V57ZM344.589 11.56H345.589V10.56H344.589V11.56ZM319.309 11.56V10.56H318.309V11.56H319.309ZM319.309 57V58H320.309V57H319.309ZM306.429 57H305.429V58H306.429V57ZM306.429 0.999996V-3.8147e-06H305.429V0.999996H306.429ZM356.469 0.999996V57H358.469V0.999996H356.469ZM357.469 56H344.589V58H357.469V56ZM345.589 57V11.56H343.589V57H345.589ZM344.589 10.56H319.309V12.56H344.589V10.56ZM318.309 11.56V57H320.309V11.56H318.309ZM319.309 56H306.429V58H319.309V56ZM307.429 57V0.999996H305.429V57H307.429ZM306.429 2H357.469V-3.8147e-06H306.429V2ZM408.471 3.48L408.056 4.38992L408.061 4.39217L408.471 3.48ZM416.951 32.12L417.789 32.6645L417.794 32.6578L416.951 32.12ZM408.471 39.16L408.874 40.0749L408.88 40.0722L408.471 39.16ZM384.311 41.56V40.56H383.311V41.56H384.311ZM384.311 57V58H385.311V57H384.311ZM371.351 57H370.351V58H371.351V57ZM371.351 0.999996V-3.8147e-06H370.351V0.999996H371.351ZM403.751 28.52L404.383 29.2949L404.389 29.2899L404.395 29.2849L403.751 28.52ZM403.751 14.12L403.106 14.8849L403.112 14.8899L403.118 14.8949L403.751 14.12ZM384.311 11.56V10.56H383.311V11.56H384.311ZM384.311 31H383.311V32H384.311V31ZM395.591 2C400.442 2 404.587 2.8086 408.056 4.38991L408.885 2.57009C405.101 0.844732 400.66 -3.8147e-06 395.591 -3.8147e-06V2ZM408.061 4.39217C411.586 5.97593 414.255 8.20361 416.112 11.0645L417.789 9.97553C415.7 6.75639 412.715 4.29073 408.88 2.56783L408.061 4.39217ZM416.112 11.0645C417.965 13.9194 418.911 17.3239 418.911 21.32H420.911C420.911 16.996 419.883 13.2006 417.789 9.97553L416.112 11.0645ZM418.911 21.32C418.911 25.2595 417.966 28.6682 416.108 31.5822L417.794 32.6578C419.881 29.3851 420.911 25.5938 420.911 21.32H418.911ZM416.112 31.5755C414.255 34.4364 411.586 36.6641 408.061 38.2478L408.88 40.0722C412.715 38.3493 415.7 35.8836 417.789 32.6645L416.112 31.5755ZM408.067 38.2451C404.595 39.7768 400.445 40.56 395.591 40.56V42.56C400.656 42.56 405.093 41.7432 408.874 40.0749L408.067 38.2451ZM395.591 40.56H384.311V42.56H395.591V40.56ZM383.311 41.56V57H385.311V41.56H383.311ZM384.311 56H371.351V58H384.311V56ZM372.351 57V0.999996H370.351V57H372.351ZM371.351 2H395.591V-3.8147e-06H371.351V2ZM394.871 32C398.886 32 402.109 31.1501 404.383 29.2949L403.118 27.7451C401.339 29.1966 398.642 30 394.871 30V32ZM404.395 29.2849C406.686 27.3555 407.791 24.6534 407.791 21.32H405.791C405.791 24.1732 404.869 26.2711 403.106 27.7551L404.395 29.2849ZM407.791 21.32C407.791 17.9404 406.69 15.2273 404.383 13.3451L403.118 14.8949C404.865 16.3194 405.791 18.4063 405.791 21.32H407.791ZM404.395 13.3551C402.12 11.4393 398.892 10.56 394.871 10.56V12.56C398.636 12.56 401.328 13.3873 403.106 14.8849L404.395 13.3551ZM394.871 10.56H384.311V12.56H394.871V10.56ZM383.311 11.56V31H385.311V11.56H383.311ZM384.311 32H394.871V30H384.311V32ZM440.201 54.2L439.726 55.0798L439.73 55.0821L440.201 54.2ZM429.241 43.88L428.38 44.3884L428.384 44.3945L428.387 44.4006L429.241 43.88ZM429.241 14.2L428.385 13.684L428.383 13.687L429.241 14.2ZM440.201 3.8L439.73 2.91791L439.726 2.92018L440.201 3.8ZM482.601 14.2L481.745 14.716L481.747 14.7206L482.601 14.2ZM482.601 43.88L483.455 44.4006L483.458 44.396L482.601 43.88ZM471.641 54.2L472.117 55.0798L471.641 54.2ZM464.921 44.68L465.41 45.5525L465.416 45.5488L465.423 45.545L464.921 44.68ZM471.161 38.28L470.292 37.7857L470.288 37.7922L470.285 37.7987L471.161 38.28ZM471.161 19.72L470.285 20.2013L470.288 20.2078L470.292 20.2143L471.161 19.72ZM464.921 13.4L464.42 14.265L464.426 14.2688L464.433 14.2725L464.921 13.4ZM447.001 13.4L447.49 14.2725L447.496 14.2688L447.503 14.265L447.001 13.4ZM440.681 19.72L439.812 19.2257L439.808 19.2322L439.805 19.2387L440.681 19.72ZM440.681 38.28L439.805 38.7613L439.808 38.7678L439.812 38.7743L440.681 38.28ZM447.001 44.68L446.5 45.545L446.506 45.5488L446.513 45.5525L447.001 44.68ZM455.961 56.96C450.297 56.96 445.208 55.7402 440.672 53.3179L439.73 55.0821C444.582 57.6732 449.999 58.96 455.961 58.96V56.96ZM440.677 53.3202C436.187 50.895 432.667 47.577 430.095 43.3594L428.387 44.4006C431.149 48.9297 434.935 52.4916 439.726 55.0798L440.677 53.3202ZM430.102 43.3716C427.586 39.1096 426.321 34.3272 426.321 29H424.321C424.321 34.6594 425.67 39.7971 428.38 44.3884L430.102 43.3716ZM426.321 29C426.321 23.6727 427.586 18.9191 430.1 14.713L428.383 13.687C425.67 18.2275 424.321 23.3407 424.321 29H426.321ZM430.098 14.716C432.67 10.4458 436.19 7.10332 440.677 4.67982L439.726 2.92018C434.932 5.51001 431.146 9.10087 428.385 13.684L430.098 14.716ZM440.672 4.68207C445.208 2.25984 450.297 1.04 455.961 1.04V-0.960001C449.999 -0.960001 444.582 0.326824 439.73 2.91792L440.672 4.68207ZM455.961 1.04C461.626 1.04 466.686 2.25988 471.166 4.67982L472.117 2.92018C467.316 0.326786 461.923 -0.960001 455.961 -0.960001V1.04ZM471.166 4.67982C475.652 7.10332 479.172 10.4458 481.745 14.716L483.458 13.684C480.697 9.10087 476.91 5.51001 472.117 2.92018L471.166 4.67982ZM481.747 14.7206C484.312 18.9257 485.601 23.6765 485.601 29H487.601C487.601 23.3368 486.224 18.2209 483.455 13.6794L481.747 14.7206ZM485.601 29C485.601 34.3234 484.312 39.103 481.745 43.364L483.458 44.396C486.224 39.8037 487.601 34.6633 487.601 29H485.601ZM481.747 43.3594C479.176 47.577 475.655 50.895 471.166 53.3202L472.117 55.0798C476.907 52.4916 480.693 48.9297 483.455 44.4006L481.747 43.3594ZM471.166 53.3202C466.686 55.7401 461.626 56.96 455.961 56.96V58.96C461.923 58.96 467.316 57.6732 472.117 55.0798L471.166 53.3202ZM455.961 47.92C459.425 47.92 462.582 47.1362 465.41 45.5525L464.433 43.8075C461.927 45.2105 459.111 45.92 455.961 45.92V47.92ZM465.423 45.545C468.248 43.9063 470.457 41.6398 472.038 38.7613L470.285 37.7987C468.878 40.3602 466.928 42.3603 464.42 43.815L465.423 45.545ZM472.031 38.7743C473.672 35.8878 474.481 32.6208 474.481 29H472.481C472.481 32.3125 471.744 35.2322 470.292 37.7857L472.031 38.7743ZM474.481 29C474.481 25.3792 473.672 22.1122 472.031 19.2257L470.292 20.2143C471.744 22.7678 472.481 25.6875 472.481 29H474.481ZM472.038 19.2387C470.456 16.3572 468.243 14.1138 465.41 12.5275L464.433 14.2725C466.933 15.6729 468.88 17.6428 470.285 20.2013L472.038 19.2387ZM465.423 12.535C462.593 10.8935 459.431 10.08 455.961 10.08V12.08C459.105 12.08 461.916 12.8132 464.42 14.265L465.423 12.535ZM455.961 10.08C452.492 10.08 449.33 10.8935 446.5 12.535L447.503 14.265C450.006 12.8132 452.818 12.08 455.961 12.08V10.08ZM446.513 12.5275C443.683 14.1121 441.446 16.3513 439.812 19.2257L441.551 20.2143C443.009 17.6487 444.986 15.6746 447.49 14.2725L446.513 12.5275ZM439.805 19.2387C438.221 22.1229 437.441 25.3852 437.441 29H439.441C439.441 25.6815 440.155 22.7571 441.558 20.2013L439.805 19.2387ZM437.441 29C437.441 32.6148 438.221 35.8771 439.805 38.7613L441.558 37.7987C440.155 35.2429 439.441 32.3185 439.441 29H437.441ZM439.812 38.7743C441.445 41.6458 443.677 43.9081 446.5 45.545L447.503 43.815C444.992 42.3585 443.011 40.3542 441.551 37.7857L439.812 38.7743ZM446.513 45.5525C449.341 47.1362 452.498 47.92 455.961 47.92V45.92C452.811 45.92 449.995 45.2105 447.49 43.8075L446.513 45.5525ZM539.945 46.6H540.945V45.6H539.945V46.6ZM539.945 57V58H540.945V57H539.945ZM496.585 57H495.585V58H496.585V57ZM496.585 0.999996V-3.8147e-06H495.585V0.999996H496.585ZM538.905 0.999996H539.905V-3.8147e-06H538.905V0.999996ZM538.905 11.4V12.4H539.905V11.4H538.905ZM509.465 11.4V10.4H508.465V11.4H509.465ZM509.465 23.56H508.465V24.56H509.465V23.56ZM535.465 23.56H536.465V22.56H535.465V23.56ZM535.465 33.64V34.64H536.465V33.64H535.465ZM509.465 33.64V32.64H508.465V33.64H509.465ZM509.465 46.6H508.465V47.6H509.465V46.6ZM538.945 46.6V57H540.945V46.6H538.945ZM539.945 56H496.585V58H539.945V56ZM497.585 57V0.999996H495.585V57H497.585ZM496.585 2H538.905V-3.8147e-06H496.585V2ZM537.905 0.999996V11.4H539.905V0.999996H537.905ZM538.905 10.4H509.465V12.4H538.905V10.4ZM508.465 11.4V23.56H510.465V11.4H508.465ZM509.465 24.56H535.465V22.56H509.465V24.56ZM534.465 23.56V33.64H536.465V23.56H534.465ZM535.465 32.64H509.465V34.64H535.465V32.64ZM508.465 33.64V46.6H510.465V33.64H508.465ZM509.465 47.6H539.945V45.6H509.465V47.6ZM572.093 34.44L572.933 33.8977L572.638 33.44H572.093V34.44ZM563.133 34.44V33.44H562.133V34.44H563.133ZM563.133 57V58H564.133V57H563.133ZM550.253 57H549.253V58H550.253V57ZM550.253 0.999996V-3.8147e-06H549.253V0.999996H550.253ZM563.133 0.999996H564.133V-3.8147e-06H563.133V0.999996ZM563.133 23.64H562.133V24.64H563.133V23.64ZM572.413 23.64V24.64H572.956L573.252 24.1851L572.413 23.64ZM587.133 0.999996V-3.8147e-06H586.591L586.295 0.454905L587.133 0.999996ZM600.813 0.999996L601.641 1.5609L602.699 -3.8147e-06H600.813V0.999996ZM582.493 28.04L581.665 27.4791L581.292 28.0293L581.655 28.5861L582.493 28.04ZM601.373 57V58H603.219L602.211 56.4539L601.373 57ZM586.653 57L585.813 57.5423L586.108 58H586.653V57ZM572.093 33.44H563.133V35.44H572.093V33.44ZM562.133 34.44V57H564.133V34.44H562.133ZM563.133 56H550.253V58H563.133V56ZM551.253 57V0.999996H549.253V57H551.253ZM550.253 2H563.133V-3.8147e-06H550.253V2ZM562.133 0.999996V23.64H564.133V0.999996H562.133ZM563.133 24.64H572.413V22.64H563.133V24.64ZM573.252 24.1851L587.971 1.54509L586.295 0.454905L571.575 23.0949L573.252 24.1851ZM587.133 2H600.813V-3.8147e-06H587.133V2ZM599.985 0.439095L581.665 27.4791L583.321 28.6009L601.641 1.5609L599.985 0.439095ZM581.655 28.5861L600.535 57.5461L602.211 56.4539L583.331 27.4939L581.655 28.5861ZM601.373 56H586.653V58H601.373V56ZM587.493 56.4577L572.933 33.8977L571.253 34.9823L585.813 57.5423L587.493 56.4577ZM649.619 11.56V12.56H650.619V11.56H649.619ZM631.699 11.56V10.56H630.699V11.56H631.699ZM631.699 57V58H632.699V57H631.699ZM618.899 57H617.899V58H618.899V57ZM618.899 11.56H619.899V10.56H618.899V11.56ZM601.059 11.56H600.059V12.56H601.059V11.56ZM601.059 0.999996V-3.8147e-06H600.059V0.999996H601.059ZM649.619 0.999996H650.619V-3.8147e-06H649.619V0.999996ZM649.619 10.56H631.699V12.56H649.619V10.56ZM630.699 11.56V57H632.699V11.56H630.699ZM631.699 56H618.899V58H631.699V56ZM619.899 57V11.56H617.899V57H619.899ZM618.899 10.56H601.059V12.56H618.899V10.56ZM602.059 11.56V0.999996H600.059V11.56H602.059ZM601.059 2H649.619V-3.8147e-06H601.059V2ZM648.619 0.999996V11.56H650.619V0.999996H648.619ZM700.557 23.96L699.914 24.7264L699.92 24.731L700.557 23.96ZM699.997 52.04L700.634 52.8107L700.635 52.8099L699.997 52.04ZM657.757 57H656.757V58H657.757V57ZM657.757 0.999996V-3.8147e-06H656.757V0.999996H657.757ZM670.637 0.999996H671.637V-3.8147e-06H670.637V0.999996ZM670.637 19.4H669.637V20.4H670.637V19.4ZM690.157 44.92L689.504 44.1622L689.494 44.1714L690.157 44.92ZM670.637 29V28H669.637V29H670.637ZM670.637 47.4H669.637V48.4H670.637V47.4ZM713.197 0.999996V-3.8147e-06H712.197V0.999996H713.197ZM726.077 0.999996H727.077V-3.8147e-06H726.077V0.999996ZM726.077 57V58H727.077V57H726.077ZM713.197 57H712.197V58H713.197V57ZM684.877 20.4C691.57 20.4 696.533 21.8918 699.914 24.7264L701.199 23.1936C697.328 19.9482 691.837 18.4 684.877 18.4V20.4ZM699.92 24.731C703.314 27.5344 705.077 31.7232 705.077 37.48H707.077C707.077 31.2901 705.16 26.4656 701.194 23.189L699.92 24.731ZM705.077 37.48C705.077 43.5964 703.136 48.1393 699.359 51.2701L700.635 52.8099C704.965 49.2207 707.077 44.0569 707.077 37.48H705.077ZM699.36 51.2693C695.6 54.3775 690.204 56 683.037 56V58C690.483 58 696.394 56.3159 700.634 52.8107L699.36 51.2693ZM683.037 56H657.757V58H683.037V56ZM658.757 57V0.999996H656.757V57H658.757ZM657.757 2H670.637V-3.8147e-06H657.757V2ZM669.637 0.999996V19.4H671.637V0.999996H669.637ZM670.637 20.4H684.877V18.4H670.637V20.4ZM682.317 48.4C685.835 48.4 688.715 47.533 690.82 45.6686L689.494 44.1714C687.865 45.6137 685.518 46.4 682.317 46.4V48.4ZM690.809 45.6778C693.002 43.7897 694.037 41.0814 694.037 37.72H692.037C692.037 40.6519 691.152 42.7436 689.504 44.1622L690.809 45.6778ZM694.037 37.72C694.037 34.5983 693.067 32.0958 690.988 30.4042C688.948 28.7449 686 28 682.317 28V30C685.78 30 688.193 30.7085 689.726 31.9558C691.22 33.1709 692.037 35.0283 692.037 37.72H694.037ZM682.317 28H670.637V30H682.317V28ZM669.637 29V47.4H671.637V29H669.637ZM670.637 48.4H682.317V46.4H670.637V48.4ZM713.197 2H726.077V-3.8147e-06H713.197V2ZM725.077 0.999996V57H727.077V0.999996H725.077ZM726.077 56H713.197V58H726.077V56ZM714.197 57V0.999996H712.197V57H714.197Z" fill="#BBBBBB"/>
</svg>
