<svg width="421" height="58" viewBox="0 0 421 58" fill="none" xmlns="http://www.w3.org/2000/svg">
<path d="M52 0.999996H53V-3.8147e-06H52V0.999996ZM52 57V58H53V57H52ZM39.12 57H38.12V58H39.12V57ZM39.12 11.56H40.12V10.56H39.12V11.56ZM13.84 11.56V10.56H12.84V11.56H13.84ZM13.84 57V58H14.84V57H13.84ZM0.960001 57H-0.0399995V58H0.960001V57ZM0.960001 0.999996V-3.8147e-06H-0.0399995V0.999996H0.960001ZM51 0.999996V57H53V0.999996H51ZM52 56H39.12V58H52V56ZM40.12 57V11.56H38.12V57H40.12ZM39.12 10.56H13.84V12.56H39.12V10.56ZM12.84 11.56V57H14.84V11.56H12.84ZM13.84 56H0.960001V58H13.84V56ZM1.96 57V0.999996H-0.0399995V57H1.96ZM0.960001 2H52V-3.8147e-06H0.960001V2ZM103.002 3.48L102.587 4.38992L102.592 4.39217L103.002 3.48ZM111.482 32.12L112.321 32.6645L112.325 32.6578L111.482 32.12ZM103.002 39.16L103.406 40.0749L103.412 40.0722L103.002 39.16ZM78.8419 41.56V40.56H77.8419V41.56H78.8419ZM78.8419 57V58H79.8419V57H78.8419ZM65.8819 57H64.8819V58H65.8819V57ZM65.8819 0.999996V-3.8147e-06H64.8819V0.999996H65.8819ZM98.2819 28.52L98.914 29.2949L98.92 29.2899L98.926 29.2849L98.2819 28.52ZM98.2819 14.12L97.6377 14.8849L97.6437 14.8899L97.6497 14.8949L98.2819 14.12ZM78.8419 11.56V10.56H77.8419V11.56H78.8419ZM78.8419 31H77.8419V32H78.8419V31ZM90.1219 2C94.9728 2 99.1184 2.8086 102.587 4.38991L103.417 2.57009C99.632 0.844732 95.191 -3.8147e-06 90.1219 -3.8147e-06V2ZM102.592 4.39217C106.117 5.97593 108.786 8.20361 110.643 11.0645L112.321 9.97553C110.231 6.75639 107.247 4.29073 103.412 2.56783L102.592 4.39217ZM110.643 11.0645C112.496 13.9194 113.442 17.3239 113.442 21.32H115.442C115.442 16.996 114.414 13.2006 112.321 9.97553L110.643 11.0645ZM113.442 21.32C113.442 25.2595 112.498 28.6682 110.639 31.5822L112.325 32.6578C114.413 29.3851 115.442 25.5938 115.442 21.32H113.442ZM110.643 31.5755C108.786 34.4364 106.117 36.6641 102.592 38.2478L103.412 40.0722C107.247 38.3493 110.231 35.8836 112.321 32.6645L110.643 31.5755ZM102.598 38.2451C99.1264 39.7768 94.9767 40.56 90.1219 40.56V42.56C95.187 42.56 99.624 41.7432 103.406 40.0749L102.598 38.2451ZM90.1219 40.56H78.8419V42.56H90.1219V40.56ZM77.8419 41.56V57H79.8419V41.56H77.8419ZM78.8419 56H65.8819V58H78.8419V56ZM66.8819 57V0.999996H64.8819V57H66.8819ZM65.8819 2H90.1219V-3.8147e-06H65.8819V2ZM89.4019 32C93.4172 32 96.6398 31.1501 98.914 29.2949L97.6497 27.7451C95.8706 29.1966 93.1733 30 89.4019 30V32ZM98.926 29.2849C101.217 27.3555 102.322 24.6534 102.322 21.32H100.322C100.322 24.1732 99.3999 26.2711 97.6377 27.7551L98.926 29.2849ZM102.322 21.32C102.322 17.9404 101.221 15.2273 98.914 13.3451L97.6497 14.8949C99.3959 16.3194 100.322 18.4063 100.322 21.32H102.322ZM98.926 13.3551C96.651 11.4393 93.4234 10.56 89.4019 10.56V12.56C93.1671 12.56 95.8594 13.3873 97.6377 14.8849L98.926 13.3551ZM89.4019 10.56H78.8419V12.56H89.4019V10.56ZM77.8419 11.56V31H79.8419V11.56H77.8419ZM78.8419 32H89.4019V30H78.8419V32ZM134.732 54.2L134.257 55.0798L134.261 55.0821L134.732 54.2ZM123.773 43.88L122.911 44.3884L122.915 44.3945L122.919 44.4006L123.773 43.88ZM123.773 14.2L122.916 13.684L122.914 13.687L123.773 14.2ZM134.732 3.8L134.261 2.91791L134.257 2.92018L134.732 3.8ZM177.133 14.2L176.276 14.716L176.279 14.7206L177.133 14.2ZM177.133 43.88L177.986 44.4006L177.989 44.396L177.133 43.88ZM166.173 54.2L166.648 55.0798L166.173 54.2ZM159.452 44.68L159.941 45.5525L159.948 45.5488L159.954 45.545L159.452 44.68ZM165.693 38.28L164.823 37.7857L164.82 37.7922L164.816 37.7987L165.693 38.28ZM165.693 19.72L164.816 20.2013L164.82 20.2078L164.823 20.2143L165.693 19.72ZM159.452 13.4L158.951 14.265L158.957 14.2688L158.964 14.2725L159.452 13.4ZM141.533 13.4L142.021 14.2725L142.028 14.2688L142.034 14.265L141.533 13.4ZM135.212 19.72L134.343 19.2257L134.34 19.2322L134.336 19.2387L135.212 19.72ZM135.212 38.28L134.336 38.7613L134.34 38.7678L134.343 38.7743L135.212 38.28ZM141.533 44.68L141.031 45.545L141.037 45.5488L141.044 45.5525L141.533 44.68ZM150.493 56.96C144.828 56.96 139.739 55.7402 135.204 53.3179L134.261 55.0821C139.113 57.6732 144.53 58.96 150.493 58.96V56.96ZM135.208 53.3202C130.719 50.895 127.198 47.577 124.626 43.3594L122.919 44.4006C125.68 48.9297 129.466 52.4916 134.257 55.0798L135.208 53.3202ZM124.634 43.3716C122.117 39.1096 120.853 34.3272 120.853 29H118.853C118.853 34.6594 120.201 39.7971 122.911 44.3884L124.634 43.3716ZM120.853 29C120.853 23.6727 122.117 18.9191 124.631 14.713L122.914 13.687C120.201 18.2275 118.853 23.3407 118.853 29H120.853ZM124.629 14.716C127.202 10.4458 130.722 7.10332 135.208 4.67982L134.257 2.92018C129.463 5.51001 125.677 9.10087 122.916 13.684L124.629 14.716ZM135.204 4.68207C139.739 2.25984 144.828 1.04 150.493 1.04V-0.960001C144.53 -0.960001 139.113 0.326824 134.261 2.91792L135.204 4.68207ZM150.493 1.04C156.157 1.04 161.218 2.25988 165.697 4.67982L166.648 2.92018C161.847 0.326786 156.454 -0.960001 150.493 -0.960001V1.04ZM165.697 4.67982C170.183 7.10332 173.704 10.4458 176.276 14.716L177.989 13.684C175.228 9.10087 171.442 5.51001 166.648 2.92018L165.697 4.67982ZM176.279 14.7206C178.843 18.9257 180.133 23.6765 180.133 29H182.133C182.133 23.3368 180.756 18.2209 177.986 13.6794L176.279 14.7206ZM180.133 29C180.133 34.3234 178.843 39.103 176.276 43.364L177.989 44.396C180.756 39.8037 182.133 34.6633 182.133 29H180.133ZM176.279 43.3594C173.707 47.577 170.186 50.895 165.697 53.3202L166.648 55.0798C171.439 52.4916 175.225 48.9297 177.986 44.4006L176.279 43.3594ZM165.697 53.3202C161.218 55.7401 156.157 56.96 150.493 56.96V58.96C156.454 58.96 161.847 57.6732 166.648 55.0798L165.697 53.3202ZM150.493 47.92C153.956 47.92 157.113 47.1362 159.941 45.5525L158.964 43.8075C156.459 45.2105 153.643 45.92 150.493 45.92V47.92ZM159.954 45.545C162.78 43.9063 164.989 41.6398 166.569 38.7613L164.816 37.7987C163.41 40.3602 161.459 42.3603 158.951 43.815L159.954 45.545ZM166.562 38.7743C168.203 35.8878 169.012 32.6208 169.012 29H167.012C167.012 32.3125 166.275 35.2322 164.823 37.7857L166.562 38.7743ZM169.012 29C169.012 25.3792 168.203 22.1122 166.562 19.2257L164.823 20.2143C166.275 22.7678 167.012 25.6875 167.012 29H169.012ZM166.569 19.2387C164.987 16.3572 162.774 14.1138 159.941 12.5275L158.964 14.2725C161.465 15.6729 163.411 17.6428 164.816 20.2013L166.569 19.2387ZM159.954 12.535C157.124 10.8935 153.962 10.08 150.493 10.08V12.08C153.636 12.08 156.448 12.8132 158.951 14.265L159.954 12.535ZM150.493 10.08C147.023 10.08 143.861 10.8935 141.031 12.535L142.034 14.265C144.537 12.8132 147.349 12.08 150.493 12.08V10.08ZM141.044 12.5275C138.214 14.1121 135.978 16.3513 134.343 19.2257L136.082 20.2143C137.541 17.6487 139.517 15.6746 142.021 14.2725L141.044 12.5275ZM134.336 19.2387C132.752 22.1229 131.973 25.3852 131.973 29H133.973C133.973 25.6815 134.686 22.7571 136.089 20.2013L134.336 19.2387ZM131.973 29C131.973 32.6148 132.752 35.8771 134.336 38.7613L136.089 37.7987C134.686 35.2429 133.973 32.3185 133.973 29H131.973ZM134.343 38.7743C135.976 41.6458 138.209 43.9081 141.031 45.545L142.034 43.815C139.523 42.3585 137.542 40.3542 136.082 37.7857L134.343 38.7743ZM141.044 45.5525C143.872 47.1362 147.029 47.92 150.493 47.92V45.92C147.342 45.92 144.526 45.2105 142.021 43.8075L141.044 45.5525ZM234.476 46.6H235.476V45.6H234.476V46.6ZM234.476 57V58H235.476V57H234.476ZM191.116 57H190.116V58H191.116V57ZM191.116 0.999996V-3.8147e-06H190.116V0.999996H191.116ZM233.436 0.999996H234.436V-3.8147e-06H233.436V0.999996ZM233.436 11.4V12.4H234.436V11.4H233.436ZM203.996 11.4V10.4H202.996V11.4H203.996ZM203.996 23.56H202.996V24.56H203.996V23.56ZM229.996 23.56H230.996V22.56H229.996V23.56ZM229.996 33.64V34.64H230.996V33.64H229.996ZM203.996 33.64V32.64H202.996V33.64H203.996ZM203.996 46.6H202.996V47.6H203.996V46.6ZM233.476 46.6V57H235.476V46.6H233.476ZM234.476 56H191.116V58H234.476V56ZM192.116 57V0.999996H190.116V57H192.116ZM191.116 2H233.436V-3.8147e-06H191.116V2ZM232.436 0.999996V11.4H234.436V0.999996H232.436ZM233.436 10.4H203.996V12.4H233.436V10.4ZM202.996 11.4V23.56H204.996V11.4H202.996ZM203.996 24.56H229.996V22.56H203.996V24.56ZM228.996 23.56V33.64H230.996V23.56H228.996ZM229.996 32.64H203.996V34.64H229.996V32.64ZM202.996 33.64V46.6H204.996V33.64H202.996ZM203.996 47.6H234.476V45.6H203.996V47.6ZM266.624 34.44L267.465 33.8977L267.169 33.44H266.624V34.44ZM257.664 34.44V33.44H256.664V34.44H257.664ZM257.664 57V58H258.664V57H257.664ZM244.784 57H243.784V58H244.784V57ZM244.784 0.999996V-3.8147e-06H243.784V0.999996H244.784ZM257.664 0.999996H258.664V-3.8147e-06H257.664V0.999996ZM257.664 23.64H256.664V24.64H257.664V23.64ZM266.944 23.64V24.64H267.487L267.783 24.1851L266.944 23.64ZM281.664 0.999996V-3.8147e-06H281.122L280.826 0.454905L281.664 0.999996ZM295.344 0.999996L296.172 1.5609L297.23 -3.8147e-06H295.344V0.999996ZM277.024 28.04L276.197 27.4791L275.824 28.0293L276.187 28.5861L277.024 28.04ZM295.904 57V58H297.75L296.742 56.4539L295.904 57ZM281.184 57L280.344 57.5423L280.64 58H281.184V57ZM266.624 33.44H257.664V35.44H266.624V33.44ZM256.664 34.44V57H258.664V34.44H256.664ZM257.664 56H244.784V58H257.664V56ZM245.784 57V0.999996H243.784V57H245.784ZM244.784 2H257.664V-3.8147e-06H244.784V2ZM256.664 0.999996V23.64H258.664V0.999996H256.664ZM257.664 24.64H266.944V22.64H257.664V24.64ZM267.783 24.1851L282.503 1.54509L280.826 0.454905L266.106 23.0949L267.783 24.1851ZM281.664 2H295.344V-3.8147e-06H281.664V2ZM294.516 0.439095L276.197 27.4791L277.852 28.6009L296.172 1.5609L294.516 0.439095ZM276.187 28.5861L295.067 57.5461L296.742 56.4539L277.862 27.4939L276.187 28.5861ZM295.904 56H281.184V58H295.904V56ZM282.025 56.4577L267.465 33.8977L265.784 34.9823L280.344 57.5423L282.025 56.4577ZM344.151 11.56V12.56H345.151V11.56H344.151ZM326.231 11.56V10.56H325.231V11.56H326.231ZM326.231 57V58H327.231V57H326.231ZM313.431 57H312.431V58H313.431V57ZM313.431 11.56H314.431V10.56H313.431V11.56ZM295.591 11.56H294.591V12.56H295.591V11.56ZM295.591 0.999996V-3.8147e-06H294.591V0.999996H295.591ZM344.151 0.999996H345.151V-3.8147e-06H344.151V0.999996ZM344.151 10.56H326.231V12.56H344.151V10.56ZM325.231 11.56V57H327.231V11.56H325.231ZM326.231 56H313.431V58H326.231V56ZM314.431 57V11.56H312.431V57H314.431ZM313.431 10.56H295.591V12.56H313.431V10.56ZM296.591 11.56V0.999996H294.591V11.56H296.591ZM295.591 2H344.151V-3.8147e-06H295.591V2ZM343.151 0.999996V11.56H345.151V0.999996H343.151ZM395.088 23.96L394.446 24.7264L394.451 24.731L395.088 23.96ZM394.528 52.04L395.165 52.8107L395.166 52.8099L394.528 52.04ZM352.288 57H351.288V58H352.288V57ZM352.288 0.999996V-3.8147e-06H351.288V0.999996H352.288ZM365.168 0.999996H366.168V-3.8147e-06H365.168V0.999996ZM365.168 19.4H364.168V20.4H365.168V19.4ZM384.688 44.92L384.036 44.1622L384.025 44.1714L384.688 44.92ZM365.168 29V28H364.168V29H365.168ZM365.168 47.4H364.168V48.4H365.168V47.4ZM407.728 0.999996V-3.8147e-06H406.728V0.999996H407.728ZM420.608 0.999996H421.608V-3.8147e-06H420.608V0.999996ZM420.608 57V58H421.608V57H420.608ZM407.728 57H406.728V58H407.728V57ZM379.408 20.4C386.102 20.4 391.064 21.8918 394.446 24.7264L395.731 23.1936C391.859 19.9482 386.368 18.4 379.408 18.4V20.4ZM394.451 24.731C397.845 27.5344 399.608 31.7232 399.608 37.48H401.608C401.608 31.2901 399.691 26.4656 395.725 23.189L394.451 24.731ZM399.608 37.48C399.608 43.5964 397.667 48.1393 393.89 51.2701L395.166 52.8099C399.496 49.2207 401.608 44.0569 401.608 37.48H399.608ZM393.891 51.2693C390.131 54.3775 384.736 56 377.568 56V58C385.014 58 390.925 56.3159 395.165 52.8107L393.891 51.2693ZM377.568 56H352.288V58H377.568V56ZM353.288 57V0.999996H351.288V57H353.288ZM352.288 2H365.168V-3.8147e-06H352.288V2ZM364.168 0.999996V19.4H366.168V0.999996H364.168ZM365.168 20.4H379.408V18.4H365.168V20.4ZM376.848 48.4C380.367 48.4 383.246 47.533 385.351 45.6686L384.025 44.1714C382.397 45.6137 380.05 46.4 376.848 46.4V48.4ZM385.341 45.6778C387.533 43.7897 388.568 41.0814 388.568 37.72H386.568C386.568 40.6519 385.683 42.7436 384.036 44.1622L385.341 45.6778ZM388.568 37.72C388.568 34.5983 387.599 32.0958 385.519 30.4042C383.479 28.7449 380.531 28 376.848 28V30C380.312 30 382.724 30.7085 384.257 31.9558C385.751 33.1709 386.568 35.0283 386.568 37.72H388.568ZM376.848 28H365.168V30H376.848V28ZM364.168 29V47.4H366.168V29H364.168ZM365.168 48.4H376.848V46.4H365.168V48.4ZM407.728 2H420.608V-3.8147e-06H407.728V2ZM419.608 0.999996V57H421.608V0.999996H419.608ZM420.608 56H407.728V58H420.608V56ZM408.728 57V0.999996H406.728V57H408.728Z" fill="#BBBBBB"/>
</svg>
