<svg width="308" height="58" viewBox="0 0 308 58" fill="none" xmlns="http://www.w3.org/2000/svg">
<path d="M52 0.999996H53V-3.8147e-06H52V0.999996ZM52 57V58H53V57H52ZM39.12 57H38.12V58H39.12V57ZM39.12 11.56H40.12V10.56H39.12V11.56ZM13.84 11.56V10.56H12.84V11.56H13.84ZM13.84 57V58H14.84V57H13.84ZM0.960001 57H-0.0399995V58H0.960001V57ZM0.960001 0.999996V-3.8147e-06H-0.0399995V0.999996H0.960001ZM51 0.999996V57H53V0.999996H51ZM52 56H39.12V58H52V56ZM40.12 57V11.56H38.12V57H40.12ZM39.12 10.56H13.84V12.56H39.12V10.56ZM12.84 11.56V57H14.84V11.56H12.84ZM13.84 56H0.960001V58H13.84V56ZM1.96 57V0.999996H-0.0399995V57H1.96ZM0.960001 2H52V-3.8147e-06H0.960001V2ZM76.8419 54.2L76.3666 55.0798L76.3708 55.0821L76.8419 54.2ZM65.8819 43.88L65.0207 44.3884L65.0244 44.3945L65.0281 44.4006L65.8819 43.88ZM65.8819 14.2L65.0253 13.684L65.0235 13.687L65.8819 14.2ZM76.8419 3.8L76.3708 2.91791L76.3666 2.92018L76.8419 3.8ZM119.242 14.2L118.385 14.716L118.388 14.7206L119.242 14.2ZM119.242 43.88L120.096 44.4006L120.098 44.396L119.242 43.88ZM108.282 54.2L108.757 55.0798L108.282 54.2ZM101.562 44.68L102.05 45.5525L102.057 45.5488L102.064 45.545L101.562 44.68ZM107.802 38.28L106.933 37.7857L106.929 37.7922L106.925 37.7987L107.802 38.28ZM107.802 19.72L106.925 20.2013L106.929 20.2078L106.933 20.2143L107.802 19.72ZM101.562 13.4L101.06 14.265L101.067 14.2688L101.073 14.2725L101.562 13.4ZM83.6419 13.4L84.1305 14.2725L84.1371 14.2688L84.1436 14.265L83.6419 13.4ZM77.3219 19.72L76.4526 19.2257L76.4489 19.2322L76.4453 19.2387L77.3219 19.72ZM77.3219 38.28L76.4453 38.7613L76.4489 38.7678L76.4526 38.7743L77.3219 38.28ZM83.6419 44.68L83.1402 45.545L83.1467 45.5488L83.1533 45.5525L83.6419 44.68ZM92.6019 56.96C86.9373 56.96 81.8482 55.7402 77.313 53.3179L76.3708 55.0821C81.2222 57.6732 86.6398 58.96 92.6019 58.96V56.96ZM77.3172 53.3202C72.8281 50.895 69.3074 47.577 66.7357 43.3594L65.0281 44.4006C67.7897 48.9297 71.5757 52.4916 76.3666 55.0798L77.3172 53.3202ZM66.743 43.3716C64.2269 39.1096 62.9619 34.3272 62.9619 29H60.9619C60.9619 34.6594 62.3102 39.7971 65.0207 44.3884L66.743 43.3716ZM62.9619 29C62.9619 23.6727 64.2269 18.9191 66.7403 14.713L65.0235 13.687C62.3102 18.2275 60.9619 23.3407 60.9619 29H62.9619ZM66.7385 14.716C69.3109 10.4458 72.8311 7.10332 77.3172 4.67982L76.3666 2.92018C71.5726 5.51001 67.7862 9.10087 65.0253 13.684L66.7385 14.716ZM77.313 4.68207C81.8482 2.25984 86.9373 1.04 92.6019 1.04V-0.960001C86.6398 -0.960001 81.2222 0.326824 76.3708 2.91792L77.313 4.68207ZM92.6019 1.04C98.2666 1.04 103.327 2.25988 107.807 4.67982L108.757 2.92018C103.957 0.326786 98.5638 -0.960001 92.6019 -0.960001V1.04ZM107.807 4.67982C112.293 7.10332 115.813 10.4458 118.385 14.716L120.098 13.684C117.338 9.10087 113.551 5.51001 108.757 2.92018L107.807 4.67982ZM118.388 14.7206C120.952 18.9257 122.242 23.6765 122.242 29H124.242C124.242 23.3368 122.865 18.2209 120.096 13.6794L118.388 14.7206ZM122.242 29C122.242 34.3234 120.952 39.103 118.385 43.364L120.098 44.396C122.865 39.8037 124.242 34.6633 124.242 29H122.242ZM118.388 43.3594C115.816 47.577 112.296 50.895 107.807 53.3202L108.757 55.0798C113.548 52.4916 117.334 48.9297 120.096 44.4006L118.388 43.3594ZM107.807 53.3202C103.327 55.7401 98.2666 56.96 92.6019 56.96V58.96C98.5638 58.96 103.957 57.6732 108.757 55.0798L107.807 53.3202ZM92.6019 47.92C96.0652 47.92 99.2224 47.1362 102.05 45.5525L101.073 43.8075C98.568 45.2105 95.7519 45.92 92.6019 45.92V47.92ZM102.064 45.545C104.889 43.9063 107.098 41.6398 108.678 38.7613L106.925 37.7987C105.519 40.3602 103.568 42.3603 101.06 43.815L102.064 45.545ZM108.671 38.7743C110.312 35.8878 111.122 32.6208 111.122 29H109.122C109.122 32.3125 108.385 35.2322 106.933 37.7857L108.671 38.7743ZM111.122 29C111.122 25.3792 110.312 22.1122 108.671 19.2257L106.933 20.2143C108.385 22.7678 109.122 25.6875 109.122 29H111.122ZM108.678 19.2387C107.096 16.3572 104.883 14.1138 102.05 12.5275L101.073 14.2725C103.574 15.6729 105.521 17.6428 106.925 20.2013L108.678 19.2387ZM102.064 12.535C99.2334 10.8935 96.0715 10.08 92.6019 10.08V12.08C95.7456 12.08 98.557 12.8132 101.06 14.265L102.064 12.535ZM92.6019 10.08C89.1322 10.08 85.9703 10.8935 83.1402 12.535L84.1436 14.265C86.6468 12.8132 89.4582 12.08 92.6019 12.08V10.08ZM83.1533 12.5275C80.3237 14.1121 78.0871 16.3513 76.4526 19.2257L78.1912 20.2143C79.65 17.6487 81.6267 15.6746 84.1305 14.2725L83.1533 12.5275ZM76.4453 19.2387C74.8618 22.1229 74.0819 25.3852 74.0819 29H76.0819C76.0819 25.6815 76.7952 22.7571 78.1985 20.2013L76.4453 19.2387ZM74.0819 29C74.0819 32.6148 74.8618 35.8771 76.4453 38.7613L78.1985 37.7987C76.7952 35.2429 76.0819 32.3185 76.0819 29H74.0819ZM76.4526 38.7743C78.0854 41.6458 80.3179 43.9081 83.1402 45.545L84.1436 43.815C81.6325 42.3585 79.6517 40.3542 78.1912 37.7857L76.4526 38.7743ZM83.1533 45.5525C85.9813 47.1362 89.1385 47.92 92.6019 47.92V45.92C89.4519 45.92 86.6358 45.2105 84.1305 43.8075L83.1533 45.5525ZM133.226 0.999996V-3.8147e-06H132.226V0.999996H133.226ZM146.106 0.999996H147.106V-3.8147e-06H146.106V0.999996ZM146.106 37.48H145.106V40.5376L146.912 38.0709L146.106 37.48ZM172.826 0.999996V-3.8147e-06H172.319L172.019 0.409092L172.826 0.999996ZM184.986 0.999996H185.986V-3.8147e-06H184.986V0.999996ZM184.986 57V58H185.986V57H184.986ZM172.186 57H171.186V58H172.186V57ZM172.186 20.6H173.186V17.5478L171.38 20.0083L172.186 20.6ZM145.466 57V58H145.972L146.272 57.5918L145.466 57ZM133.226 57H132.226V58H133.226V57ZM133.226 2H146.106V-3.8147e-06H133.226V2ZM145.106 0.999996V37.48H147.106V0.999996H145.106ZM146.912 38.0709L173.632 1.5909L172.019 0.409092L145.299 36.8891L146.912 38.0709ZM172.826 2H184.986V-3.8147e-06H172.826V2ZM183.986 0.999996V57H185.986V0.999996H183.986ZM184.986 56H172.186V58H184.986V56ZM173.186 57V20.6H171.186V57H173.186ZM171.38 20.0083L144.66 56.4082L146.272 57.5918L172.992 21.1917L171.38 20.0083ZM145.466 56H133.226V58H145.466V56ZM134.226 57V0.999996H132.226V57H134.226ZM209.889 54.28L209.409 55.1576L209.421 55.164L209.889 54.28ZM199.009 43.96L198.148 44.4684L198.151 44.4745L198.155 44.4806L199.009 43.96ZM199.009 14.12L198.152 13.604L198.15 13.607L199.009 14.12ZM209.889 3.8L210.36 4.68179L210.364 4.67982L209.889 3.8ZM238.609 2.6L238.207 3.51588L238.212 3.51786L238.609 2.6ZM248.529 9.96L249.207 10.6948L249.906 10.0501L249.297 9.31981L248.529 9.96ZM240.209 17.64L239.453 18.2946L240.128 19.075L240.887 18.3748L240.209 17.64ZM216.849 13.4L217.33 14.2766L217.337 14.273L217.343 14.2693L216.849 13.4ZM210.449 19.72L209.579 19.2257L209.576 19.2322L209.572 19.2387L210.449 19.72ZM210.449 38.28L209.572 38.7613L209.576 38.7678L209.579 38.7743L210.449 38.28ZM216.849 44.68L216.354 45.5493L216.361 45.553L216.367 45.5566L216.849 44.68ZM240.209 40.28L240.887 39.5452L240.124 38.8408L239.449 39.63L240.209 40.28ZM248.529 47.96L249.302 48.5939L249.9 47.8647L249.207 47.2252L248.529 47.96ZM238.609 55.4L238.212 54.4821L238.609 55.4ZM225.409 56.96C219.85 56.96 214.84 55.7666 210.356 53.396L209.421 55.164C214.218 57.7 219.554 58.96 225.409 58.96V56.96ZM210.368 53.4025C205.932 50.9781 202.436 47.6598 199.863 43.4394L198.155 44.4806C200.915 49.0068 204.672 52.5685 209.409 55.1575L210.368 53.4025ZM199.87 43.4516C197.355 39.1911 196.089 34.3825 196.089 29H194.089C194.089 34.7109 195.436 39.8756 198.148 44.4684L199.87 43.4516ZM196.089 29C196.089 23.6174 197.355 18.8376 199.867 14.633L198.15 13.607C195.436 18.1491 194.089 23.2893 194.089 29H196.089ZM199.865 14.636C202.438 10.3648 205.932 7.05069 210.36 4.68178L209.417 2.91821C204.673 5.45597 200.912 9.02188 198.152 13.604L199.865 14.636ZM210.364 4.67982C214.845 2.25915 219.879 1.04 225.489 1.04V-0.960001C219.578 -0.960001 214.213 0.327511 209.413 2.92018L210.364 4.67982ZM225.489 1.04C230.223 1.04 234.457 1.87202 238.207 3.51587L239.01 1.68413C234.974 -0.0853519 230.461 -0.960001 225.489 -0.960001V1.04ZM238.212 3.51786C242.019 5.16441 245.197 7.52451 247.761 10.6002L249.297 9.31981C246.527 5.99549 243.091 3.44893 239.006 1.68214L238.212 3.51786ZM247.85 9.2252L239.53 16.9052L240.887 18.3748L249.207 10.6948L247.85 9.2252ZM240.965 16.9854C236.995 12.401 232.03 10.08 226.129 10.08V12.08C231.428 12.08 235.849 14.1323 239.453 18.2946L240.965 16.9854ZM226.129 10.08C222.508 10.08 219.241 10.8894 216.354 12.5307L217.343 14.2693C219.897 12.8173 222.816 12.08 226.129 12.08V10.08ZM216.367 12.5234C213.484 14.1066 211.217 16.3462 209.579 19.2257L211.318 20.2143C212.774 17.6538 214.774 15.6801 217.33 14.2766L216.367 12.5234ZM209.572 19.2387C207.989 22.1229 207.209 25.3852 207.209 29H209.209C209.209 25.6815 209.922 22.7571 211.325 20.2013L209.572 19.2387ZM207.209 29C207.209 32.6148 207.989 35.8771 209.572 38.7613L211.325 37.7987C209.922 35.2429 209.209 32.3185 209.209 29H207.209ZM209.579 38.7743C211.215 41.6508 213.478 43.9137 216.354 45.5493L217.343 43.8107C214.78 42.353 212.776 40.3492 211.318 37.7857L209.579 38.7743ZM216.367 45.5566C219.252 47.14 222.514 47.92 226.129 47.92V45.92C222.81 45.92 219.886 45.2066 217.33 43.8034L216.367 45.5566ZM226.129 47.92C232.034 47.92 237.001 45.5686 240.969 40.93L239.449 39.63C235.843 43.8448 231.423 45.92 226.129 45.92V47.92ZM239.53 41.0148L247.85 48.6948L249.207 47.2252L240.887 39.5452L239.53 41.0148ZM247.755 47.3261C245.192 50.4533 242.016 52.8373 238.212 54.4821L239.006 56.3179C243.095 54.5494 246.532 51.9734 249.302 48.5939L247.755 47.3261ZM238.212 54.4821C234.406 56.1281 230.143 56.96 225.409 56.96V58.96C230.381 58.96 234.919 58.0853 239.006 56.3179L238.212 54.4821ZM278.656 34.44L279.496 33.8977L279.2 33.44H278.656V34.44ZM269.696 34.44V33.44H268.696V34.44H269.696ZM269.696 57V58H270.696V57H269.696ZM256.816 57H255.816V58H256.816V57ZM256.816 0.999996V-3.8147e-06H255.816V0.999996H256.816ZM269.696 0.999996H270.696V-3.8147e-06H269.696V0.999996ZM269.696 23.64H268.696V24.64H269.696V23.64ZM278.976 23.64V24.64H279.518L279.814 24.1851L278.976 23.64ZM293.696 0.999996V-3.8147e-06H293.153L292.857 0.454905L293.696 0.999996ZM307.376 0.999996L308.204 1.5609L309.261 -3.8147e-06H307.376V0.999996ZM289.056 28.04L288.228 27.4791L287.855 28.0293L288.218 28.5861L289.056 28.04ZM307.936 57V58H309.781L308.773 56.4539L307.936 57ZM293.216 57L292.375 57.5423L292.671 58H293.216V57ZM278.656 33.44H269.696V35.44H278.656V33.44ZM268.696 34.44V57H270.696V34.44H268.696ZM269.696 56H256.816V58H269.696V56ZM257.816 57V0.999996H255.816V57H257.816ZM256.816 2H269.696V-3.8147e-06H256.816V2ZM268.696 0.999996V23.64H270.696V0.999996H268.696ZM269.696 24.64H278.976V22.64H269.696V24.64ZM279.814 24.1851L294.534 1.54509L292.857 0.454905L278.137 23.0949L279.814 24.1851ZM293.696 2H307.376V-3.8147e-06H293.696V2ZM306.548 0.439095L288.228 27.4791L289.884 28.6009L308.204 1.5609L306.548 0.439095ZM288.218 28.5861L307.098 57.5461L308.773 56.4539L289.893 27.4939L288.218 28.5861ZM307.936 56H293.216V58H307.936V56ZM294.056 56.4577L279.496 33.8977L277.815 34.9823L292.375 57.5423L294.056 56.4577Z" fill="#BBBBBB"/>
</svg>
