<svg width="64" height="64" viewBox="0 0 64 64" fill="none" xmlns="http://www.w3.org/2000/svg">
<path d="M52.0405 0H11.9597C9.23279 0 7.01416 2.2185 7.01416 4.94551V59.0545C7.01416 61.7815 9.23279 64 11.9597 64H52.0404C54.7672 64 56.9859 61.7815 56.9859 59.0545V4.94551C56.986 2.2185 54.7674 0 52.0405 0ZM8.88916 4.94551C8.88916 3.25251 10.2667 1.875 11.9597 1.875H52.0404C53.7335 1.875 55.1109 3.25251 55.1109 4.94551V24.0483H8.88916V4.94551ZM55.111 59.0546C55.111 60.7476 53.7335 62.1251 52.0405 62.1251H11.9597C10.2665 62.1251 8.88916 60.7476 8.88916 59.0546V25.9234H55.111V59.0546Z" fill="#1A1817"/>
<path d="M43.0221 6.01208H14.9657C13.8962 6.01208 13.0262 6.88221 13.0262 7.95171V17.9719C13.0262 19.0414 13.8962 19.9114 14.9657 19.9114H16.9698C17.4875 19.9114 17.9073 19.4917 17.9073 18.9739C17.9073 18.456 17.4875 18.0364 16.9698 18.0364H14.9657C14.9301 18.0364 14.9012 18.0075 14.9012 17.9719V7.95171C14.9012 7.91609 14.9301 7.88709 14.9657 7.88709H43.0221C43.5399 7.88709 43.9596 7.46746 43.9596 6.94959C43.9596 6.43171 43.5399 6.01208 43.0221 6.01208Z" fill="#1A1817"/>
<path d="M49.0345 6.01208H47.0305C46.5126 6.01208 46.093 6.43171 46.093 6.94959C46.093 7.46746 46.5126 7.88721 47.0303 7.88721H49.0343C49.0698 7.88721 49.0988 7.91609 49.0988 7.95184V17.972C49.0988 18.0075 49.07 18.0365 49.0343 18.0365H20.978C20.4603 18.0365 20.0405 18.4561 20.0405 18.974C20.0405 19.4919 20.4603 19.9115 20.978 19.9115H49.0345C50.104 19.9115 50.974 19.0415 50.974 17.972V7.95171C50.974 6.88221 50.104 6.01208 49.0345 6.01208Z" fill="#1A1817"/>
<path d="M26.9901 30.0604C24.8156 30.0604 23.0466 31.8294 23.0466 34.0041C23.0466 36.1787 24.8156 37.9477 26.9901 37.9477C29.1646 37.9477 30.9336 36.1787 30.9336 34.0041C30.9336 31.8294 29.1646 30.0604 26.9901 30.0604ZM26.9901 36.0727C25.8495 36.0727 24.9216 35.1447 24.9216 34.0041C24.9216 32.8634 25.8495 31.9354 26.9901 31.9354C28.1307 31.9354 29.0586 32.8634 29.0586 34.0041C29.0586 35.1447 28.1307 36.0727 26.9901 36.0727Z" fill="#1A1817"/>
<path d="M26.9901 40.0808C24.8156 40.0808 23.0466 41.8498 23.0466 44.0243C23.0466 46.1988 24.8156 47.968 26.9901 47.968C29.1646 47.968 30.9336 46.1989 30.9336 44.0243C30.9336 41.8498 29.1646 40.0808 26.9901 40.0808ZM26.9901 46.0928C25.8495 46.0928 24.9216 45.1648 24.9216 44.0242C24.9216 42.8836 25.8495 41.9557 26.9901 41.9557C28.1307 41.9557 29.0586 42.8836 29.0586 44.0242C29.0586 45.1648 28.1307 46.0928 26.9901 46.0928Z" fill="#1A1817"/>
<path d="M26.9901 50.101C24.8156 50.101 23.0466 51.87 23.0466 54.0445C23.0466 56.219 24.8156 57.9881 26.9901 57.9881C29.1646 57.9881 30.9336 56.2191 30.9336 54.0445C30.9336 51.87 29.1646 50.101 26.9901 50.101ZM26.9901 56.113C25.8495 56.113 24.9216 55.185 24.9216 54.0443C24.9216 52.9037 25.8495 51.9758 26.9901 51.9758C28.1307 51.9758 29.0586 52.9037 29.0586 54.0443C29.0586 55.185 28.1307 56.113 26.9901 56.113Z" fill="#1A1817"/>
<path d="M37.0102 30.0604C34.8357 30.0604 33.0666 31.8294 33.0666 34.0041C33.0666 36.1787 34.8356 37.9477 37.0102 37.9477C39.1847 37.9477 40.9537 36.1787 40.9537 34.0041C40.9537 31.8294 39.1847 30.0604 37.0102 30.0604ZM37.0102 36.0727C35.8696 36.0727 34.9416 35.1447 34.9416 34.0041C34.9416 32.8634 35.8696 31.9354 37.0102 31.9354C38.1508 31.9354 39.0787 32.8634 39.0787 34.0041C39.0787 35.1447 38.1508 36.0727 37.0102 36.0727Z" fill="#1A1817"/>
<path d="M37.0102 40.0808C34.8357 40.0808 33.0666 41.8498 33.0666 44.0243C33.0666 46.1988 34.8356 47.968 37.0102 47.968C39.1847 47.968 40.9537 46.1989 40.9537 44.0243C40.9537 41.8498 39.1847 40.0808 37.0102 40.0808ZM37.0102 46.0928C35.8696 46.0928 34.9416 45.1648 34.9416 44.0242C34.9416 42.8836 35.8696 41.9557 37.0102 41.9557C38.1508 41.9557 39.0787 42.8836 39.0787 44.0242C39.0787 45.1648 38.1508 46.0928 37.0102 46.0928Z" fill="#1A1817"/>
<path d="M37.0102 50.101C34.8357 50.101 33.0666 51.87 33.0666 54.0445C33.0666 56.219 34.8356 57.9881 37.0102 57.9881C39.1847 57.9881 40.9537 56.2191 40.9537 54.0445C40.9537 51.87 39.1847 50.101 37.0102 50.101ZM37.0102 56.113C35.8696 56.113 34.9416 55.185 34.9416 54.0443C34.9416 52.9037 35.8696 51.9758 37.0102 51.9758C38.1508 51.9758 39.0787 52.9037 39.0787 54.0443C39.0787 55.185 38.1508 56.113 37.0102 56.113Z" fill="#1A1817"/>
<path d="M16.9699 30.0604C14.7954 30.0604 13.0262 31.8294 13.0262 34.0041C13.0262 36.1787 14.7954 37.9477 16.9699 37.9477C19.1444 37.9477 20.9134 36.1787 20.9134 34.0041C20.9134 31.8294 19.1444 30.0604 16.9699 30.0604ZM16.9699 36.0727C15.8293 36.0727 14.9012 35.1447 14.9012 34.0041C14.9012 32.8634 15.8293 31.9354 16.9699 31.9354C18.1105 31.9354 19.0384 32.8634 19.0384 34.0041C19.0384 35.1447 18.1105 36.0727 16.9699 36.0727Z" fill="#1A1817"/>
<path d="M16.9699 40.0808C14.7954 40.0808 13.0262 41.8498 13.0262 44.0243C13.0262 46.1988 14.7954 47.968 16.9699 47.968C19.1444 47.968 20.9134 46.1989 20.9134 44.0243C20.9134 41.8498 19.1444 40.0808 16.9699 40.0808ZM16.9699 46.0928C15.8293 46.0928 14.9012 45.1648 14.9012 44.0242C14.9012 42.8836 15.8293 41.9557 16.9699 41.9557C18.1105 41.9557 19.0384 42.8836 19.0384 44.0242C19.0384 45.1648 18.1105 46.0928 16.9699 46.0928Z" fill="#1A1817"/>
<path d="M16.9699 50.101C14.7954 50.101 13.0262 51.87 13.0262 54.0445C13.0262 56.219 14.7954 57.9881 16.9699 57.9881C19.1444 57.9881 20.9134 56.2191 20.9134 54.0445C20.9134 51.87 19.1444 50.101 16.9699 50.101ZM16.9699 56.113C15.8293 56.113 14.9012 55.185 14.9012 54.0443C14.9012 52.9037 15.8293 51.9758 16.9699 51.9758C18.1105 51.9758 19.0384 52.9037 19.0384 54.0443C19.0384 55.185 18.1105 56.113 16.9699 56.113Z" fill="#1A1817"/>
<path d="M47.0304 30.0604C44.8559 30.0604 43.0867 31.8294 43.0867 34.0041C43.0867 36.1787 44.8557 37.9477 47.0304 37.9477C49.2049 37.9477 50.9739 36.1787 50.9739 34.0041C50.9739 31.8294 49.2049 30.0604 47.0304 30.0604ZM47.0304 36.0727C45.8897 36.0727 44.9617 35.1447 44.9617 34.0041C44.9617 32.8634 45.8897 31.9354 47.0304 31.9354C48.171 31.9354 49.0989 32.8634 49.0989 34.0041C49.0989 35.1447 48.171 36.0727 47.0304 36.0727Z" fill="#1A1817"/>
<path d="M47.0304 40.0808C44.8559 40.0808 43.0867 41.8498 43.0867 44.0243V54.0445C43.0867 56.219 44.8557 57.9881 47.0304 57.9881C49.2049 57.9881 50.9739 56.2191 50.9739 54.0445V44.0243C50.9739 41.8498 49.2049 40.0808 47.0304 40.0808ZM49.0989 54.0443C49.0989 55.185 48.1709 56.113 47.0304 56.113C45.8897 56.113 44.9617 55.185 44.9617 54.0443V44.0242C44.9617 42.8836 45.8897 41.9557 47.0304 41.9557C48.1709 41.9557 49.0989 42.8836 49.0989 44.0242V54.0443Z" fill="#1A1817"/>
</svg>
