<svg width="8" height="6" viewBox="0 0 8 6" fill="none" xmlns="http://www.w3.org/2000/svg">
<path d="M0.0923077 3.3C0.0307692 3.24 0 3.15 0 3.09C0 3.03 0.0307692 2.94 0.0923077 2.88L0.523077 2.46C0.646154 2.34 0.830769 2.34 0.953846 2.46L0.984615 2.49L2.67692 4.26C2.73846 4.32 2.83077 4.32 2.89231 4.26L7.01538 0.09H7.04615C7.16923 -0.03 7.35385 -0.03 7.47692 0.09L7.90769 0.51C8.03077 0.63 8.03077 0.81 7.90769 0.93L2.98462 5.91C2.92308 5.97 2.86154 6 2.76923 6C2.67692 6 2.61538 5.97 2.55385 5.91L0.153846 3.39L0.0923077 3.3Z" fill="#1A1817"/>
</svg>
