<svg width="24" height="24" viewBox="0 0 24 24" fill="none" xmlns="http://www.w3.org/2000/svg">
<path d="M10.8538 11.9196L0.230797 22.5426C-0.0643281 22.8377 -0.0643281 23.3158 0.230797 23.6109C0.378172 23.7587 0.571672 23.8322 0.764797 23.8322C0.958297 23.8322 1.15142 23.7587 1.2988 23.6109L12.0017 12.9081L22.7046 23.6109C22.8523 23.7587 23.0454 23.8322 23.2386 23.8322C23.4317 23.8322 23.6252 23.7587 23.7726 23.6109C24.0677 23.3158 24.0677 22.8377 23.7726 22.5426L13.1499 11.9196L23.7797 1.28907C24.0748 0.993946 24.0748 0.515821 23.7797 0.220696C23.4846 -0.0740537 23.0064 -0.0740537 22.7117 0.220696L12.002 10.9311L1.2913 0.221071C0.996172 -0.0736787 0.518422 -0.0736787 0.223297 0.221071C-0.0718281 0.516196 -0.0718281 0.994321 0.223297 1.28945L10.8538 11.9196Z" fill="#1A1817"/>
</svg>
