<svg width="64" height="64" viewBox="0 0 64 64" fill="none" xmlns="http://www.w3.org/2000/svg">
<path d="M13.9636 43.0866C12.8941 43.0866 12.0241 43.9566 12.0241 45.0261C12.0241 46.0956 12.8941 46.9656 13.9636 46.9656C15.0331 46.9656 15.9031 46.0956 15.9031 45.0261C15.9031 43.9566 15.0331 43.0866 13.9636 43.0866Z" fill="#1A1817"/>
<path d="M54.0444 43.0866C52.9749 43.0866 52.1049 43.9566 52.1049 45.0261C52.1049 46.0956 52.9749 46.9656 54.0444 46.9656C55.1139 46.9656 55.9839 46.0956 55.9839 45.0261C55.9839 43.9566 55.1139 43.0866 54.0444 43.0866Z" fill="#1A1817"/>
<path d="M61.9886 30.6537L54.7706 28.2477L51.397 18.9705C50.9759 17.8124 49.865 17.0342 48.6326 17.0342H39.9516V14.9656C39.9516 13.8961 39.0816 13.0261 38.0121 13.0261H1.9395C0.87 13.0261 0 13.8962 0 14.9657V42.0202C0 43.0897 0.87 43.9597 1.9395 43.9597H8.11375C8.05075 44.306 8.01612 44.6621 8.01612 45.0262C8.01612 48.3057 10.6842 50.9739 13.9637 50.9739C17.2432 50.9739 19.9114 48.3057 19.9114 45.0262C19.9114 44.662 19.8767 44.306 19.8137 43.9597H48.1946C48.1316 44.306 48.097 44.6621 48.097 45.0262C48.097 48.3057 50.7651 50.9739 54.0446 50.9739C57.3241 50.9739 59.9922 48.3057 59.9922 45.0262C59.9922 44.563 59.9372 44.1125 59.8366 43.6795L61.8205 42.6876C63.1647 42.0152 64 40.6636 64 39.1602V33.4444C64 32.1764 63.1917 31.0549 61.9886 30.6537ZM1.875 14.9657C1.875 14.9301 1.90387 14.9011 1.9395 14.9011H38.0121C38.0477 14.9011 38.0766 14.93 38.0766 14.9656V35.0705H1.875V14.9657ZM13.9636 49.0989C11.718 49.0989 9.891 47.2719 9.891 45.0262C9.891 42.7806 11.718 40.9536 13.9636 40.9536C16.2092 40.9536 18.0362 42.7806 18.0362 45.0262C18.0364 47.2719 16.2094 49.0989 13.9636 49.0989ZM38.0766 42.0846H19.1297C18.1044 40.291 16.1735 39.0786 13.9636 39.0786C11.7537 39.0786 9.823 40.291 8.79762 42.0846H1.9395C1.90387 42.0846 1.875 42.0557 1.875 42.0201V36.9455H38.0766V42.0846ZM50.8372 22.9174L52.706 28.0565H50.693L48.8242 22.9174H50.8372ZM39.9516 18.9092H48.6326C49.0795 18.9092 49.4822 19.1914 49.635 19.6112L50.1554 21.0422H39.9516V18.9092ZM39.9516 22.9174H46.8291L48.6979 28.0565H39.9516V22.9174V22.9174ZM54.0444 49.0989C51.7988 49.0989 49.9717 47.2719 49.9717 45.0262C49.9717 42.7806 51.7988 40.9536 54.0444 40.9536C56.29 40.9536 58.117 42.7806 58.117 45.0262C58.117 47.2719 56.29 49.0989 54.0444 49.0989ZM62.125 35.0704H61.0585C60.5407 35.0704 60.121 35.4901 60.121 36.0079C60.121 36.5256 60.5407 36.9454 61.0585 36.9454H62.125V39.1601C62.125 39.9489 61.6869 40.6577 60.9816 41.0105L59.1258 41.9384C58.0808 40.225 56.194 39.0786 54.0444 39.0786C51.8345 39.0786 49.9038 40.291 48.8784 42.0846H39.9516V36.9455H57.0505C57.5682 36.9455 57.988 36.5257 57.988 36.008C57.988 35.4902 57.5682 35.0705 57.0505 35.0705H39.9516V29.9314H53.8923L61.3957 32.4325C61.832 32.5779 62.125 32.9845 62.125 33.4442V35.0704V35.0704Z" fill="#1A1817"/>
<path d="M31.4631 24.1718L24.449 20.1638C23.9996 19.9069 23.4269 20.0632 23.1699 20.5127C22.913 20.9623 23.0691 21.5349 23.5187 21.7918L27.4677 24.0484H8.95361C8.43586 24.0484 8.01611 24.4682 8.01611 24.9859C8.01611 25.5037 8.43586 25.9233 8.95361 25.9233H27.4677L23.5187 28.1799C23.0692 28.4368 22.913 29.0094 23.1699 29.4591C23.3429 29.7618 23.6592 29.9316 23.9847 29.9316C24.1425 29.9316 24.3024 29.8917 24.449 29.8078L31.4631 25.7998C31.7551 25.6329 31.9355 25.3223 31.9355 24.9858C31.9355 24.6493 31.7552 24.3388 31.4631 24.1718Z" fill="#1A1817"/>
</svg>
