<svg width="16" height="16" viewBox="0 0 16 16" fill="none" xmlns="http://www.w3.org/2000/svg">
<path d="M8.00012 7.04811L14.795 2.81132C14.7211 2.7996 14.6461 2.79199 14.5693 2.79199H1.43098C1.35412 2.79199 1.27902 2.7999 1.20538 2.81132L8.00012 7.04811Z" fill="#BBBBBB"/>
<path d="M8.42776 8.6864C8.41869 8.69226 8.40873 8.69606 8.39936 8.70163C8.38955 8.70704 8.37901 8.71231 8.36921 8.71729C8.31577 8.74481 8.26073 8.76692 8.20451 8.78156C8.19866 8.78317 8.19309 8.78405 8.18753 8.78522C8.12561 8.79971 8.06339 8.80864 8.00103 8.80864C8.00088 8.80864 8.00059 8.80864 8.00044 8.80864C8.00029 8.80864 8 8.80864 7.99971 8.80864C7.93734 8.80864 7.87498 8.79986 7.81335 8.78522C7.80764 8.7839 7.80178 8.78302 7.79607 8.78156C7.73986 8.76677 7.68525 8.74467 7.63153 8.71729C7.62143 8.71231 7.61118 8.70704 7.60122 8.70163C7.59171 8.69621 7.5819 8.6924 7.57253 8.6864L0.0223983 3.97852C0.00878365 4.05801 0 4.1394 0 4.22314V11.7784C0 12.5686 0.640474 13.2092 1.43086 13.2092H14.5691C15.3594 13.2092 16 12.5686 16 11.7784V4.22314C16 4.1394 15.9914 4.05815 15.9775 3.97852L8.42776 8.6864Z" fill="#BBBBBB"/>
</svg>
