<svg width="24" height="24" viewBox="0 0 24 24" fill="none" xmlns="http://www.w3.org/2000/svg">
<g clip-path="url(#clip0_106_541)">
<path d="M9.95526 7.58918V9.57206H8.39984L8.39984 11.9956H9.95526V19.1999H13.1525L13.1525 11.9956H15.2974C15.2974 11.9956 15.4995 10.8335 15.5968 9.56198H13.1649V7.90598C13.1649 7.65686 13.5136 7.32422 13.8593 7.32422L15.5998 7.32422V4.7999H13.2312C9.87657 4.7999 9.95526 7.2263 9.95526 7.58918Z" fill="#1A1817"/>
<path d="M4.8 2.4C4.16348 2.4 3.55303 2.65286 3.10294 3.10294C2.65286 3.55303 2.4 4.16348 2.4 4.8L2.4 19.2C2.4 19.8365 2.65286 20.447 3.10294 20.8971C3.55303 21.3471 4.16348 21.6 4.8 21.6L19.2 21.6C19.8365 21.6 20.447 21.3471 20.8971 20.8971C21.3471 20.447 21.6 19.8365 21.6 19.2L21.6 4.8C21.6 4.16348 21.3471 3.55303 20.8971 3.10294C20.447 2.65286 19.8365 2.4 19.2 2.4L4.8 2.4ZM4.8 0L19.2 0C20.473 0 21.6939 0.505713 22.5941 1.40589C23.4943 2.30606 24 3.52696 24 4.8L24 19.2C24 20.473 23.4943 21.6939 22.5941 22.5941C21.6939 23.4943 20.473 24 19.2 24L4.8 24C3.52696 24 2.30606 23.4943 1.40589 22.5941C0.505713 21.6939 0 20.473 0 19.2L0 4.8C0 3.52696 0.505713 2.30606 1.40589 1.40589C2.30606 0.505713 3.52696 0 4.8 0Z" fill="#1A1817"/>
</g>
<defs>
<clipPath id="clip0_106_541">
<rect width="24" height="24" fill="white"/>
</clipPath>
</defs>
</svg>
