<svg width="24" height="24" viewBox="0 0 24 24" fill="none" xmlns="http://www.w3.org/2000/svg">
<g clip-path="url(#clip0_197_4733)">
<path d="M23.9306 1.35659C23.8105 1.1019 23.5542 0.939453 23.2726 0.939453H0.727432C0.445884 0.939453 0.189648 1.1019 0.0694836 1.35659C-0.0505843 1.61127 -0.0129539 1.91231 0.166178 2.12956L8.83289 12.6412V22.3339C8.83289 22.5856 8.96294 22.8194 9.1767 22.952C9.29386 23.0247 9.42682 23.0613 9.56028 23.0613C9.67055 23.0613 9.78121 23.0362 9.88324 22.9857L14.7527 20.5722C15.0001 20.4496 15.1566 20.1975 15.157 19.9214L15.1665 12.6415L23.8337 2.12946C24.0129 1.91231 24.0507 1.61117 23.9306 1.35659ZM13.8784 11.9172C13.7712 12.0472 13.7124 12.2104 13.7122 12.379L13.7029 19.4689L10.2878 21.1616V12.3799C10.2878 12.2111 10.2291 12.0475 10.1216 11.9172L2.26989 2.39414H21.7301L13.8784 11.9172Z" fill="#1A1817"/>
</g>
<defs>
<clipPath id="clip0_197_4733">
<rect width="24" height="24" fill="white"/>
</clipPath>
</defs>
</svg>
