<svg width="14" height="14" viewBox="0 0 14 14" fill="none" xmlns="http://www.w3.org/2000/svg">
<path d="M12.8551 1.71805C12.131 0.939707 11.1163 0.49684 10.0532 0.495199C8.98921 0.49643 7.97345 0.939062 7.2482 1.71755L7.00103 1.97874L6.75385 1.71755C5.31475 0.168692 2.8925 0.0797434 1.34367 1.51884C1.27504 1.58264 1.20875 1.64889 1.14496 1.71755C-0.381652 3.36419 -0.381652 5.90899 1.14496 7.55562L6.63778 13.3482C6.82782 13.5488 7.14451 13.5574 7.34512 13.3673C7.35169 13.3611 7.35808 13.3547 7.3643 13.3482L12.8551 7.55562C14.3816 5.90916 14.3816 3.36451 12.8551 1.71805ZM12.1311 6.86663H12.1306L7.00103 12.2769L1.87097 6.86663C0.704729 5.60845 0.704729 3.66422 1.87097 2.40604C2.93006 1.25815 4.7192 1.18618 5.86709 2.24526C5.92282 2.29669 5.97645 2.35031 6.02787 2.40604L6.63778 3.0495C6.83878 3.24921 7.1633 3.24921 7.3643 3.0495L7.97421 2.40654C9.0333 1.25865 10.8224 1.18668 11.9703 2.24576C12.0261 2.29719 12.0797 2.35081 12.1311 2.40654C13.3075 3.66671 13.3161 5.61449 12.1311 6.86663Z" fill="black"/>
</svg>
