<svg width="50" height="50" viewBox="0 0 50 50" fill="none" xmlns="http://www.w3.org/2000/svg">
<path d="M25.5 5C26.8807 5 28 3.88071 28 2.5C28 1.11929 26.8807 0 25.5 0C24.1193 0 23 1.11929 23 2.5C23 3.88071 24.1193 5 25.5 5Z" fill="#383A39"/>
<path d="M25.5 50C26.8807 50 28 48.8807 28 47.5C28 46.1193 26.8807 45 25.5 45C24.1193 45 23 46.1193 23 47.5C23 48.8807 24.1193 50 25.5 50Z" fill="#ECEEEE"/>
<path d="M13.5 8C14.8807 8 16 6.88071 16 5.5C16 4.11929 14.8807 3 13.5 3C12.1193 3 11 4.11929 11 5.5C11 6.88071 12.1193 8 13.5 8Z" fill="#77807F"/>
<path d="M38.6799 43.2424C39.3506 44.4162 38.9314 45.9253 37.7576 46.6799C36.5838 47.3506 35.0747 46.9314 34.3201 45.7576C33.6494 44.5838 34.0686 43.0747 35.2424 42.3201C36.4162 41.6494 38.0092 42.0686 38.6799 43.2424Z" fill="#F2F4F4"/>
<path d="M6.75763 11.3373C7.93142 12.0056 8.35063 13.5092 7.67989 14.7622C7.00916 15.9317 5.5 16.3493 4.24237 15.6811C3.06858 15.0128 2.64937 13.5092 3.32011 12.2562C3.99084 11.0032 5.58384 10.669 6.75763 11.3373Z" fill="#9FAAA9"/>
<path d="M45.7576 34.3201C46.9314 34.9908 47.3506 36.5 46.6799 37.7576C46.0092 38.9314 44.5 39.3506 43.2424 38.6799C42.0686 38.0092 41.6494 36.5 42.3201 35.2424C42.9908 34.0686 44.5 33.6494 45.7576 34.3201Z" fill="#F2F7F7"/>
<path d="M2.5 28C3.88071 28 5 26.8807 5 25.5C5 24.1193 3.88071 23 2.5 23C1.11929 23 0 24.1193 0 25.5C0 26.8807 1.11929 28 2.5 28Z" fill="#B2BBBA"/>
<path d="M47.5 28C48.8807 28 50 26.8807 50 25.5C50 24.1193 48.8807 23 47.5 23C46.1193 23 45 24.1193 45 25.5C45 26.8807 46.1193 28 47.5 28Z" fill="white"/>
<path d="M4.27015 34.3201C5.43526 33.6494 6.93326 34.0686 7.68226 35.2424C8.34804 36.4162 7.93193 37.9253 6.76682 38.6799C5.60171 39.3506 4.10371 38.9314 3.35471 37.7576C2.60571 36.5838 3.10504 35.0747 4.27015 34.3201Z" fill="#C5CCCB"/>
<path d="M43.2424 11.3201C44.4162 10.6494 45.9253 11.0686 46.6799 12.2424C47.3506 13.4162 46.9314 14.9253 45.7576 15.6799C44.5838 16.3506 43.0747 15.9314 42.3201 14.7576C41.6494 13.5838 42.0686 11.9908 43.2424 11.3201Z" fill="black"/>
<path d="M11.3201 43.2424C11.9908 42.0686 13.5 41.6494 14.7576 42.3201C15.9314 42.9908 16.3506 44.5 15.6799 45.7576C15.0092 46.9314 13.5 47.3506 12.2424 46.6799C11.0686 45.9253 10.6494 44.4162 11.3201 43.2424Z" fill="#D9DDDD"/>
<path d="M34.3201 4.24237C34.9908 3.06858 36.5 2.64937 37.7576 3.32011C38.9314 3.99084 39.3506 5.5 38.6799 6.75763C38.0092 7.93142 36.5 8.35063 35.2424 7.67989C34.0686 7.00916 33.6494 5.5 34.3201 4.24237Z" fill="#111111"/>
<path d="M30.1862 31.3833C29.9586 31.1068 29.5461 31.0635 29.2647 31.2864C27.6713 32.5475 25.7441 33.214 23.6923 33.2136C18.795 33.2136 14.8107 29.3048 14.8107 24.4996C14.8107 19.6944 18.795 15.7855 23.6923 15.7855C27.0998 15.7855 30.1443 17.7303 31.6219 20.5946C32.1667 21.6503 31.4074 22.3782 30.2356 22.0961L27.9898 21.5552C27.6386 21.4703 27.2838 21.6812 27.1973 22.0263C27.1846 22.0777 27.1785 22.1296 27.1785 22.1801C27.1785 22.4695 27.3786 22.7322 27.6779 22.8043L33.5749 24.2257C33.9035 24.305 34.2399 24.1254 34.3504 23.8112L36.4638 17.8126C36.5228 17.6446 36.5075 17.4693 36.4341 17.3214C36.3096 17.0706 35.8137 16.9026 35.5576 17.0243C35.4065 17.0963 35.2837 17.2249 35.2247 17.3925L34.2914 20.0416C33.8978 21.1604 33.3591 21.1205 32.8195 20.0617C31.1308 16.7504 27.6202 14.5 23.6923 14.5C18.0723 14.5 13.5 18.9858 13.5 24.5C13.5 30.0137 18.0723 34.5 23.6923 34.5C26.0132 34.5 28.2843 33.7143 30.0875 32.2877C30.3693 32.0644 30.4134 31.6602 30.1862 31.3833Z" fill="#1A1817"/>
</svg>
