<svg width="16" height="16" viewBox="0 0 16 16" fill="none" xmlns="http://www.w3.org/2000/svg">
<path d="M7.99998 0C4.80482 0 2.20538 2.59944 2.20538 5.79456C2.20538 9.75981 7.39098 15.581 7.61176 15.8269C7.81913 16.0579 8.1812 16.0575 8.3882 15.8269C8.60898 15.581 13.7946 9.75981 13.7946 5.79456C13.7945 2.59944 11.1951 0 7.99998 0ZM7.99998 8.70997C6.39241 8.70997 5.0846 7.40212 5.0846 5.79456C5.0846 4.187 6.39245 2.87919 7.99998 2.87919C9.60751 2.87919 10.9153 4.18703 10.9153 5.79459C10.9153 7.40216 9.60751 8.70997 7.99998 8.70997Z" fill="#BBBBBB"/>
</svg>
