<svg width="16" height="16" viewBox="0 0 16 16" fill="none" xmlns="http://www.w3.org/2000/svg">
<g clip-path="url(#clip0_967_766)">
<path d="M7.67772 9.84029C6.30574 8.71215 5.38966 7.32007 4.90805 6.52798L4.5488 5.85071C4.67441 5.71594 5.63232 4.69021 6.04743 4.13367C6.56909 3.43483 5.81275 2.80366 5.81275 2.80366C5.81275 2.80366 3.68459 0.675208 3.19958 0.253004C2.71457 -0.16979 2.15627 0.0650299 2.15627 0.0650299C1.13689 0.723679 0.0801228 1.29632 0.0167258 4.05032C0.0143613 6.62877 1.97169 9.28819 4.08832 11.347C6.20836 13.6722 9.11915 16.0027 11.9333 16C14.687 15.9372 15.2595 14.8806 15.9182 13.8612C15.9182 13.8612 16.1531 13.3033 15.7308 12.8179C15.3081 12.3326 13.1794 10.204 13.1794 10.204C13.1794 10.204 12.5487 9.4475 11.8497 9.9696C11.3287 10.359 10.3933 11.2251 10.1679 11.4351C10.1684 11.4359 8.60355 10.6016 7.67772 9.84029Z" fill="#BBBBBB"/>
</g>
<defs>
<clipPath id="clip0_967_766">
<rect width="16" height="16" fill="white"/>
</clipPath>
</defs>
</svg>
