<svg width="24" height="24" viewBox="0 0 24 24" fill="none" xmlns="http://www.w3.org/2000/svg">
<path d="M9.1875 3C10.6581 2.99997 12.0979 3.40051 13.336 4.15409C14.5741 4.90767 15.5585 5.98267 16.1725 7.25154C16.7865 8.52041 17.0043 9.92989 16.8001 11.3128C16.5958 12.6956 15.978 13.9938 15.0201 15.0533L21.255 20.9736C21.4941 21.2006 21.4941 21.5815 21.255 21.8085C21.0328 22.0195 20.6843 22.0195 20.4622 21.8085L14.1828 15.8461C13.2413 16.6106 12.1192 17.1477 10.9119 17.4117C9.70472 17.6757 8.44819 17.6587 7.24937 17.3622C6.05055 17.0657 4.94496 16.4985 4.02676 15.7088C3.10855 14.9192 2.40494 13.9306 1.97585 12.8271C1.54675 11.7236 1.40489 10.538 1.56234 9.37126C1.71979 8.20451 2.17189 7.09117 2.88013 6.12608C3.58837 5.16098 4.53177 4.37272 5.62998 3.82842C6.72819 3.28412 7.94868 2.99991 9.1875 3ZM9.1875 4.12291C7.46245 4.12291 5.80805 4.7736 4.58826 5.93182C3.36847 7.09005 2.68319 8.66094 2.68319 10.2989C2.68319 11.9369 3.36847 13.5078 4.58826 14.666C5.80805 15.8243 7.46245 16.4749 9.1875 16.4749C10.9125 16.4749 12.5669 15.8243 13.7867 14.666C15.0065 13.5078 15.6918 11.9369 15.6918 10.2989C15.6918 8.66094 15.0065 7.09005 13.7867 5.93182C12.5669 4.7736 10.9125 4.12291 9.1875 4.12291Z" fill="#1A1817" stroke="#1A1817" stroke-width="0.5"/>
</svg>
