<svg width="64" height="64" viewBox="0 0 64 64" fill="none" xmlns="http://www.w3.org/2000/svg">
<path d="M62.8213 33.5522C61.9768 32.6962 61.9768 31.3037 62.8213 30.4478C63.7426 29.5141 64.1533 28.2355 63.9481 26.9398C63.7429 25.6442 62.9571 24.5552 61.7925 23.9518C60.7249 23.3988 60.2946 22.0745 60.8331 20.9996C61.4209 19.8269 61.4164 18.484 60.8208 17.3151C60.2253 16.1462 59.1414 15.3534 57.8473 15.1395C56.661 14.9435 55.8427 13.8169 56.0227 12.6282C56.2192 11.3312 55.8 10.0555 54.8724 9.12787C53.9448 8.20025 52.6695 7.78088 51.3719 7.9775C50.1845 8.15763 49.0567 7.33913 48.8607 6.15275C48.6468 4.85851 47.8537 3.77476 46.6849 3.17914C45.5161 2.58364 44.1732 2.57914 43.0004 3.16689C41.9254 3.70576 40.6013 3.27514 40.0482 2.20764C39.4449 1.04276 38.3557 0.257141 37.0602 0.0520164C35.7656 -0.153108 34.4861 0.257516 33.5523 1.17889C32.6963 2.02339 31.3042 2.02339 30.4482 1.17889C29.5143 0.257516 28.2351 -0.153358 26.9403 0.0520164C25.6447 0.257266 24.5556 1.04301 23.9523 2.20764C23.3992 3.27526 22.0751 3.70576 21 3.16701C19.8272 2.57926 18.4845 2.58389 17.3156 3.17926C16.1466 3.77476 15.3536 4.85876 15.1399 6.153C14.9439 7.33925 13.8167 8.15763 12.6286 7.9775C11.3322 7.781 10.0557 8.20025 9.12812 9.12787C8.2005 10.0555 7.78137 11.3312 7.97787 12.6281C8.15787 13.8169 7.3395 14.9434 6.15313 15.1395C4.85888 15.3534 3.77513 16.1464 3.17963 17.3151C2.58401 18.484 2.57951 19.8267 3.16726 20.9996C3.70588 22.0746 3.27551 23.3988 2.20801 23.9518C1.04314 24.5552 0.257512 25.6442 0.0522626 26.9398C-0.152987 28.2355 0.257762 29.5141 1.17914 30.4478C2.02363 31.3037 2.02363 32.6962 1.17914 33.5521C0.257762 34.4858 -0.152862 35.7644 0.0522626 37.0601C0.257512 38.3557 1.04326 39.4447 2.20788 40.0481C3.27551 40.6011 3.70576 41.9254 3.16726 43.0003C2.57951 44.1731 2.58401 45.5159 3.17963 46.6848C3.77513 47.8537 4.859 48.6467 6.15313 48.8604C7.33937 49.0564 8.15775 50.183 7.97787 51.3717C7.78137 52.6687 8.2005 53.9444 9.12812 54.872C10.0557 55.7997 11.331 56.2189 12.6286 56.0224C13.816 55.8424 14.9437 56.6608 15.1399 57.8472C15.3537 59.1414 16.1469 60.2252 17.3155 60.8207C18.4844 61.4161 19.8274 61.4205 21.0001 60.833C22.0752 60.2943 23.3992 60.7246 23.9523 61.7923C24.5556 62.957 25.6447 63.7426 26.9402 63.9479C28.2355 64.1534 29.5146 63.7424 30.4482 62.821C31.3042 61.9765 32.6963 61.9765 33.5523 62.821C34.3283 63.5866 35.3423 63.9996 36.4063 63.9996C36.6227 63.9996 36.8413 63.9825 37.0603 63.9479C38.3559 63.7426 39.4449 62.9569 40.0482 61.7923C40.6012 60.7246 41.9256 60.2942 43.0006 60.833C44.1736 61.4208 45.5163 61.4161 46.6849 60.8207C47.8539 60.2252 48.6468 59.1413 48.8607 57.847C49.0567 56.6608 50.1842 55.8427 51.3719 56.0225C52.6689 56.2192 53.9448 55.7998 54.8724 54.8722C55.8 53.9445 56.2192 52.6688 56.0227 51.3719C55.8427 50.1832 56.661 49.0567 57.8473 48.8605C59.1415 48.6467 60.2253 47.8537 60.8208 46.6849C61.4164 45.5161 61.4209 44.1733 60.8331 43.0004C60.2945 41.9254 60.7249 40.6012 61.7924 40.0482C62.9573 39.4448 63.7429 38.3557 63.9481 37.0602C64.1534 35.7646 63.7426 34.4858 62.8213 33.5522ZM61.4865 34.8688C61.985 35.3741 62.2073 36.0657 62.0961 36.7666C61.9851 37.4674 61.56 38.0567 60.9298 38.3832C58.9565 39.4054 58.1613 41.8534 59.1566 43.8402C59.4746 44.4747 59.4721 45.2012 59.1499 45.8334C58.8278 46.4658 58.2414 46.8948 57.5413 47.0105C55.3487 47.3729 53.8357 49.4553 54.1687 51.6527C54.275 52.3543 54.0482 53.0445 53.5463 53.5462C53.0444 54.048 52.3545 54.275 51.6527 54.1685C49.455 53.8357 47.3728 55.3485 47.0105 57.5412C46.8948 58.2414 46.4658 58.8278 45.8334 59.1499C45.2009 59.4722 44.4745 59.4745 43.8402 59.1565C41.8536 58.1609 39.4053 58.9562 38.3832 60.9296C38.0568 61.5599 37.4676 61.9849 36.7666 62.0959C36.0657 62.207 35.3738 61.9848 34.8687 61.4864C34.0777 60.7058 33.0388 60.3155 31.9998 60.3155C30.9608 60.3155 29.9218 60.7059 29.131 61.4863C28.6257 61.9849 27.933 62.2071 27.2331 62.0959C26.5322 61.9849 25.943 61.5598 25.6165 60.9296C24.5942 58.9563 22.1461 58.161 20.1592 59.1565C19.5249 59.4744 18.7982 59.472 18.1662 59.1499C17.5337 58.8278 17.1047 58.2413 16.989 57.5412C16.6267 55.3484 14.5442 53.8354 12.3469 54.1684C11.6452 54.2748 10.9549 54.0478 10.4531 53.546C9.95124 53.0443 9.72449 52.354 9.83074 51.6524C10.1637 49.4552 8.65075 47.3727 6.45813 47.0103C5.75788 46.8946 5.17163 46.4655 4.8495 45.8332C4.52725 45.2008 4.52475 44.4743 4.84275 43.8399C5.83838 41.8532 5.043 39.4051 3.06963 38.3829C2.43951 38.0566 2.01438 37.4673 1.90338 36.7664C1.79226 36.0654 2.01451 35.3737 2.51301 34.8686C4.07388 33.2866 4.07388 30.7126 2.51301 29.1307C2.01451 28.6255 1.79226 27.9338 1.90338 27.233C2.01438 26.5321 2.43951 25.9428 3.06976 25.6163C5.04288 24.5941 5.83825 22.1461 4.84288 20.1592C4.52488 19.5247 4.52738 18.7982 4.84963 18.166C5.17175 17.5336 5.75813 17.1046 6.45825 16.9889C8.65087 16.6265 10.1639 14.5441 9.83087 12.3467C9.72449 11.6451 9.95137 10.9549 10.4532 10.4532C10.9552 9.95137 11.6456 9.72462 12.347 9.83087C14.5441 10.1636 16.6269 8.65088 16.9891 6.45825C17.1049 5.75801 17.5339 5.17163 18.1664 4.84951C18.7987 4.52726 19.5254 4.52501 20.1595 4.84288C22.1462 5.83851 24.5943 5.04338 25.6166 3.06964C25.943 2.43951 26.5322 2.01439 27.2332 1.90339C27.9337 1.79239 28.6258 2.01451 29.1311 2.51301C30.7131 4.07401 33.2869 4.07401 34.8688 2.51301C35.3739 2.01451 36.0654 1.79226 36.7667 1.90339C37.4676 2.01439 38.0568 2.43951 38.3833 3.06964C39.4057 5.04301 41.8538 5.83826 43.8406 4.84276C44.4749 4.52476 45.2016 4.52738 45.8335 4.84938C46.466 5.17151 46.895 5.75801 47.0108 6.45813C47.373 8.65088 49.4554 10.1639 51.6529 9.83087C52.3547 9.7245 53.0449 9.9515 53.5467 10.4532C54.0485 10.955 54.2753 11.6452 54.169 12.347C53.836 14.5442 55.349 16.6267 57.5417 16.9891C58.2419 17.1049 58.8281 17.5339 59.1503 18.1662C59.4725 18.7986 59.475 19.5251 59.157 20.1595C58.1614 22.1462 58.9568 24.5943 60.9303 25.6166C61.5604 25.943 61.9855 26.5322 62.0965 27.2331C62.2076 27.9341 61.9854 28.6258 61.4869 29.1308C59.9258 30.713 59.9258 33.287 61.4865 34.8688Z" fill="#1A1817"/>
<path d="M41.0178 16.0327H34.4902C32.6338 16.0327 30.8887 16.7556 29.5762 18.0681L15.1333 32.5109C13.2053 34.4391 13.2053 37.5765 15.1333 39.5047L24.4951 48.8663C25.4292 49.8004 26.6709 50.3148 27.9921 50.3148C29.3132 50.3148 30.5549 49.8003 31.489 48.8663L45.9319 34.4236C47.2444 33.1109 47.9671 31.3659 47.9671 29.5096V22.982C47.9671 19.1502 44.8496 16.0327 41.0178 16.0327ZM46.0923 29.5097C46.0921 30.8652 45.5643 32.1394 44.6058 33.0978L30.163 47.5407C29.5832 48.1207 28.8121 48.44 27.9921 48.44C27.1719 48.44 26.4008 48.1207 25.8211 47.5407L16.4595 38.1791C15.2622 36.9818 15.2622 35.0339 16.4595 33.8367L30.9023 19.394C31.8607 18.4355 33.1349 17.9076 34.4904 17.9076H41.018C43.816 17.9076 46.0925 20.184 46.0925 22.9821V29.5097H46.0923Z" fill="#1A1817"/>
<path d="M41.0177 20.0406C39.3957 20.0406 38.0764 21.3603 38.0764 22.982C38.0764 24.6038 39.396 25.9234 41.0177 25.9234C42.6396 25.9234 43.9591 24.6038 43.9591 22.982C43.9591 21.3603 42.6396 20.0406 41.0177 20.0406ZM41.0177 24.0486C40.4296 24.0486 39.9512 23.5701 39.9512 22.9821C39.9512 22.3941 40.4296 21.9156 41.0177 21.9156C41.6059 21.9156 42.0842 22.3941 42.0842 22.9821C42.0842 23.5701 41.6059 24.0486 41.0177 24.0486Z" fill="#1A1817"/>
<path d="M48.8426 12.2184C43.8852 7.98907 37.5591 5.79282 31.0247 6.03457C24.4552 6.27757 18.2757 8.97294 13.6244 13.6243C8.97301 18.2757 6.27764 24.4553 6.03464 31.0246C5.79302 37.5573 7.98926 43.8852 12.2185 48.8425C12.404 49.0599 12.6673 49.1715 12.9323 49.1715C13.1474 49.1715 13.3636 49.0977 13.5403 48.9471C13.934 48.6111 13.981 48.0194 13.645 47.6255C9.72139 43.0266 7.68414 37.1556 7.90826 31.0938C8.13376 24.9989 10.6345 19.2655 14.9503 14.9498C19.2659 10.6342 24.9991 8.13331 31.0942 7.90794C37.156 7.68407 43.0271 9.72119 47.6258 13.6446C48.0198 13.9807 48.6117 13.9337 48.9476 13.5398C49.2833 13.1462 49.2364 12.5544 48.8426 12.2184Z" fill="#1A1817"/>
<path d="M51.7814 15.1573C51.4453 14.7635 50.8539 14.7164 50.4596 15.0526C50.0658 15.3886 50.0188 15.9804 50.3548 16.3743C54.2784 20.9731 56.3156 26.844 56.0916 32.906C55.8661 39.0008 53.3653 44.7342 49.0496 49.0499C44.7341 53.3656 39.0007 55.8664 32.9057 56.0918C26.8431 56.3153 20.9729 54.2786 16.3741 50.3552C15.9801 50.0191 15.3884 50.0661 15.0524 50.4599C14.7164 50.8538 14.7633 51.4456 15.1571 51.7816C19.868 55.8006 25.8159 57.9834 32.0016 57.9834C32.3254 57.9834 32.6501 57.9774 32.975 57.9654C39.5445 57.7224 45.7239 55.0271 50.3753 50.3757C55.0267 45.7243 57.7221 39.5447 57.9651 32.9754C58.2069 26.4425 56.0108 20.1145 51.7814 15.1573Z" fill="#1A1817"/>
</svg>
