<svg width="64" height="64" viewBox="0 0 64 64" fill="none" xmlns="http://www.w3.org/2000/svg">
<g clip-path="url(#clip0_8_60)">
<path d="M48.9331 50.7194C48.7724 49.5033 48.0704 48.4547 47.0071 47.8426L34.9974 40.9279C33.4679 40.0474 31.528 40.3038 30.28 41.5518L27.1724 44.6594C26.5617 45.2701 25.5919 45.3196 24.9167 44.7745C23.0836 43.2945 21.278 41.668 19.55 39.9401C17.8221 38.2122 16.1955 36.4065 14.7156 34.5734C14.1705 33.8981 14.22 32.9285 14.8309 32.3177L17.9385 29.2101C19.1864 27.9621 19.4429 26.0223 18.5624 24.4929L11.6477 12.483C11.0356 11.42 9.98712 10.718 8.77087 10.557C7.55549 10.3965 6.35974 10.8013 5.49212 11.6688L1.92762 15.2333C-3.16051 20.3214 2.15024 33.6036 14.0182 45.4717C22.8389 54.2922 32.4392 59.4908 38.8776 59.49C41.102 59.4898 42.9504 58.8689 44.2567 57.5624L47.8212 53.9979C48.6886 53.1306 49.094 51.9355 48.9331 50.7194ZM46.4954 52.6719L46.0199 53.1474L35.7374 47.279C35.2879 47.0225 34.715 47.1788 34.4582 47.6285C34.2015 48.0783 34.358 48.6509 34.8079 48.9076L44.6454 54.522L42.9307 56.2364C40.9992 58.1679 37.0161 58.0733 32.0035 55.977C26.6526 53.7394 20.7364 49.5376 15.3445 44.1457C9.95249 38.7539 5.75087 32.8375 3.51312 27.4867C1.41674 22.4737 1.32237 18.4909 3.25387 16.5594L5.08437 14.7289L5.73412 15.8574C5.90774 16.1586 6.22324 16.3274 6.54762 16.3274C6.70637 16.3274 6.86724 16.287 7.01462 16.2021C7.46349 15.9438 7.61774 15.3705 7.35937 14.9216L6.45762 13.3556L6.81824 12.995C7.20499 12.6084 7.71637 12.3983 8.25274 12.3983C8.34299 12.3983 8.43387 12.4041 8.52499 12.4163C9.15799 12.4999 9.70399 12.8654 10.0225 13.4188L16.9374 25.4285C17.3959 26.2246 17.2622 27.2345 16.6125 27.884L15.4766 29.02L9.36324 18.4019C9.10487 17.953 8.53149 17.7988 8.08274 18.0573C7.63387 18.3155 7.47962 18.8889 7.73799 19.3378L14.1035 30.3934L13.505 30.9919C12.2145 32.2822 12.1077 34.3285 13.2566 35.7516C14.7781 37.6364 16.4494 39.4919 18.2241 41.2666C19.9989 43.0414 21.8542 44.7126 23.739 46.234C25.162 47.3829 27.2084 47.2762 28.4987 45.9857L28.9307 45.5537L31.2456 46.8749C31.3922 46.9585 31.5519 46.9984 31.7096 46.9984C32.0352 46.9984 32.3519 46.8285 32.5249 46.5252C32.7816 46.0755 32.6251 45.5029 32.1754 45.2461L30.3055 44.179L31.6065 42.878C32.256 42.2284 33.2656 42.0947 34.0621 42.5532L46.0719 49.468C46.6254 49.7866 46.9907 50.3325 47.0745 50.9655C47.158 51.5984 46.947 52.2205 46.4954 52.6719Z" fill="#1A1817"/>
<path d="M54.3357 14.8665C53.8274 12.4269 51.8467 10.4462 49.4069 9.93767C47.4613 9.53217 45.4774 10.006 43.9629 11.2374C42.4484 12.4689 41.5797 14.2937 41.5797 16.2439C41.5797 16.7618 41.9994 17.1815 42.5173 17.1815C43.0353 17.1815 43.4549 16.7617 43.4549 16.2439C43.4549 14.8608 44.0713 13.5663 45.1458 12.6924C46.2201 11.8188 47.6334 11.4838 49.024 11.7735C50.7444 12.1322 52.141 13.5288 52.4997 15.2492C53.0004 17.6518 51.6248 19.9693 49.2999 20.6398C47.9792 21.0207 47.0917 22.1648 47.0917 23.4868C47.0917 24.0047 47.5114 24.4244 48.0293 24.4244C48.5472 24.4244 48.9669 24.0045 48.9669 23.4868C48.9669 23.0087 49.3094 22.5887 49.8194 22.4418C53.0973 21.4964 55.0387 18.2399 54.3357 14.8665Z" fill="#1A1817"/>
<path d="M48.0396 26.1425H48.0296C47.5116 26.1425 47.097 26.5623 47.097 27.0801C47.097 27.5978 47.5217 28.0177 48.0396 28.0177C48.5576 28.0177 48.9772 27.5978 48.9772 27.0801C48.9772 26.5623 48.5574 26.1425 48.0396 26.1425Z" fill="#1A1817"/>
<path d="M60.0557 4.50989H36.0032C33.8283 4.50989 32.0591 6.27914 32.0591 8.45401V29.5C32.0591 31.6749 33.8283 33.4441 36.0032 33.4441H40.0766V38.3121C40.0766 38.8961 40.4252 39.4179 40.9647 39.6414C41.1439 39.7155 41.3312 39.7515 41.5167 39.7515C41.8905 39.7515 42.2567 39.6054 42.5326 39.3294L48.4177 33.4441H60.0556C62.2305 33.4443 64 31.6749 64 29.5V8.45401C64 6.27914 62.2306 4.50989 60.0557 4.50989ZM62.1247 29.5C62.1247 30.6409 61.1966 31.5689 60.0557 31.5689H48.0295C47.7809 31.5689 47.5424 31.6676 47.3664 31.8435L41.9519 37.2581V32.5065C41.9519 31.9886 41.5321 31.5689 41.0142 31.5689H36.0032C34.8624 31.5689 33.9344 30.6409 33.9344 29.5V8.45401C33.9344 7.31314 34.8624 6.38514 36.0032 6.38514H60.0557C61.1966 6.38514 62.1247 7.31314 62.1247 8.45401V29.5V29.5Z" fill="#1A1817"/>
</g>
<defs>
<clipPath id="clip0_8_60">
<rect width="64" height="64" fill="white"/>
</clipPath>
</defs>
</svg>
