<svg width="64" height="64" viewBox="0 0 64 64" fill="none" xmlns="http://www.w3.org/2000/svg">
<path d="M61.9961 29.6238V18.3829C61.9961 15.656 59.7775 13.4374 57.0506 13.4374H56.8462L56.506 10.2612C56.4509 9.7461 56.1984 9.28335 55.795 8.95809C55.3917 8.63284 54.8856 8.48409 54.3709 8.53934L53.3346 8.65034L52.8247 6.15096C52.6109 5.10309 51.5846 4.42409 50.5366 4.63821L7.40077 13.4374H4.94551C2.2185 13.4374 0 15.656 0 18.3829V54.4556C0 57.1824 2.2185 59.4011 4.94551 59.4011H57.0505C59.7774 59.4011 61.996 57.1824 61.996 54.4556V43.2148C63.1595 42.8224 64 41.7215 64 40.4273V32.4113C64.0001 31.117 63.1596 30.0163 61.9961 29.6238ZM54.5706 10.4036C54.5772 10.4032 54.597 10.4008 54.618 10.4175C54.6387 10.4343 54.641 10.4543 54.6416 10.4608L54.9605 13.4374H26.2508L54.5706 10.4036ZM50.9115 6.47547C50.946 6.46897 50.9806 6.49097 50.9876 6.52572L51.462 8.85084L25.7779 11.6023L50.9115 6.47547ZM60.1211 54.4556C60.1211 56.1487 58.7436 57.5262 57.0505 57.5262H4.94551C3.25251 57.5262 1.875 56.1487 1.875 54.4556V54.3909H50.0364C50.5542 54.3909 50.9739 53.9713 50.9739 53.4534C50.9739 52.9356 50.5542 52.5159 50.0364 52.5159H1.875V20.3225H50.0364C50.5542 20.3225 50.9739 19.9029 50.9739 19.385C50.9739 18.8671 50.5542 18.4475 50.0364 18.4475H1.875V18.3829C1.875 16.6897 3.25251 15.3124 4.94551 15.3124H56.0001C56.001 15.3124 56.0019 15.3125 56.0027 15.3125C56.0035 15.3125 56.0042 15.3124 56.005 15.3124H57.0506C58.7437 15.3124 60.1211 16.6899 60.1211 18.3829V29.4696H56.986V19.385C56.986 18.8671 56.5664 18.4475 56.0485 18.4475H54.0442C53.5264 18.4475 53.1067 18.8671 53.1067 19.385C53.1067 19.9029 53.5264 20.3225 54.0442 20.3225H55.111V29.4698H47.0303C45.4083 29.4698 44.0888 30.7894 44.0888 32.4113V40.4274C44.0888 42.0494 45.4085 43.3689 47.0303 43.3689H55.111V52.5161H54.0442C53.5264 52.5161 53.1067 52.9357 53.1067 53.4536C53.1067 53.9714 53.5264 54.3911 54.0442 54.3911H56.0485C56.5664 54.3911 56.986 53.9714 56.986 53.4536V43.3689H60.1211V54.4556ZM62.1251 40.4274C62.1251 41.0152 61.6474 41.4932 61.0597 41.4939C61.0594 41.4939 61.059 41.4939 61.0585 41.4939C61.0576 41.4939 61.0569 41.494 61.0561 41.494H47.0303C46.4422 41.494 45.9638 41.0157 45.9638 40.4275V32.4113C45.9638 31.8231 46.4422 31.3448 47.0303 31.3448H61.0537C61.0554 31.3448 61.057 31.345 61.0586 31.345C61.0595 31.345 61.0602 31.3449 61.061 31.3449C61.648 31.3463 62.1251 31.824 62.1251 32.4113V40.4274Z" fill="#1A1817"/>
<path d="M51.0386 33.4777C49.4166 33.4777 48.097 34.7974 48.097 36.4192C48.097 38.0411 49.4167 39.3607 51.0386 39.3607C52.6604 39.3607 53.9801 38.0411 53.9801 36.4192C53.9801 34.7974 52.6604 33.4777 51.0386 33.4777ZM51.0386 37.4857C50.4504 37.4857 49.9721 37.0074 49.9721 36.4192C49.9721 35.8311 50.4504 35.3527 51.0386 35.3527C51.6267 35.3527 52.1051 35.8311 52.1051 36.4192C52.1051 37.0074 51.6267 37.4857 51.0386 37.4857Z" fill="#1A1817"/>
</svg>
