<?xml version="1.0" encoding="utf-8"?><svg xmlns="http://www.w3.org/2000/svg" xmlns:xlink="http://www.w3.org/1999/xlink"><symbol viewBox="0 0 25 16" id="arrow-right" xmlns="http://www.w3.org/2000/svg"><path d="M24.707 8.707a1 1 0 000-1.414L18.343.929a1 1 0 10-1.414 1.414L22.586 8l-5.657 5.657a1 1 0 001.414 1.414l6.364-6.364zM0 9h24V7H0v2z"/></symbol><symbol viewBox="0 0 64 64" id="calculator" xmlns="http://www.w3.org/2000/svg"><path d="M52.04 0H11.96a4.951 4.951 0 00-4.946 4.946v54.108A4.951 4.951 0 0011.96 64h40.08a4.951 4.951 0 004.946-4.946V4.947A4.951 4.951 0 0052.04 0zM8.89 4.946a3.074 3.074 0 013.07-3.071h40.08a3.074 3.074 0 013.07 3.07v19.103H8.89V4.946zm46.22 54.109a3.074 3.074 0 01-3.07 3.07H11.96a3.074 3.074 0 01-3.07-3.07V25.923h46.22v33.132z"/><path d="M43.022 6.012H14.966c-1.07 0-1.94.87-1.94 1.94v10.02c0 1.07.87 1.94 1.94 1.94h2.004a.938.938 0 000-1.876h-2.004a.065.065 0 01-.065-.064V7.952c0-.036.03-.065.065-.065h28.056a.937.937 0 100-1.875z"/><path d="M49.035 6.012H47.03a.937.937 0 100 1.875h2.003c.036 0 .065.03.065.065v10.02a.065.065 0 01-.065.064H20.978a.937.937 0 100 1.875h28.056c1.07 0 1.94-.87 1.94-1.939V7.952c0-1.07-.87-1.94-1.94-1.94zM26.99 30.06a3.948 3.948 0 00-3.943 3.944 3.948 3.948 0 003.943 3.944 3.948 3.948 0 003.944-3.944 3.948 3.948 0 00-3.944-3.944zm0 6.013a2.07 2.07 0 01-2.068-2.069 2.07 2.07 0 012.068-2.069 2.07 2.07 0 012.069 2.07 2.07 2.07 0 01-2.069 2.068zm0 4.007a3.948 3.948 0 00-3.943 3.944 3.948 3.948 0 003.943 3.944 3.948 3.948 0 003.944-3.944 3.948 3.948 0 00-3.944-3.943zm0 6.013a2.07 2.07 0 01-2.068-2.069 2.07 2.07 0 012.068-2.068 2.07 2.07 0 012.069 2.068 2.07 2.07 0 01-2.069 2.069zm0 4.008a3.948 3.948 0 00-3.943 3.944 3.948 3.948 0 003.943 3.943 3.948 3.948 0 003.944-3.944 3.948 3.948 0 00-3.944-3.943zm0 6.012a2.07 2.07 0 01-2.068-2.069 2.07 2.07 0 012.068-2.068 2.07 2.07 0 012.069 2.068 2.07 2.07 0 01-2.069 2.069zM37.01 30.06a3.948 3.948 0 00-3.943 3.944 3.948 3.948 0 003.943 3.944 3.948 3.948 0 003.944-3.944 3.948 3.948 0 00-3.944-3.944zm0 6.013a2.071 2.071 0 01-2.068-2.069c0-1.14.928-2.069 2.068-2.069a2.07 2.07 0 012.069 2.07 2.07 2.07 0 01-2.069 2.068zm0 4.007a3.948 3.948 0 00-3.943 3.944 3.948 3.948 0 003.943 3.944 3.948 3.948 0 003.944-3.944 3.948 3.948 0 00-3.944-3.943zm0 6.013a2.071 2.071 0 01-2.068-2.069 2.07 2.07 0 012.068-2.068 2.07 2.07 0 012.069 2.068 2.07 2.07 0 01-2.069 2.069zm0 4.008a3.948 3.948 0 00-3.943 3.944 3.948 3.948 0 003.943 3.943 3.948 3.948 0 003.944-3.944 3.948 3.948 0 00-3.944-3.943zm0 6.012a2.071 2.071 0 01-2.068-2.069 2.07 2.07 0 012.068-2.068 2.07 2.07 0 012.069 2.068 2.07 2.07 0 01-2.069 2.069zM16.97 30.06a3.948 3.948 0 00-3.944 3.944 3.948 3.948 0 003.944 3.944 3.948 3.948 0 003.943-3.944 3.948 3.948 0 00-3.943-3.944zm0 6.013a2.071 2.071 0 01-2.069-2.069c0-1.14.928-2.069 2.069-2.069a2.07 2.07 0 012.068 2.07 2.07 2.07 0 01-2.068 2.068zm0 4.007a3.948 3.948 0 00-3.944 3.944 3.948 3.948 0 003.944 3.944 3.948 3.948 0 003.943-3.944 3.948 3.948 0 00-3.943-3.943zm0 6.013a2.071 2.071 0 01-2.069-2.069 2.07 2.07 0 012.069-2.068 2.07 2.07 0 012.068 2.068 2.07 2.07 0 01-2.068 2.069zm0 4.008a3.948 3.948 0 00-3.944 3.944 3.948 3.948 0 003.944 3.943 3.948 3.948 0 003.943-3.944 3.948 3.948 0 00-3.943-3.943zm0 6.012a2.071 2.071 0 01-2.069-2.069 2.07 2.07 0 012.069-2.068 2.07 2.07 0 012.068 2.068 2.07 2.07 0 01-2.068 2.069zM47.03 30.06a3.948 3.948 0 00-3.943 3.944 3.948 3.948 0 003.943 3.944 3.948 3.948 0 003.944-3.944 3.948 3.948 0 00-3.944-3.944zm0 6.013a2.071 2.071 0 01-2.068-2.069c0-1.14.928-2.069 2.068-2.069a2.07 2.07 0 012.069 2.07 2.07 2.07 0 01-2.069 2.068zm0 4.007a3.948 3.948 0 00-3.943 3.944v10.02a3.948 3.948 0 003.943 3.944 3.948 3.948 0 003.944-3.944v-10.02a3.948 3.948 0 00-3.944-3.943zm2.07 13.965a2.071 2.071 0 01-2.069 2.069 2.071 2.071 0 01-2.068-2.069v-10.02a2.07 2.07 0 012.068-2.068 2.07 2.07 0 012.069 2.068v10.02z"/></symbol><symbol viewBox="0 0 64 64" id="delivery-truck" xmlns="http://www.w3.org/2000/svg"><path d="M13.964 43.087c-1.07 0-1.94.87-1.94 1.94 0 1.069.87 1.939 1.94 1.939 1.07 0 1.94-.87 1.94-1.94 0-1.07-.87-1.94-1.94-1.94zm40.08 0c-1.07 0-1.94.87-1.94 1.94 0 1.069.87 1.939 1.94 1.939 1.07 0 1.94-.87 1.94-1.94 0-1.07-.87-1.94-1.94-1.94z"/><path d="M61.989 30.654l-7.218-2.406-3.374-9.277a2.95 2.95 0 00-2.764-1.937h-8.681v-2.068c0-1.07-.87-1.94-1.94-1.94H1.94c-1.07 0-1.94.87-1.94 1.94V42.02c0 1.07.87 1.94 1.94 1.94h6.174a5.952 5.952 0 00-.098 1.066 5.954 5.954 0 005.948 5.948 5.955 5.955 0 005.947-5.948c0-.364-.034-.72-.097-1.066h28.38a5.954 5.954 0 005.85 7.014 5.954 5.954 0 005.948-5.948c0-.463-.055-.914-.155-1.347l1.983-.991A3.923 3.923 0 0064 39.16v-5.716c0-1.268-.808-2.39-2.011-2.79zM1.875 14.966c0-.036.029-.065.065-.065h36.072c.036 0 .065.029.065.065V35.07H1.875V14.966zm12.089 34.133a4.077 4.077 0 01-4.073-4.073 4.077 4.077 0 014.073-4.072 4.077 4.077 0 014.072 4.072 4.077 4.077 0 01-4.072 4.073zm24.113-7.014H19.13a5.95 5.95 0 00-5.166-3.006 5.95 5.95 0 00-5.166 3.006H1.939a.065.065 0 01-.064-.065v-5.075h36.202v5.14zm12.76-19.168l1.869 5.14h-2.013l-1.869-5.14h2.013zM39.952 18.91h8.68c.448 0 .85.282 1.003.702l.52 1.431H39.952V18.91zm0 4.008h6.877l1.869 5.14h-8.746v-5.14zM54.044 49.1a4.077 4.077 0 01-4.072-4.073 4.077 4.077 0 014.072-4.072 4.077 4.077 0 014.073 4.072 4.077 4.077 0 01-4.073 4.073zm8.081-14.029h-1.066a.937.937 0 100 1.875h1.066v2.215c0 .789-.438 1.498-1.143 1.85l-1.856.928a5.95 5.95 0 00-5.082-2.86 5.95 5.95 0 00-5.166 3.007h-8.926v-5.14H57.05a.938.938 0 000-1.874h-17.1v-5.14h13.941l7.504 2.501c.436.146.729.552.729 1.012v1.626z"/><path d="M31.463 24.172l-7.014-4.008a.938.938 0 00-.93 1.628l3.949 2.256H8.954a.938.938 0 000 1.875h18.514l-3.95 2.257a.938.938 0 00.931 1.628l7.014-4.008a.938.938 0 000-1.628z"/></symbol><symbol viewBox="0 0 24 24" id="fb" xmlns="http://www.w3.org/2000/svg"><g clip-path="url(#dclip0_106_541)"><path d="M9.955 7.59v1.982H8.4v2.424h1.555V19.2h3.197v-7.204h2.145s.202-1.162.3-2.434h-2.432V7.906c0-.25.349-.582.694-.582h1.74V4.8h-2.368c-3.354 0-3.276 2.426-3.276 2.79z"/><path d="M4.8 2.4a2.4 2.4 0 00-2.4 2.4v14.4a2.4 2.4 0 002.4 2.4h14.4a2.4 2.4 0 002.4-2.4V4.8a2.4 2.4 0 00-2.4-2.4H4.8zm0-2.4h14.4A4.8 4.8 0 0124 4.8v14.4a4.8 4.8 0 01-4.8 4.8H4.8A4.8 4.8 0 010 19.2V4.8A4.8 4.8 0 014.8 0z"/></g><defs><clipPath id="dclip0_106_541"><path d="M0 0h24v24H0z"/></clipPath></defs></symbol><symbol viewBox="0 0 24 24" id="insta" xmlns="http://www.w3.org/2000/svg"><g clip-path="url(#eclip0_106_545)"><path fill-rule="evenodd" clip-rule="evenodd" d="M7.053.072C8.333.013 8.74 0 12 0s3.668.014 4.946.072c1.279.058 2.151.262 2.915.557.8.303 1.525.775 2.125 1.386a5.862 5.862 0 011.383 2.124c.297.764.5 1.636.559 2.913C23.987 8.333 24 8.742 24 12c0 3.26-.014 3.668-.072 4.947-.058 1.277-.262 2.15-.559 2.913a5.887 5.887 0 01-1.383 2.126 5.885 5.885 0 01-2.125 1.383c-.764.297-1.636.5-2.913.559-1.28.059-1.688.072-4.948.072-3.26 0-3.668-.014-4.947-.072-1.277-.058-2.15-.262-2.913-.559a5.889 5.889 0 01-2.126-1.383 5.882 5.882 0 01-1.385-2.125c-.295-.764-.498-1.636-.557-2.913C.013 15.666 0 15.258 0 12c0-3.26.014-3.668.072-4.946.058-1.279.262-2.151.557-2.915a5.89 5.89 0 011.386-2.125A5.882 5.882 0 014.139.629C4.903.334 5.775.131 7.052.072zm9.796 2.16c-1.265-.058-1.645-.07-4.849-.07s-3.584.012-4.85.07c-1.17.053-1.805.249-2.228.413-.56.219-.96.477-1.38.897a3.722 3.722 0 00-.897 1.38c-.164.423-.36 1.058-.413 2.229-.058 1.265-.07 1.645-.07 4.849s.012 3.584.07 4.85c.053 1.17.249 1.804.413 2.228.192.52.499.992.897 1.38.387.398.86.705 1.38.897.423.164 1.058.36 2.229.413 1.265.058 1.644.07 4.849.07s3.584-.012 4.85-.07c1.17-.053 1.804-.249 2.228-.413.56-.219.96-.477 1.38-.897.398-.387.705-.86.897-1.38.164-.424.36-1.058.413-2.229.058-1.265.07-1.645.07-4.849s-.012-3.584-.07-4.85c-.053-1.17-.249-1.805-.413-2.228a3.725 3.725 0 00-.897-1.38 3.723 3.723 0 00-1.38-.897c-.424-.164-1.058-.36-2.229-.413zm-6.382 13.467a4.002 4.002 0 004.364-6.53 4.003 4.003 0 10-4.364 6.53zM7.64 7.64a6.168 6.168 0 118.723 8.723A6.168 6.168 0 017.64 7.64zm11.897-.888a1.457 1.457 0 10-2-2.12 1.457 1.457 0 002 2.12z"/></g><defs><clipPath id="eclip0_106_545"><path d="M0 0h24v24H0z"/></clipPath></defs></symbol><symbol viewBox="0 0 64 64" id="invoice" xmlns="http://www.w3.org/2000/svg"><path d="M52.04 15.03a.937.937 0 00-.937.938v10.02a.937.937 0 101.875 0v-10.02a.937.937 0 00-.938-.938z"/><path d="M52.04 51.103a.937.937 0 00-.937.938v10.02a.065.065 0 01-.065.064H6.95a.064.064 0 01-.065-.065V1.94c0-.036.029-.065.065-.065h33.13v9.083c0 1.07.87 1.94 1.94 1.94h10.02a.937.937 0 00.663-1.601L41.681.275a1.161 1.161 0 00-.024-.023L41.654.25V.249h-.002l-.001-.003A.934.934 0 0041.017 0H6.95C5.88 0 5.01.87 5.01 1.94v60.12c0 1.07.87 1.94 1.94 1.94h44.088c1.07 0 1.94-.87 1.94-1.94V52.04a.937.937 0 00-.938-.937zM41.956 3.201l7.821 7.821H42.02a.065.065 0 01-.064-.064V3.2z"/><path d="M56.048 29.059H13.964A2.945 2.945 0 0011.022 32v14.028a2.945 2.945 0 002.942 2.942h42.084a2.945 2.945 0 002.942-2.942V32a2.945 2.945 0 00-2.942-2.941zm1.067 16.97c0 .588-.479 1.066-1.067 1.066H13.964a1.068 1.068 0 01-1.067-1.067V32c0-.588.479-1.066 1.067-1.066h42.084c.588 0 1.067.478 1.067 1.066v14.028z"/><path d="M15.968 34.069a.937.937 0 00-.938.937v8.016a.937.937 0 101.875 0v-8.016a.937.937 0 00-.937-.937zm24.742 0a.937.937 0 00-.938.937v8.016a.937.937 0 101.875 0v-8.016a.938.938 0 00-.938-.937zm-17.352 0a.938.938 0 00-.938.937v4.045l-2.232-4.464a.937.937 0 00-1.776.42v8.015a.937.937 0 101.875 0v-4.044l2.232 4.464a.938.938 0 001.776-.42v-8.016a.938.938 0 00-.937-.937zm7.429.028a.939.939 0 00-1.137.682l-1.094 4.378-1.095-4.378a.938.938 0 00-1.819.455l2.004 8.016a.937.937 0 001.82 0l2.003-8.016a.938.938 0 00-.682-1.137zm4.595-.028a2.945 2.945 0 00-2.942 2.941v4.008a2.945 2.945 0 002.942 2.942 2.945 2.945 0 002.942-2.942V37.01a2.945 2.945 0 00-2.942-2.941zm1.067 6.95a1.068 1.068 0 01-2.133 0V37.01a1.068 1.068 0 012.133 0v4.008zm11.785.19a.938.938 0 00-1.281.342 1.068 1.068 0 01-1.99-.533V37.01a1.068 1.068 0 011.99-.533.937.937 0 101.622-.94 2.952 2.952 0 00-2.547-1.468 2.945 2.945 0 00-2.941 2.941v4.008a2.945 2.945 0 002.941 2.942 2.952 2.952 0 002.548-1.47.937.937 0 00-.342-1.281zm5.81-1.257a.937.937 0 100-1.875h-2.068v-2.133h2.068a.937.937 0 100-1.875h-3.006a.937.937 0 00-.937.937v8.016c0 .518.42.938.937.938h3.006a.937.937 0 100-1.875h-2.068v-2.133h2.068z"/></symbol><symbol viewBox="0 0 24 24" id="moon" xmlns="http://www.w3.org/2000/svg"><g clip-path="url(#gclip0_106_560)"><path d="M12.644 24a11.684 11.684 0 0010.72-6.762A9.163 9.163 0 0119.5 18a9.438 9.438 0 01-9.427-9.428A9.77 9.77 0 0115.157.143a17.917 17.917 0 00-2.513-.141C6.017.002.645 5.374.645 12c0 6.627 5.372 12 12 12z"/></g><defs><clipPath id="gclip0_106_560"><path d="M0 0h24v24H0z"/></clipPath></defs></symbol><symbol viewBox="0 0 24 24" id="phone" xmlns="http://www.w3.org/2000/svg"><path d="M21.232 24h-.157C2.943 22.957.369 7.652.009 2.982A2.77 2.77 0 012.556 0H7.64a1.845 1.845 0 011.716 1.163l1.403 3.452a1.848 1.848 0 01-.406 1.994L8.387 8.594a8.65 8.65 0 006.995 7.015l2.002-1.984a1.845 1.845 0 012.002-.379l3.479 1.394A1.846 1.846 0 0124 16.357v4.874A2.77 2.77 0 0121.232 24zM2.777 1.846a.923.923 0 00-.923.923v.074c.425 5.465 3.147 18.388 19.322 19.31a.922.922 0 00.979-.867v-4.93l-3.48-1.393-2.648 2.63-.442-.055c-8.028-1.006-9.117-9.036-9.117-9.12l-.055-.443 2.62-2.649-1.384-3.48H2.777z"/></symbol><symbol viewBox="0 0 24 24" id="search" xmlns="http://www.w3.org/2000/svg"><path d="M9.188 3c1.47 0 2.91.4 4.148 1.154a7.426 7.426 0 012.836 3.098 6.97 6.97 0 01.628 4.06 7.134 7.134 0 01-1.78 3.741l6.235 5.92a.576.576 0 11-.793.835l-6.28-5.962a7.847 7.847 0 01-3.27 1.566 8.083 8.083 0 01-3.663-.05 7.82 7.82 0 01-3.222-1.653 7.292 7.292 0 01-2.051-2.882 6.956 6.956 0 01-.414-3.456A7.086 7.086 0 012.88 6.126a7.578 7.578 0 012.75-2.298A8.018 8.018 0 019.188 3zm0 1.123c-1.726 0-3.38.65-4.6 1.809-1.22 1.158-1.905 2.729-1.905 4.367s.685 3.209 1.905 4.367 2.874 1.809 4.6 1.809c1.724 0 3.379-.65 4.599-1.809 1.22-1.158 1.905-2.73 1.905-4.367 0-1.638-.685-3.209-1.905-4.367s-2.875-1.81-4.6-1.81z"/></symbol><symbol viewBox="0 0 24 24" id="sun" xmlns="http://www.w3.org/2000/svg"><path d="M18.4 12a6.4 6.4 0 11-12.8 0 6.4 6.4 0 0112.8 0zm-6 11.6v-3.2a.4.4 0 00-.8 0v3.2a.4.4 0 00.8 0zM12 4a.4.4 0 00.4-.4V.4a.4.4 0 00-.8 0v3.2c0 .22.18.4.4.4zM5.717 6.283a.4.4 0 00.566-.566l-2.4-2.4a.4.4 0 00-.566.566l2.4 2.4zm12.566 11.434a.4.4 0 00-.566.566l2.4 2.4a.4.4 0 00.566-.566l-2.4-2.4zM18 6.4a.4.4 0 00.283-.117l2.4-2.4a.4.4 0 00-.566-.566l-2.4 2.4A.4.4 0 0018 6.4zm5.6 5.2h-3.2a.4.4 0 000 .8h3.2a.4.4 0 000-.8zm-23.2.8h3.2a.4.4 0 000-.8H.4a.4.4 0 000 .8zm3.483 8.283l2.4-2.4a.4.4 0 00-.566-.566l-2.4 2.4a.4.4 0 10.566.566z"/></symbol><symbol viewBox="0 0 64 64" id="tag" xmlns="http://www.w3.org/2000/svg"><path d="M62.821 33.552a2.219 2.219 0 010-3.104 4.046 4.046 0 001.127-3.508 4.047 4.047 0 00-2.156-2.988A2.219 2.219 0 0160.833 21a4.046 4.046 0 00-.012-3.685 4.046 4.046 0 00-2.974-2.176 2.219 2.219 0 01-1.824-2.51 4.046 4.046 0 00-1.15-3.501 4.046 4.046 0 00-3.501-1.15 2.22 2.22 0 01-2.511-1.825 4.047 4.047 0 00-2.176-2.974A4.046 4.046 0 0043 3.167a2.218 2.218 0 01-2.952-.96A4.046 4.046 0 0037.06.053a4.047 4.047 0 00-3.508 1.127 2.218 2.218 0 01-3.104 0A4.046 4.046 0 0026.94.052a4.047 4.047 0 00-2.988 2.156A2.218 2.218 0 0121 3.167a4.046 4.046 0 00-3.684.012 4.046 4.046 0 00-2.176 2.974 2.219 2.219 0 01-2.511 1.825 4.047 4.047 0 00-3.5 1.15 4.046 4.046 0 00-1.151 3.5 2.219 2.219 0 01-1.825 2.511 4.046 4.046 0 00-2.973 2.176A4.046 4.046 0 003.167 21a2.219 2.219 0 01-.959 2.952A4.046 4.046 0 00.052 26.94a4.046 4.046 0 001.127 3.508 2.219 2.219 0 010 3.104A4.046 4.046 0 00.052 37.06a4.047 4.047 0 002.156 2.988A2.219 2.219 0 013.168 43a4.046 4.046 0 00.012 3.685 4.046 4.046 0 002.973 2.175 2.219 2.219 0 011.825 2.512 4.046 4.046 0 001.15 3.5 4.046 4.046 0 003.5 1.15 2.22 2.22 0 012.512 1.825 4.046 4.046 0 002.175 2.974c1.17.595 2.512.6 3.685.012a2.218 2.218 0 012.952.96 4.046 4.046 0 002.988 2.155 4.046 4.046 0 003.508-1.127 2.218 2.218 0 013.104 0 4.04 4.04 0 003.508 1.127 4.047 4.047 0 002.988-2.156 2.218 2.218 0 012.953-.959 4.046 4.046 0 003.684-.012 4.046 4.046 0 002.176-2.974 2.22 2.22 0 012.51-1.825 4.046 4.046 0 003.501-1.15 4.046 4.046 0 001.15-3.5 2.219 2.219 0 011.825-2.511 4.046 4.046 0 002.974-2.176c.595-1.169.6-2.512.012-3.685a2.219 2.219 0 01.96-2.952 4.046 4.046 0 002.155-2.988 4.046 4.046 0 00-1.127-3.508zm-1.334 1.317c.498.505.72 1.197.61 1.898a2.19 2.19 0 01-1.167 1.616 4.101 4.101 0 00-1.773 5.457 2.189 2.189 0 01-.007 1.993 2.189 2.189 0 01-1.609 1.178 4.1 4.1 0 00-3.372 4.642 2.188 2.188 0 01-.623 1.893 2.188 2.188 0 01-1.893.623 4.1 4.1 0 00-4.642 3.372 2.189 2.189 0 01-1.178 1.609 2.188 2.188 0 01-1.993.007 4.1 4.1 0 00-5.457 1.773 2.189 2.189 0 01-1.616 1.166 2.189 2.189 0 01-1.898-.61 4.072 4.072 0 00-2.87-1.17c-1.038 0-2.077.39-2.868 1.17a2.19 2.19 0 01-1.898.61 2.19 2.19 0 01-1.617-1.166 4.101 4.101 0 00-5.457-1.773 2.189 2.189 0 01-1.993-.007 2.189 2.189 0 01-1.177-1.609 4.1 4.1 0 00-4.642-3.373 2.19 2.19 0 01-1.894-.622 2.189 2.189 0 01-.622-1.894 4.1 4.1 0 00-3.373-4.642 2.189 2.189 0 01-1.609-1.177 2.189 2.189 0 01-.006-1.993 4.1 4.1 0 00-1.773-5.457 2.189 2.189 0 01-1.167-1.617 2.188 2.188 0 01.61-1.897 4.1 4.1 0 000-5.738 2.189 2.189 0 01-.61-1.898 2.19 2.19 0 011.167-1.617 4.101 4.101 0 001.773-5.457 2.188 2.188 0 01.007-1.993 2.189 2.189 0 011.608-1.177 4.1 4.1 0 003.373-4.642 2.188 2.188 0 01.622-1.894 2.19 2.19 0 011.894-.622 4.101 4.101 0 004.642-3.373 2.19 2.19 0 011.177-1.608 2.189 2.189 0 011.994-.007 4.1 4.1 0 005.457-1.773 2.189 2.189 0 011.616-1.167 2.19 2.19 0 011.898.61 4.1 4.1 0 005.738 0 2.188 2.188 0 011.898-.61c.7.111 1.29.537 1.616 1.167a4.101 4.101 0 005.458 1.773 2.189 2.189 0 011.992.006 2.19 2.19 0 011.178 1.61 4.1 4.1 0 004.642 3.372 2.19 2.19 0 011.894.622 2.19 2.19 0 01.622 1.894 4.1 4.1 0 003.373 4.642 2.19 2.19 0 011.608 1.177 2.19 2.19 0 01.007 1.994 4.1 4.1 0 001.773 5.457c.63.326 1.056.915 1.166 1.616a2.188 2.188 0 01-.61 1.898 4.1 4.1 0 000 5.738z"/><path d="M41.018 16.033H34.49a6.904 6.904 0 00-4.914 2.035L15.133 32.511a4.951 4.951 0 000 6.994l9.362 9.361a4.913 4.913 0 003.497 1.449 4.913 4.913 0 003.497-1.449l14.443-14.442a6.904 6.904 0 002.035-4.914v-6.528a6.957 6.957 0 00-6.95-6.95zm5.074 13.477c0 1.355-.528 2.63-1.486 3.588L30.163 47.54c-.58.58-1.35.899-2.17.899a3.05 3.05 0 01-2.172-.9l-9.362-9.36a3.074 3.074 0 010-4.343l14.443-14.443a5.04 5.04 0 013.588-1.486h6.528a5.08 5.08 0 015.075 5.074v6.528z"/><path d="M41.018 20.04a2.945 2.945 0 00-2.942 2.942 2.945 2.945 0 002.942 2.941 2.945 2.945 0 002.941-2.941 2.945 2.945 0 00-2.941-2.941zm0 4.009a1.068 1.068 0 010-2.133 1.068 1.068 0 010 2.133z"/><path d="M48.843 12.218a25.899 25.899 0 00-17.818-6.183 25.888 25.888 0 00-17.4 7.59 25.888 25.888 0 00-7.59 17.4 25.903 25.903 0 006.184 17.818.936.936 0 001.321.104.938.938 0 00.105-1.322 24.032 24.032 0 01-5.737-16.531A24.019 24.019 0 0114.95 14.95a24.018 24.018 0 0116.144-7.042 24.034 24.034 0 0116.532 5.737.938.938 0 001.217-1.427zm2.938 2.939a.938.938 0 00-1.426 1.217 24.032 24.032 0 015.737 16.532A24.02 24.02 0 0149.05 49.05a24.018 24.018 0 01-16.144 7.042 24.034 24.034 0 01-16.532-5.737.938.938 0 00-1.217 1.427 25.89 25.89 0 0017.818 6.183 25.888 25.888 0 0017.4-7.59 25.888 25.888 0 007.59-17.4 25.901 25.901 0 00-6.184-17.818z"/></symbol><symbol viewBox="0 0 24 24" id="telegram" xmlns="http://www.w3.org/2000/svg"><g clip-path="url(#lclip0_106_548)"><path d="M22.223 2.002c-.296.02-.587.088-.861.198h-.004c-.263.1-1.514.606-3.416 1.373l-6.816 2.76c-4.89 1.98-9.698 3.93-9.698 3.93l.057-.022s-.331.105-.677.333c-.214.13-.398.302-.542.503-.17.24-.306.607-.255.986.083.64.515 1.025.825 1.237.314.215.613.315.613.315h.008l4.508 1.46c.202.625 1.374 4.328 1.655 5.181.167.51.328.829.53 1.072.098.124.213.228.35.312.072.04.148.071.228.094l-.047-.011c.014.004.025.014.035.018.037.01.062.013.11.02.713.208 1.286-.218 1.286-.218l.033-.025 2.662-2.33 4.46 3.29.102.042c.93.393 1.872.174 2.37-.211.501-.388.696-.884.696-.884l.032-.08 3.448-16.982c.098-.419.123-.81.015-1.192a1.612 1.612 0 00-.722-.93 1.783 1.783 0 00-.985-.239zm-.093 1.82c-.004.056.007.05-.018.157v.01l-3.416 16.805c-.015.023-.04.076-.108.128-.072.055-.129.09-.43-.025l-5.456-4.022-3.296 2.889.693-4.252 8.915-7.99c.367-.328.245-.398.245-.398.025-.403-.555-.118-.555-.118L7.462 13.702l-.004-.017L2.07 11.94v-.003l-.014-.003a.248.248 0 00.028-.01l.03-.015.028-.01s4.811-1.95 9.702-3.929c2.448-.991 4.915-1.99 6.813-2.76a759.33 759.33 0 013.379-1.359c.075-.028.04-.028.094-.028v-.001z"/></g><defs><clipPath id="lclip0_106_548"><path d="M0 0h24v24H0z"/></clipPath></defs></symbol><symbol viewBox="0 0 64 64" id="telephone" xmlns="http://www.w3.org/2000/svg"><g clip-path="url(#mclip0_8_60)"><path d="M48.933 50.72a3.882 3.882 0 00-1.926-2.877l-12.01-6.915a3.918 3.918 0 00-4.717.624l-3.108 3.107c-.61.611-1.58.66-2.255.116a68.367 68.367 0 01-5.367-4.835 68.33 68.33 0 01-4.834-5.367 1.686 1.686 0 01.115-2.255l3.108-3.108a3.918 3.918 0 00.623-4.717l-6.914-12.01a3.884 3.884 0 00-2.877-1.926 3.885 3.885 0 00-3.279 1.112l-3.564 3.564c-5.089 5.088.222 18.37 12.09 30.239 8.82 8.82 18.421 14.019 24.86 14.018 2.224 0 4.072-.621 5.379-1.928l3.564-3.564a3.883 3.883 0 001.112-3.279zm-2.438 1.952l-.475.475-10.283-5.868a.938.938 0 00-.93 1.629l9.838 5.614-1.714 1.714c-1.932 1.932-5.915 1.837-10.927-.259-5.351-2.238-11.268-6.44-16.66-11.831-5.392-5.392-9.593-11.309-11.83-16.66-2.097-5.012-2.192-8.995-.26-10.927l1.83-1.83.65 1.128a.938.938 0 101.625-.935l-.901-1.566.36-.361a2.02 2.02 0 011.707-.579 2.02 2.02 0 011.498 1.003l6.914 12.01a2.039 2.039 0 01-.325 2.455l-1.135 1.136-6.114-10.618a.937.937 0 10-1.625.936l6.365 11.055-.598.599a3.558 3.558 0 00-.248 4.76 70.182 70.182 0 004.967 5.515 70.158 70.158 0 005.515 4.967 3.558 3.558 0 004.76-.248l.432-.432 2.315 1.32a.934.934 0 001.279-.349.938.938 0 00-.35-1.279l-1.87-1.067 1.302-1.301a2.04 2.04 0 012.455-.325l12.01 6.915a2.02 2.02 0 011.002 1.497 2.022 2.022 0 01-.579 1.707zm7.841-37.805c-.509-2.44-2.49-4.42-4.93-4.93-1.945-.405-3.929.069-5.443 1.3a6.428 6.428 0 00-2.383 5.007.938.938 0 101.875 0 4.56 4.56 0 011.69-3.552c1.075-.873 2.488-1.208 3.879-.918a4.543 4.543 0 013.476 3.475c.5 2.403-.875 4.72-3.2 5.39-1.32.382-2.208 1.526-2.208 2.848a.938.938 0 101.875 0c0-.478.342-.898.852-1.045 3.278-.946 5.22-4.202 4.517-7.575zM48.04 26.142h-.01a.933.933 0 00-.933.938c0 .518.425.938.943.938a.938.938 0 100-1.876z"/><path d="M60.056 4.51H36.003a3.948 3.948 0 00-3.944 3.944V29.5a3.948 3.948 0 003.944 3.944h4.074v4.868a1.435 1.435 0 001.44 1.44c.373 0 .74-.147 1.016-.423l5.885-5.885h11.638A3.949 3.949 0 0064 29.5V8.454a3.949 3.949 0 00-3.944-3.944zm2.069 24.99c0 1.14-.928 2.069-2.07 2.069H48.03a.938.938 0 00-.663.274l-5.414 5.415v-4.752a.938.938 0 00-.938-.937h-5.01a2.071 2.071 0 01-2.07-2.069V8.454c0-1.14.928-2.069 2.07-2.069h24.052c1.14 0 2.069.928 2.069 2.069V29.5z"/></g><defs><clipPath id="mclip0_8_60"><path d="M0 0h64v64H0z"/></clipPath></defs></symbol><symbol viewBox="0 0 64 64" id="wallet" xmlns="http://www.w3.org/2000/svg"><path d="M61.996 29.624V18.383a4.951 4.951 0 00-4.945-4.946h-.205l-.34-3.176a1.926 1.926 0 00-.711-1.303 1.927 1.927 0 00-1.424-.419l-1.036.111-.51-2.499a1.941 1.941 0 00-2.288-1.513L7.4 13.438H4.946A4.951 4.951 0 000 18.382v36.073A4.951 4.951 0 004.946 59.4H57.05a4.951 4.951 0 004.945-4.945v-11.24A2.946 2.946 0 0064 40.427v-8.016c0-1.294-.84-2.395-2.004-2.787zm-7.425-19.22c.006 0 .026-.003.047.014.02.016.023.036.024.043l.319 2.976H26.25l28.32-3.033zm-3.66-3.929a.065.065 0 01.077.05l.474 2.326-25.684 2.751L50.91 6.475zm9.21 47.98a3.074 3.074 0 01-3.07 3.071H4.946a3.074 3.074 0 01-3.071-3.07v-.065h48.161a.937.937 0 100-1.875H1.875V20.323h48.161a.937.937 0 100-1.875H1.875v-.065a3.074 3.074 0 013.07-3.07h52.106a3.074 3.074 0 013.07 3.07V29.47h-3.135V19.385a.937.937 0 00-.938-.938h-2.004a.937.937 0 100 1.876h1.067v9.147h-8.08a2.945 2.945 0 00-2.942 2.941v8.016a2.945 2.945 0 002.941 2.942h8.081v9.147h-1.067a.937.937 0 100 1.875h2.005c.517 0 .937-.42.937-.937V43.369h3.135v11.087zm2.004-14.028c0 .588-.478 1.066-1.065 1.067H47.03a1.068 1.068 0 01-1.066-1.066V32.41c0-.588.478-1.066 1.066-1.066h14.031a1.067 1.067 0 011.064 1.066v8.016z"/><path d="M51.039 33.478a2.945 2.945 0 00-2.942 2.941 2.945 2.945 0 002.942 2.942 2.945 2.945 0 002.941-2.942 2.945 2.945 0 00-2.941-2.941zm0 4.008a1.068 1.068 0 010-2.133 1.068 1.068 0 010 2.133z"/></symbol></svg>