<svg width="64" height="64" viewBox="0 0 64 64" fill="none" xmlns="http://www.w3.org/2000/svg">
<path d="M52.0403 15.0303C51.5225 15.0303 51.1028 15.45 51.1028 15.9678V25.9879C51.1028 26.5058 51.5225 26.9254 52.0403 26.9254C52.558 26.9254 52.9778 26.5058 52.9778 25.9879V15.9678C52.9778 15.4501 52.5582 15.0303 52.0403 15.0303Z" fill="#1A1817"/>
<path d="M52.0402 51.1033C51.5225 51.1033 51.1027 51.5229 51.1027 52.0408V62.0605C51.1027 62.0961 51.0739 62.1251 51.0382 62.1251H6.94957C6.91394 62.1251 6.88507 62.0963 6.88507 62.0605V1.93987C6.88507 1.90425 6.91394 1.87525 6.94957 1.87525H40.0805V10.9579C40.0805 12.0274 40.9505 12.8975 42.02 12.8975H52.0402C52.4195 12.8975 52.7612 12.6691 52.9064 12.3187C53.0515 11.9684 52.9712 11.5652 52.7031 11.297L41.6809 0.274749C41.673 0.266874 41.665 0.25925 41.6569 0.251625C41.6568 0.251375 41.6565 0.25125 41.6564 0.251125C41.656 0.250625 41.6555 0.25025 41.6551 0.249875C41.6549 0.2495 41.6544 0.249125 41.6541 0.248875C41.6539 0.248625 41.6536 0.248375 41.6534 0.248125C41.6529 0.247625 41.6523 0.247125 41.6516 0.2465C41.6516 0.2465 41.6515 0.2465 41.6515 0.246375C41.486 0.0946248 41.2659 0.0015 41.0239 0C41.022 0.000125 41.0201 0.000125 41.0181 0H6.94957C5.88007 0 5.01007 0.870123 5.01007 1.93962V62.0604C5.01007 63.1299 5.88007 64 6.94957 64H51.0382C52.1077 64 52.9777 63.1299 52.9777 62.0604V52.0406C52.9777 51.523 52.5581 51.1033 52.0402 51.1033ZM41.9556 3.20099L49.777 11.0224H42.0201C41.9845 11.0224 41.9556 10.9935 41.9556 10.9577V3.20099V3.20099Z" fill="#1A1817"/>
<path d="M56.0484 29.0587H13.9636C12.3416 29.0587 11.0221 30.3783 11.0221 32.0002V46.0284C11.0221 47.6504 12.3417 48.9699 13.9636 48.9699H56.0483C57.6703 48.9699 58.9898 47.6503 58.9898 46.0284V32.0002C58.9898 30.3782 57.6704 29.0587 56.0484 29.0587ZM57.1149 46.0284C57.1149 46.6166 56.6364 47.0949 56.0484 47.0949H13.9636C13.3755 47.0949 12.8971 46.6166 12.8971 46.0284V32.0002C12.8971 31.4121 13.3756 30.9337 13.9636 30.9337H56.0483C56.6364 30.9337 57.1148 31.4121 57.1148 32.0002V46.0284H57.1149Z" fill="#1A1817"/>
<path d="M15.9678 34.0688C15.45 34.0688 15.0303 34.4884 15.0303 35.0063V43.0224C15.0303 43.5403 15.45 43.9599 15.9678 43.9599C16.4855 43.9599 16.9053 43.5403 16.9053 43.0224V35.0063C16.9053 34.4884 16.4856 34.0688 15.9678 34.0688Z" fill="#1A1817"/>
<path d="M40.7091 34.0688C40.1914 34.0688 39.7716 34.4884 39.7716 35.0063V43.0224C39.7716 43.5403 40.1914 43.9599 40.7091 43.9599C41.2269 43.9599 41.6466 43.5403 41.6466 43.0224V35.0063C41.6466 34.4884 41.2267 34.0688 40.7091 34.0688Z" fill="#1A1817"/>
<path d="M23.3577 34.0688C22.84 34.0688 22.4202 34.4885 22.4202 35.0063V39.0511L20.1882 34.587C19.9939 34.1982 19.5575 33.9936 19.1344 34.0938C18.7112 34.1938 18.4122 34.5715 18.4122 35.0063V43.0224C18.4122 43.5403 18.832 43.9599 19.3497 43.9599C19.8675 43.9599 20.2872 43.5403 20.2872 43.0224V38.9777L22.5192 43.4418C22.6806 43.7646 23.0087 43.9601 23.3575 43.9601C23.4288 43.9601 23.5012 43.9519 23.5731 43.9349C23.9962 43.8349 24.2952 43.4573 24.2952 43.0224V35.0063C24.2952 34.4885 23.8753 34.0688 23.3577 34.0688Z" fill="#1A1817"/>
<path d="M30.7871 34.0967C30.2856 33.972 29.7758 34.2766 29.6502 34.7788L28.5556 39.157L27.4611 34.7788C27.3354 34.2765 26.8262 33.9715 26.3242 34.0967C25.8218 34.2223 25.5164 34.7313 25.6421 35.2337L27.6461 43.2498C27.7503 43.6672 28.1253 43.9599 28.5556 43.9599C28.9858 43.9599 29.3607 43.6671 29.4651 43.2498L31.4692 35.2337C31.5947 34.7315 31.2893 34.2223 30.7871 34.0967Z" fill="#1A1817"/>
<path d="M35.3819 34.0688C33.7599 34.0688 32.4404 35.3884 32.4404 37.0103V41.0183C32.4404 42.6403 33.76 43.9598 35.382 43.9598C37.004 43.9598 38.3235 42.6401 38.3235 41.0183V37.0103C38.3235 35.3883 37.0039 34.0688 35.3819 34.0688ZM36.4486 41.0184C36.4485 41.6065 35.97 42.0849 35.382 42.0849C34.7939 42.0849 34.3155 41.6065 34.3155 41.0184V37.0104C34.3155 36.4223 34.794 35.9439 35.3821 35.9439C35.9702 35.9439 36.4486 36.4223 36.4486 37.0104V41.0184Z" fill="#1A1817"/>
<path d="M48.2336 41.2089C47.7856 40.9499 47.212 41.1028 46.9526 41.5509C46.7621 41.8803 46.408 42.0848 46.0282 42.0848C45.4401 42.0848 44.9617 41.6064 44.9617 41.0183V37.0103C44.9617 36.4222 45.4402 35.9438 46.0282 35.9438C46.4077 35.9438 46.762 36.1483 46.9525 36.4773C47.212 36.9255 47.7856 37.0785 48.2336 36.8188C48.6816 36.5594 48.8346 35.9858 48.5751 35.5378C48.0505 34.6317 47.0746 34.0688 46.0282 34.0688C44.4062 34.0688 43.0867 35.3884 43.0867 37.0103V41.0183C43.0867 42.6403 44.4063 43.9598 46.0282 43.9598C47.075 43.9598 48.0511 43.3965 48.5756 42.4898C48.835 42.0416 48.6818 41.4681 48.2336 41.2089Z" fill="#1A1817"/>
<path d="M54.0444 39.9519C54.5622 39.9519 54.9819 39.5323 54.9819 39.0144C54.9819 38.4965 54.5622 38.0769 54.0444 38.0769H51.9759V35.9439H54.0444V35.9438C54.5622 35.9438 54.9819 35.5242 54.9819 35.0063C54.9819 34.4884 54.5622 34.0688 54.0444 34.0688H51.0384C50.5207 34.0688 50.1009 34.4884 50.1009 35.0063V43.0224C50.1009 43.5403 50.5207 43.9599 51.0384 43.9599H54.0444C54.5622 43.9599 54.9819 43.5403 54.9819 43.0224C54.9819 42.5045 54.5622 42.0849 54.0444 42.0849H51.9759V39.9519H54.0444Z" fill="#1A1817"/>
</svg>
