<svg width="24" height="24" viewBox="0 0 24 24" fill="none" xmlns="http://www.w3.org/2000/svg">
<path d="M21.2317 24H21.0749C2.94309 22.9569 0.368656 7.65231 0.00878891 2.98154C-0.0202079 2.61838 0.0227118 2.25307 0.135088 1.90653C0.247465 1.56 0.42709 1.23905 0.663672 0.962079C0.900253 0.685108 1.18914 0.457558 1.51378 0.292467C1.83842 0.127376 2.19244 0.0279894 2.55554 8.65468e-07H7.63983C8.00943 -0.00035707 8.37064 0.110317 8.67664 0.317689C8.98265 0.52506 9.21936 0.819573 9.35612 1.16308L10.7587 4.61539C10.8937 4.95097 10.9272 5.31884 10.8551 5.67332C10.7829 6.02779 10.6082 6.35324 10.3527 6.60923L8.38724 8.59385C8.69425 10.3392 9.52976 11.948 10.7807 13.2027C12.0317 14.4575 13.6377 15.2975 15.3816 15.6092L17.3839 13.6246C17.6437 13.3718 17.9721 13.2012 18.3281 13.1339C18.6842 13.0665 19.0522 13.1056 19.3863 13.2462L22.865 14.64C23.2032 14.7811 23.4917 15.0198 23.6939 15.3255C23.896 15.6313 24.0025 15.9904 24 16.3569V21.2308C24 21.9652 23.7083 22.6696 23.1892 23.1889C22.67 23.7082 21.9659 24 21.2317 24ZM2.777 1.84615C2.53228 1.84615 2.29757 1.94341 2.12453 2.11652C1.95148 2.28963 1.85426 2.52442 1.85426 2.76923V2.84308C2.27872 8.30769 5.0008 21.2308 21.1764 22.1538C21.2976 22.1613 21.4191 22.1448 21.5339 22.1052C21.6488 22.0656 21.7547 22.0038 21.8455 21.9232C21.9364 21.8425 22.0105 21.7448 22.0635 21.6355C22.1165 21.5262 22.1474 21.4074 22.1545 21.2862V16.3569L18.6758 14.9631L16.0275 17.5938L15.5846 17.5385C7.55678 16.5323 6.46795 8.50154 6.46795 8.41846L6.41258 7.97539L9.03316 5.32616L7.64905 1.84615H2.777Z" fill="#1A1817"/>
</svg>
