<svg width="24" height="24" viewBox="0 0 24 24" fill="none" xmlns="http://www.w3.org/2000/svg">
<path d="M18.4001 12C18.4001 15.5345 15.5347 18.4 12.0001 18.4C8.46553 18.4 5.6001 15.5345 5.6001 12C5.6001 8.4654 8.46553 5.59998 12.0001 5.59998C15.5347 5.59998 18.4001 8.4654 18.4001 12Z" fill="white"/>
<path d="M12.4001 23.6V20.4C12.4001 20.1791 12.221 20 12.0001 20C11.7792 20 11.6001 20.1791 11.6001 20.4V23.6C11.6001 23.8209 11.7792 24 12.0001 24C12.221 24 12.4001 23.8209 12.4001 23.6Z" fill="white"/>
<path d="M12.0001 4C12.221 4 12.4001 3.8209 12.4001 3.6V0.4C12.4001 0.179102 12.221 0 12.0001 0C11.7792 0 11.6001 0.179102 11.6001 0.4V3.6C11.6001 3.8209 11.7792 4 12.0001 4Z" fill="white"/>
<path d="M5.71735 6.28285C5.87438 6.43441 6.12379 6.43226 6.27809 6.27797C6.43238 6.12367 6.43453 5.87425 6.28297 5.71722L3.88297 3.31723C3.72594 3.16566 3.47653 3.16781 3.32223 3.32211C3.16794 3.47641 3.16579 3.72582 3.31735 3.88285L5.71735 6.28285Z" fill="white"/>
<path d="M18.2829 17.7172C18.1258 17.5656 17.8764 17.5678 17.7221 17.7221C17.5678 17.8764 17.5657 18.1258 17.7173 18.2828L20.1172 20.6828C20.2743 20.8344 20.5237 20.8322 20.678 20.6779C20.8323 20.5236 20.8344 20.2742 20.6829 20.1172L18.2829 17.7172Z" fill="white"/>
<path d="M18.0001 6.40004C18.1061 6.40004 18.2079 6.35786 18.2829 6.28286L20.6829 3.88285C20.8344 3.72582 20.8323 3.47641 20.678 3.32211C20.5237 3.16781 20.2743 3.16566 20.1172 3.31723L17.7172 5.71723C17.603 5.83168 17.5686 6.00375 17.6305 6.15317C17.6924 6.30258 17.8383 6.40004 18.0001 6.40004Z" fill="white"/>
<path d="M23.6 11.6H20.4C20.1791 11.6 20 11.7791 20 12C20 12.2209 20.1791 12.4 20.4 12.4H23.6C23.8209 12.4 24 12.2209 24 12C24 11.7791 23.8209 11.6 23.6 11.6Z" fill="white"/>
<path d="M0.4 12.4H3.6C3.8209 12.4 4 12.2209 4 12C4 11.7791 3.8209 11.6 3.6 11.6H0.4C0.179102 11.6 0 11.7791 0 12C0 12.2209 0.179102 12.4 0.4 12.4Z" fill="white"/>
<path d="M3.88253 20.6828L6.28253 18.2828C6.43409 18.1258 6.43194 17.8764 6.27765 17.7221C6.12335 17.5678 5.87394 17.5656 5.71691 17.7172L3.31691 20.1172C3.213 20.2176 3.1712 20.3664 3.20792 20.5063C3.24444 20.6461 3.35362 20.7553 3.49347 20.7918C3.63331 20.8285 3.78214 20.7867 3.88253 20.6828Z" fill="white"/>
</svg>
