<svg width="24" height="24" viewBox="0 0 24 24" fill="none" xmlns="http://www.w3.org/2000/svg">
<g clip-path="url(#clip0_106_548)">
<path d="M22.2232 2.00212C21.9268 2.02286 21.6359 2.08971 21.3618 2.20008H21.3581C21.095 2.3004 19.8439 2.8064 17.9419 3.57339L11.1262 6.33333C6.23555 8.31295 1.42799 10.2624 1.42799 10.2624L1.48523 10.2411C1.48523 10.2411 1.15377 10.3458 0.807537 10.574C0.593636 10.7049 0.409575 10.8761 0.266489 11.0773C0.0966041 11.317 -0.0400426 11.6836 0.0107383 12.0627C0.0938343 12.7036 0.525933 13.088 0.836159 13.3002C1.15008 13.515 1.44922 13.6153 1.44922 13.6153H1.45661L5.96503 15.0756C6.16723 15.6997 7.33888 19.4033 7.62049 20.2564C7.78668 20.7659 7.94825 21.0846 8.15045 21.3279C8.24832 21.4522 8.36281 21.556 8.50038 21.6395C8.5719 21.6795 8.64815 21.7111 8.72751 21.7336L8.68134 21.7229C8.69519 21.7265 8.70627 21.7371 8.71643 21.7407C8.75336 21.7504 8.77829 21.754 8.82538 21.7611C9.53908 21.9688 10.1124 21.5427 10.1124 21.5427L10.1448 21.5178L12.8066 19.1876L17.2679 22.4784L17.3695 22.5201C18.2992 22.9125 19.241 22.6941 19.7387 22.3088C20.24 21.9209 20.4348 21.4246 20.4348 21.4246L20.4671 21.3447L23.9147 4.36347C24.0126 3.94446 24.0375 3.55209 23.9295 3.17125C23.818 2.78583 23.5609 2.45434 23.2084 2.24181C22.9124 2.0688 22.5692 1.9853 22.2232 2.00212ZM22.13 3.82196C22.1263 3.87788 22.1374 3.87167 22.1115 3.97908V3.98885L18.6963 20.7935C18.6815 20.8174 18.6566 20.8698 18.5882 20.9222C18.5162 20.9772 18.459 21.0118 18.1589 20.8973L12.7023 16.8751L9.40613 19.7637L10.0986 15.5115L19.0139 7.52199C19.3813 7.19353 19.2585 7.12429 19.2585 7.12429C19.2844 6.72126 18.7036 7.00622 18.7036 7.00622L7.46168 13.7023L7.45799 13.6846L2.06967 11.9402V11.9366L2.05582 11.934C2.06527 11.931 2.07452 11.9274 2.08352 11.9233L2.11307 11.9091L2.14169 11.8994C2.14169 11.8994 6.95295 9.94992 11.8436 7.97029C14.2922 6.9787 16.7592 5.98001 18.6566 5.20947C20.5539 4.44336 21.9564 3.88143 22.0358 3.85125C22.1115 3.82284 22.0755 3.82284 22.13 3.82284V3.82196Z" fill="#1A1817"/>
</g>
<defs>
<clipPath id="clip0_106_548">
<rect width="24" height="24" fill="white"/>
</clipPath>
</defs>
</svg>
